<svg xmlns="http://www.w3.org/2000/svg" xmlns:xlink="http://www.w3.org/1999/xlink" width="956" height="2218.5" viewBox="0 0 956 2218.5"><symbol id="a" viewBox="-86 -61 172 122"><path d="M-34.43-15.152c-8.271 0-15 6.729-15 15s6.729 15 15 15 15-6.729 15-15-6.729-15-15-15zm0 24.001c-4.962 0-9-4.038-9-9s4.038-9 9-9 9 4.038 9 9-4.038 9-9 9z"/><path fill-rule="evenodd" clip-rule="evenodd" d="M-30.43-.152c0-2.209-1.791-4-4-4s-4 1.791-4 4 1.791 4 4 4 4-1.79 4-4z"/><path d="M33.57-15.152c-8.272 0-15.002 6.729-15.002 15s6.73 15 15.002 15c8.271 0 15-6.729 15-15s-6.729-15-15-15zm0 24.001c-4.964 0-9.002-4.038-9.002-9s4.038-9 9.002-9c4.962 0 9 4.038 9 9s-4.038 9-9 9z"/><path fill-rule="evenodd" clip-rule="evenodd" d="M37.57-.152c0-2.209-1.791-4-4-4-2.211 0-4.002 1.791-4.002 4s1.791 4 4.002 4c2.209.001 4-1.79 4-4z"/><path fill="none" d="M86-61h-172v122h172z"/></symbol><symbol id="b" viewBox="-86 -61 172 122"><path d="M-39-18.431c-1.657 0-3 1.343-3 3v17.166c0 11.58 9.42 21 21.001 21 11.58 0 20.999-9.421 20.999-21v-16.854c0-1.657-1.343-3-3-3s-3 1.343-3 3v16.854c0 8.271-6.728 15-14.999 15-8.272 0-15.001-6.729-15.001-15v-17.166c0-1.656-1.343-3-3-3z"/><path fill-rule="evenodd" clip-rule="evenodd" d="M-9.317.561c0-4.729-3.834-8.563-8.562-8.563-4.729 0-8.563 3.833-8.563 8.563s3.834 8.563 8.563 8.563c4.728 0 8.562-3.834 8.562-8.563z"/><path d="M-28.038-24.886c-1.657 0-3 1.343-3 3 0 2.181-1.774 3.956-3.955 3.956s-3.955-1.774-3.955-3.956c0-1.657-1.343-3-3-3s-3 1.343-3 3c0 5.49 4.466 9.956 9.955 9.956s9.955-4.466 9.955-9.956c0-1.657-1.343-3-3-3zM-14.128-24.886c-1.657 0-3 1.343-3 3 0 2.181-1.774 3.956-3.955 3.956s-3.955-1.774-3.955-3.956c0-1.657-1.343-3-3-3s-3 1.343-3 3c0 5.49 4.466 9.956 9.955 9.956s9.955-4.466 9.955-9.956c0-1.657-1.343-3-3-3zM-.212-24.886c-1.657 0-3 1.343-3 3 0 2.181-1.774 3.956-3.955 3.956s-3.955-1.774-3.955-3.956c0-1.657-1.343-3-3-3s-3 1.343-3 3c0 5.49 4.466 9.956 9.955 9.956s9.955-4.466 9.955-9.956c0-1.657-1.343-3-3-3zM3-18.431c-1.657 0-3 1.343-3 3v17.166c0 11.58 9.42 21 21.001 21 11.58 0 20.999-9.421 20.999-21v-16.854c0-1.657-1.343-3-3-3s-3 1.343-3 3v16.854c0 8.271-6.728 15-14.999 15-8.272.001-15.001-6.728-15.001-15v-17.166c0-1.656-1.343-3-3-3z"/><path fill-rule="evenodd" clip-rule="evenodd" d="M26.382.561c0-4.729-3.834-8.563-8.562-8.563-4.729 0-8.563 3.833-8.563 8.563s3.834 8.563 8.563 8.563c4.728 0 8.562-3.834 8.562-8.563z"/><path d="M13.628-24.886c-1.657 0-3 1.343-3 3 0 2.181-1.774 3.956-3.955 3.956s-3.955-1.774-3.955-3.956c0-1.657-1.343-3-3-3s-3 1.343-3 3c0 5.49 4.466 9.956 9.955 9.956s9.955-4.466 9.955-9.956c0-1.657-1.343-3-3-3zM27.539-24.886c-1.657 0-3 1.343-3 3 0 2.181-1.774 3.956-3.955 3.956s-3.955-1.774-3.955-3.956c0-1.657-1.343-3-3-3s-3 1.343-3 3c0 5.49 4.466 9.956 9.955 9.956s9.955-4.466 9.955-9.956c0-1.657-1.344-3-3-3zM41.455-24.886c-1.657 0-3 1.343-3 3 0 2.181-1.774 3.956-3.955 3.956s-3.955-1.774-3.955-3.956c0-1.657-1.343-3-3-3s-3 1.343-3 3c0 5.49 4.466 9.956 9.955 9.956s9.955-4.466 9.955-9.956c0-1.657-1.344-3-3-3z"/><path fill="none" d="M86-61h-172v122h172z"/></symbol><symbol id="c" viewBox="-86 -61 172 122"><path d="M-35.256-20.817c-11.441 0-20.75 9.309-20.75 20.75 0 11.442 9.309 20.75 20.75 20.75s20.749-9.309 20.749-20.75-9.308-20.75-20.749-20.75zm0 35.501c-8.133 0-14.75-6.617-14.75-14.75s6.617-14.75 14.75-14.75 14.749 6.617 14.749 14.75-6.616 14.75-14.749 14.75z"/><path fill-rule="evenodd" clip-rule="evenodd" d="M-35.256 17.684c9.802 0 17.749-7.947 17.749-17.75s-7.947-17.75-17.749-17.75"/><path d="M35.243-20.817c-11.441 0-20.75 9.309-20.75 20.75 0 11.442 9.309 20.75 20.75 20.75s20.75-9.309 20.75-20.75-9.308-20.75-20.75-20.75zm0 35.501c-8.133 0-14.75-6.617-14.75-14.75s6.617-14.75 14.75-14.75 14.75 6.617 14.75 14.75-6.617 14.75-14.75 14.75z"/><path fill-rule="evenodd" clip-rule="evenodd" d="M35.243 17.684c9.803 0 17.75-7.947 17.75-17.75s-7.947-17.75-17.75-17.75"/><path fill="none" d="M86-61h-172v122h172z"/></symbol><symbol id="d" viewBox="-86 -61 172 122"><path d="M38.75-21c-11.441 0-20.75 9.309-20.75 20.75 0 11.442 9.309 20.75 20.75 20.75s20.75-9.308 20.75-20.75c0-11.441-9.309-20.75-20.75-20.75zm0 35.5c-8.133 0-14.75-6.617-14.75-14.75s6.617-14.75 14.75-14.75 14.75 6.617 14.75 14.75-6.617 14.75-14.75 14.75zM38.5-9.25c-2.485 0-4.5 2.015-4.5 4.5v9c0 2.485 2.015 4.5 4.5 4.5s4.5-2.015 4.5-4.5v-9c0-2.485-2.015-4.5-4.5-4.5zM-38.208-21c-11.441 0-20.75 9.309-20.75 20.75 0 11.442 9.309 20.75 20.75 20.75s20.75-9.309 20.75-20.75-9.309-20.75-20.75-20.75zm0 35.5c-8.133 0-14.75-6.617-14.75-14.75s6.617-14.75 14.75-14.75 14.75 6.617 14.75 14.75-6.617 14.75-14.75 14.75zM-38.5-9.25c-2.485 0-4.5 2.015-4.5 4.5v9c0 2.485 2.015 4.5 4.5 4.5s4.5-2.015 4.5-4.5v-9c0-2.485-2.015-4.5-4.5-4.5z"/><path fill="none" d="M86-61h-172v122h172z"/></symbol><symbol id="e" viewBox="-86 -61 172 122"><path d="M-33.729-20.625c-5.542 0-10.753 2.158-14.672 6.077-3.919 3.919-6.078 9.13-6.077 14.673 0 5.543 2.158 10.754 6.078 14.673 3.919 3.919 9.129 6.078 14.672 6.078 5.542 0 10.753-2.159 14.672-6.078 3.92-3.919 6.078-9.129 6.078-14.672s-2.158-10.753-6.078-14.672c-3.92-3.92-9.131-6.079-14.673-6.079zm0 35.5c-3.94 0-7.644-1.535-10.43-4.32-2.786-2.786-4.32-6.49-4.32-10.43s1.534-7.644 4.319-10.43c2.786-2.786 6.49-4.32 10.43-4.32 3.94 0 7.645 1.535 10.431 4.321s4.32 6.49 4.32 10.43-1.534 7.644-4.32 10.429c-2.786 2.786-6.49 4.32-10.43 4.32z"/><path fill-rule="evenodd" clip-rule="evenodd" d="M-46.28-12.426c-6.932 6.932-6.932 18.171.001 25.103 6.932 6.933 18.17 6.932 25.102 0"/><path d="M36.771-20.625c-5.542 0-10.753 2.158-14.672 6.078-8.091 8.09-8.092 21.254-.001 29.345 3.919 3.919 9.13 6.078 14.672 6.078 5.543 0 10.755-2.159 14.674-6.078 8.091-8.091 8.091-21.255 0-29.345-3.92-3.92-9.131-6.078-14.673-6.078zm-.001 35.5c-3.939 0-7.644-1.534-10.43-4.32-5.751-5.751-5.75-15.109.001-20.86 2.786-2.786 6.49-4.32 10.43-4.32 3.94 0 7.645 1.534 10.431 4.32 5.751 5.751 5.751 15.108 0 20.86-2.787 2.786-6.492 4.32-10.432 4.32z"/><path fill-rule="evenodd" clip-rule="evenodd" d="M24.219 12.677c6.932 6.932 18.171 6.932 25.104 0 6.932-6.932 6.932-18.171 0-25.103"/><path fill="none" d="M86-61h-172v122h172z"/></symbol><symbol id="f" viewBox="-86 -61 172 122"><path d="M13.5-7.446c-2.485 0-4.5 2.015-4.5 4.5v6c0 2.485 2.015 4.5 4.5 4.5s4.5-2.015 4.5-4.5v-6c0-2.486-2.015-4.5-4.5-4.5zM13.569 20.804c-5.398 0-10.315-2.08-14.009-5.471-3.694 3.385-8.597 5.471-13.991 5.471-11.441 0-20.75-9.309-20.75-20.75s9.309-20.75 20.75-20.75c5.394 0 10.297 2.086 13.991 5.471 3.694-3.392 8.611-5.471 14.009-5.471 11.441 0 20.75 9.309 20.75 20.75s-9.308 20.75-20.75 20.75zm-28-35.501c-8.133 0-14.75 6.617-14.75 14.75s6.617 14.75 14.75 14.75 14.75-6.617 14.75-14.75-6.616-14.75-14.75-14.75zm28 0c-3.961 0-7.557 1.575-10.209 4.126 1.866 3.113 2.959 6.739 2.959 10.624s-1.093 7.512-2.959 10.625c2.652 2.551 6.248 4.126 10.209 4.126 8.133 0 14.75-6.617 14.75-14.75s-6.616-14.751-14.75-14.751zM-14.5-7.446c-2.485 0-4.5 2.015-4.5 4.5v6c0 2.485 2.015 4.5 4.5 4.5s4.5-2.015 4.5-4.5v-6c0-2.486-2.015-4.5-4.5-4.5z"/><path fill="none" d="M86-61h-172v122h172z"/></symbol><symbol id="g" viewBox="-86 -61 172 122"><path d="M-22.176-18.76c-12.273 0-23.556 5.629-30.957 15.444-.806 1.069-.806 2.543 0 3.612 7.401 9.815 18.684 15.444 30.957 15.444s23.556-5.629 30.957-15.444c.806-1.069.806-2.543 0-3.612-7.401-9.815-18.684-15.444-30.957-15.444zm-24.705 17.25c6.23-7.179 15.11-11.25 24.705-11.25s18.474 4.072 24.704 11.25c-6.23 7.179-15.11 11.25-24.705 11.25s-18.474-4.071-24.704-11.25z"/><path fill-rule="evenodd" clip-rule="evenodd" d="M-15.976 13.24c11.672 0 15.836-6.096 22.361-14.75-6.525-8.654-10.689-13.75-22.361-13.75 0 0-4.075 2.575-4.075 14.575l4.075 13.925z"/><path d="M22.824-18.76c-12.273 0-23.556 5.629-30.957 15.444-.806 1.069-.806 2.543 0 3.612 7.401 9.815 18.684 15.444 30.957 15.444s23.556-5.629 30.957-15.444c.806-1.069.806-2.543 0-3.612-7.401-9.815-18.684-15.444-30.957-15.444zm-24.705 17.25c6.23-7.179 15.11-11.25 24.705-11.25s18.474 4.072 24.704 11.25c-6.23 7.179-15.11 11.25-24.705 11.25s-18.474-4.071-24.704-11.25z"/><path fill-rule="evenodd" clip-rule="evenodd" d="M29.024 13.24c11.672 0 15.836-6.096 22.361-14.75-6.525-8.654-10.689-13.75-22.361-13.75 0 0-4.075 2.575-4.075 14.575l4.075 13.925z"/><path fill="none" d="M86-61h-172v122h172z"/></symbol><symbol id="h" viewBox="-86 -61 172 122"><path d="M11.563 28.517c-11.075 0-20.126-8.729-20.695-19.667 2.138-.278 4.157-.926 5.986-1.894-.015.27-.041.537-.041.81 0 8.133 6.617 14.75 14.75 14.75s14.75-6.617 14.75-14.75-6.617-14.75-14.75-14.75c-1.943 0-3.795.387-5.495 1.073.147-.921.245-1.859.245-2.823 0-1.186-.121-2.342-.343-3.462 1.782-.5 3.652-.788 5.593-.788 11.441 0 20.75 9.309 20.75 20.75 0 11.442-9.309 20.751-20.75 20.751z"/><path fill-rule="evenodd" clip-rule="evenodd" d="M16.414 8.155c0-2.594-2.104-4.698-4.698-4.698-2.595 0-4.699 2.104-4.699 4.698 0 2.595 2.104 4.699 4.699 4.699 2.594 0 4.698-2.104 4.698-4.699z"/><path d="M-11.438-29.484c-11.441 0-20.75 9.309-20.75 20.75 0 11.442 9.309 20.75 20.75 20.75s20.75-9.309 20.75-20.75c.001-11.441-9.308-20.75-20.75-20.75zm0 35.501c-8.133 0-14.75-6.617-14.75-14.75s6.617-14.75 14.75-14.75 14.75 6.617 14.75 14.75-6.617 14.75-14.75 14.75z"/><path fill-rule="evenodd" clip-rule="evenodd" d="M-6.921-8.614c0-2.594-2.104-4.698-4.699-4.698-2.594 0-4.698 2.104-4.698 4.698 0 2.595 2.104 4.699 4.698 4.699 2.595 0 4.699-2.104 4.699-4.699z"/><path fill="none" d="M86-61h-172v122h172z"/></symbol><symbol id="i" viewBox="-86 -61 172 122"><path d="M-7.747 14.554l-.011.329c-.023 1.641-1.359 3.117-3 3.117h-35.479c-1.641 0-2.975-1.395-2.997-3.035l-.014-.49c0-4.74 1.615-9.1 4.3-12.598-.03-.172-.052-.347-.052-.527v-17.667c0-1.657 1.343-3 3-3s3 1.343 3 3v12.927c.955-.563 1.955-1.053 3-1.459v-11.8c0-1.657 1.343-3 3-3s3 1.343 3 3v10.451c.498-.036.996-.076 1.503-.076.505 0 1.001.041 1.497.077v-10.453c0-1.657 1.343-3 3-3s3 1.343 3 3v11.809c.685.268 1.353.567 2 .905v-12.714c0-1.657 1.343-3 3-3s3 1.343 3 3v17.418c3.256 3.684 5.253 8.509 5.253 13.786zm-35.235-2.554h28.971c-1.309-7-7.307-11.958-14.486-11.958s-13.177 4.958-14.485 11.958z"/><path fill-rule="evenodd" clip-rule="evenodd" d="M-21.016 12.016c0-4.234-3.433-7.667-7.666-7.667-4.235 0-7.669 3.433-7.669 7.667"/><path d="M49.605 14.554l-.014.411c-.022 1.64-1.356 3.035-2.996 3.035h-35.479c-1.641 0-2.977-1.477-3-3.117l-.011-.408c0-5.091 1.851-9.746 4.905-13.352l-.01-.106v-17.667c0-1.657 1.343-3 3-3s3 1.343 3 3v12.9c.954-.516 1.963-.939 3-1.302v-11.598c0-1.657 1.343-3 3-3s3 1.343 3 3v10.457c.286-.012.566-.043.855-.043.387 0 .764.037 1.145.058v-10.472c0-1.657 1.343-3 3-3s3 1.343 3 3v11.713c1.04.385 2.045.838 3 1.378v-12.758c0-1.657 1.343-3 3-3s3 1.343 3 3v17.667l-.017.161c2.886 3.572 4.622 8.111 4.622 13.043zm-35.235-2.554h28.971c-1.309-7-7.307-11.958-14.486-11.958s-13.176 4.958-14.485 11.958z"/><path fill-rule="evenodd" clip-rule="evenodd" d="M21.374 12.016c0-4.234 3.433-7.667 7.666-7.667 4.235 0 7.669 3.433 7.669 7.667"/><path fill="none" d="M86-61h-172v122h172z"/></symbol><symbol id="j" viewBox="-86 -61 172 122"><path d="M-35-30.067c-11.58 0-21 9.421-21 21v17.666c0 11.58 9.42 21 21 21s21-9.421 21-21v-17.665c0-11.58-9.42-21.001-21-21.001zm0 53.667c-8.271 0-15-6.729-15-15v-17.666c0-8.271 6.729-15 15-15s15 6.729 15 15v17.665c0 8.272-6.729 15.001-15 15.001z"/><path fill-rule="evenodd" clip-rule="evenodd" d="M-52.971-9.066c0-9.941 8.06-18 18-18 9.941 0 18.001 8.059 18.001 18"/><path d="M-29.5-5.026c-2.485 0-4.5 2.015-4.5 4.5v9c0 2.485 2.015 4.5 4.5 4.5s4.5-2.015 4.5-4.5v-9c0-2.485-2.015-4.5-4.5-4.5zM39-30.067c-11.58 0-21 9.421-21 21v17.666c0 11.58 9.42 21 21 21s21-9.421 21-21v-17.665c0-11.58-9.42-21.001-21-21.001zm0 53.667c-8.271 0-15-6.729-15-15v-17.666c0-8.271 6.729-15 15-15s15 6.729 15 15v17.665c0 8.272-6.729 15.001-15 15.001z"/><path fill-rule="evenodd" clip-rule="evenodd" d="M56.696-9.066c0-9.941-8.06-18-18-18-9.941 0-18.001 8.059-18.001 18"/><path d="M33.5-5.026c-2.485 0-4.5 2.015-4.5 4.5v9c0 2.485 2.015 4.5 4.5 4.5s4.5-2.015 4.5-4.5v-9c0-2.485-2.015-4.5-4.5-4.5z"/><path fill="none" d="M86-61h-172v122h172z"/></symbol><symbol id="k" viewBox="-86 -61 172 122"><path d="M2.68-12.307c-8.09 8.091-8.09 21.255 0 29.345 3.919 3.92 9.13 6.078 14.672 6.078s10.753-2.158 14.673-6.078c8.091-8.09 8.091-21.255 0-29.345-3.919-3.92-9.129-6.078-14.672-6.078-5.541 0-10.752 2.158-14.673 6.078zm4.242 25.103c-5.75-5.751-5.75-15.108 0-20.859 2.787-2.787 6.492-4.321 10.432-4.321s7.644 1.534 10.43 4.32c5.751 5.751 5.751 15.109 0 20.86-2.787 2.786-6.491 4.32-10.431 4.32s-7.645-1.534-10.431-4.32z"/><path fill-rule="evenodd" clip-rule="evenodd" d="M23.239-14.363c-6.239-2.189-13.449-.81-18.438 4.177-4.986 4.989-6.367 12.2-4.176 18.438 6.236 2.189 13.449.811 18.436-4.177 4.988-4.988 6.367-12.2 4.178-18.438z"/><path d="M-18.813-18.385c-5.542 0-10.753 2.158-14.673 6.078-3.919 3.919-6.078 9.13-6.078 14.673 0 5.543 2.16 10.754 6.08 14.673 3.918 3.919 9.129 6.077 14.671 6.077s10.753-2.158 14.672-6.078c8.09-8.09 8.09-21.254 0-29.345-3.919-3.92-9.13-6.078-14.672-6.078zm0 35.501c-3.939 0-7.643-1.534-10.429-4.32-2.787-2.786-4.322-6.49-4.322-10.431 0-3.939 1.534-7.644 4.32-10.43 2.787-2.786 6.491-4.32 10.431-4.32s7.644 1.534 10.43 4.32c5.75 5.752 5.75 15.109 0 20.86-2.786 2.787-6.491 4.321-10.43 4.321z"/><path fill-rule="evenodd" clip-rule="evenodd" d="M-24.7-14.363c6.238-2.188 13.449-.81 18.438 4.178 4.988 4.988 6.367 12.199 4.178 18.437-6.238 2.189-13.449.811-18.438-4.177-4.988-4.988-6.367-12.2-4.178-18.438z"/><path fill="none" d="M86-61h-172v122h172z"/></symbol><symbol id="l" viewBox="-86 -61 172 122"><path d="M-20.168-20.429c-11.213 0-20.335 9.121-20.335 20.333s9.122 20.333 20.335 20.333c11.211 0 20.332-9.121 20.332-20.333s-9.122-20.333-20.332-20.333zm0 34.666c-7.904 0-14.335-6.43-14.335-14.333s6.431-14.333 14.335-14.333c7.903 0 14.332 6.43 14.332 14.333s-6.43 14.333-14.332 14.333z"/><path fill-rule="evenodd" clip-rule="evenodd" d="M-11.058-.096c0-5.031-4.079-9.11-9.11-9.11-5.034 0-9.113 4.079-9.113 9.11s4.079 9.11 9.113 9.11c5.031.001 9.11-4.078 9.11-9.11z"/><path d="M19.165-20.429c-11.213 0-20.335 9.121-20.335 20.333s9.122 20.333 20.335 20.333c11.211 0 20.333-9.121 20.333-20.333s-9.122-20.333-20.333-20.333zm0 34.666c-7.904 0-14.335-6.43-14.335-14.333s6.431-14.333 14.335-14.333c7.903 0 14.333 6.43 14.333 14.333s-6.43 14.333-14.333 14.333z"/><path fill-rule="evenodd" clip-rule="evenodd" d="M28.275-.096c0-5.031-4.078-9.11-9.109-9.11-5.035 0-9.113 4.079-9.113 9.11s4.078 9.11 9.113 9.11c5.031.001 9.109-4.078 9.109-9.11z"/><path fill="none" d="M86-61h-172v122h172z"/></symbol><symbol id="m" viewBox="-86 -61 172 122"><path d="M-26.104-21h-17.666c-11.58 0-21 9.42-21 21s9.42 21 21 21h17.666c11.579 0 20.999-9.42 20.999-21s-9.42-21-20.999-21zm-17.666 36c-8.271 0-15-6.729-15-15s6.729-15 15-15h17.666c8.27 0 14.999 6.729 14.999 15s-6.729 15-14.999 15h-17.666zM43.895-21h-17.666c-11.579 0-21 9.42-21 21s9.421 21 21 21h17.666c11.579 0 21-9.42 21-21s-9.421-21-21-21zm-17.666 36c-8.271 0-15-6.729-15-15s6.729-15 15-15h17.666c8.271 0 15 6.729 15 15s-6.729 15-15 15h-17.666z"/><path fill-rule="evenodd" clip-rule="evenodd" d="M-43.771 5.32c0-2.209-1.791-4-4-4s-4 1.791-4 4 1.791 4 4 4 4-1.791 4-4zM50.229 5.32c0-2.209-1.791-4-4-4s-4 1.791-4 4 1.791 4 4 4 4-1.791 4-4z"/><path fill="none" d="M86-61h-172v122h172z"/></symbol><symbol id="n" viewBox="-86 -61 172 122"><path d="M-1.467-6.782c-2.202-2.984-5.732-4.933-9.719-4.933-6.663 0-12.083 5.42-12.083 12.083s5.42 12.084 12.083 12.084c3.986 0 7.517-1.948 9.719-4.934.979 1.816 2.326 3.4 3.933 4.673-3.318 3.826-8.201 6.261-13.651 6.261-9.971 0-18.083-8.112-18.083-18.084 0-9.971 8.112-18.083 18.083-18.083 5.45 0 10.333 2.435 13.651 6.261-1.607 1.271-2.953 2.856-3.933 4.672z"/><path fill-rule="evenodd" clip-rule="evenodd" d="M-7.619.368c0-2.209-1.791-4-4-4s-4 1.791-4 4 1.791 4 4 4 4-1.791 4-4z"/><path d="M11.814-17.715c-9.971 0-18.083 8.112-18.083 18.083 0 9.972 8.112 18.084 18.083 18.084s18.083-8.112 18.083-18.084c0-9.971-8.112-18.083-18.083-18.083zm0 30.167c-6.663 0-12.083-5.421-12.083-12.084s5.42-12.083 12.083-12.083 12.083 5.42 12.083 12.083-5.419 12.084-12.083 12.084z"/><path fill-rule="evenodd" clip-rule="evenodd" d="M15.814.368c0-2.209-1.791-4-4-4s-4 1.791-4 4 1.791 4 4 4 4-1.791 4-4z"/><path fill="none" d="M86-61h-172v122h172z"/></symbol><symbol id="o" viewBox="-86 -61 172 122"><path d="M-37.11-32.965c-18.197 0-33.002 14.804-33.002 33 0 18.195 14.805 32.999 33.002 32.999 18.196 0 33-14.804 33-32.999 0-18.196-14.804-33-33-33zm0 59.999c-14.889 0-27.002-12.111-27.002-26.999s12.113-27 27.002-27c14.888 0 27 12.112 27 27s-12.113 26.999-27 26.999z"/><path fill-rule="evenodd" clip-rule="evenodd" d="M-19.36.034c0-9.804-7.947-17.75-17.75-17.75-9.805 0-17.75 7.946-17.75 17.75s7.945 17.751 17.75 17.751c9.802 0 17.75-7.947 17.75-17.751z"/><path d="M40.224-32.965c-18.197 0-33.002 14.804-33.002 33 0 18.195 14.805 32.999 33.002 32.999 18.196 0 33-14.804 33-32.999 0-18.196-14.804-33-33-33zm0 59.999c-14.889 0-27.002-12.111-27.002-26.999s12.113-27 27.002-27c14.888 0 27 12.112 27 27s-12.113 26.999-27 26.999z"/><path fill-rule="evenodd" clip-rule="evenodd" d="M57.972.034c0-9.804-7.947-17.75-17.75-17.75s-17.75 7.946-17.75 17.75 7.947 17.751 17.75 17.751 17.75-7.947 17.75-17.751z"/><path fill="none" d="M86-61h-172v122h172z"/></symbol><symbol id="p" viewBox="-86 -61 172 122"><path d="M45.469-20.568c-11.441 0-20.75 9.309-20.75 20.75 0 11.442 9.309 20.751 20.75 20.751s20.75-9.309 20.75-20.751c0-11.442-9.309-20.75-20.75-20.75zm0 35.501c-8.133 0-14.75-6.617-14.75-14.751 0-8.133 6.617-14.75 14.75-14.75s14.75 6.617 14.75 14.75-6.617 14.751-14.75 14.751zM37.5-14.064c-5.247 0-9.5 4.253-9.5 9.5v9c0 5.247 4.253 9.5 9.5 9.5s9.5-4.253 9.5-9.5v-9c0-5.248-4.253-9.5-9.5-9.5zM-47.698-20.568c-11.441 0-20.75 9.309-20.75 20.75 0 11.442 9.309 20.751 20.75 20.751s20.75-9.309 20.75-20.751c0-11.442-9.309-20.75-20.75-20.75zm0 35.501c-8.133 0-14.75-6.617-14.75-14.751 0-8.133 6.617-14.75 14.75-14.75s14.75 6.617 14.75 14.75-6.617 14.751-14.75 14.751zM-55.5-14.064c-5.247 0-9.5 4.253-9.5 9.5v9c0 5.247 4.253 9.5 9.5 9.5s9.5-4.253 9.5-9.5v-9c0-5.248-4.253-9.5-9.5-9.5z"/><path fill="none" d="M86-61h-172v122h172z"/></symbol><symbol id="q" viewBox="-86 -61 172 122"><path d="M-26.999-29.53c-11.581 0-21.001 9.421-21.001 21v17.666c0 11.579 9.419 21 20.999 21 11.581 0 21.001-9.421 21.001-21v-17.666c0-11.579-9.419-21-20.999-21zm-.002 53.666c-8.271 0-14.999-6.729-14.999-15v-17.666c0-8.271 6.729-15 15.001-15 8.271 0 14.999 6.729 14.999 15v17.666c0 8.271-6.729 15-15.001 15z"/><path fill-rule="evenodd" clip-rule="evenodd" d="M-27 10.481c3.771 0 7-3.057 7-6.829v-6.699c0-3.772-3.229-6.829-7-6.829s-7 3.057-7 6.829v6.699c0 3.773 3.229 6.829 7 6.829zM-30.684 39.803c0-1.381-1.119-2.5-2.5-2.5s-2.501 1.119-2.501 2.5 1.12 2.5 2.501 2.5 2.5-1.119 2.5-2.5zM-18.019 39.803c0-1.381-1.119-2.5-2.5-2.5s-2.5 1.119-2.5 2.5 1.119 2.5 2.5 2.5 2.5-1.119 2.5-2.5zM-30.684-36.864c0-1.381-1.119-2.5-2.5-2.5s-2.501 1.119-2.501 2.5 1.12 2.5 2.501 2.5 2.5-1.119 2.5-2.5zM-18.019-36.864c0-1.381-1.119-2.5-2.5-2.5s-2.5 1.119-2.5 2.5 1.119 2.5 2.5 2.5 2.5-1.119 2.5-2.5zM-24.352 50.47c0-1.381-1.119-2.5-2.5-2.5s-2.5 1.119-2.5 2.5 1.119 2.5 2.5 2.5 2.5-1.119 2.5-2.5z"/><path d="M25.001-29.53c-11.581 0-21.001 9.421-21.001 21v17.666c0 11.579 9.419 21 20.999 21 11.581 0 21.001-9.421 21.001-21v-17.666c0-11.579-9.419-21-20.999-21zm-.002 53.666c-8.271 0-14.999-6.729-14.999-15v-17.666c0-8.271 6.729-15 15.001-15 8.271 0 14.999 6.729 14.999 15v17.666c0 8.271-6.729 15-15.001 15z"/><path fill-rule="evenodd" clip-rule="evenodd" d="M25.5 10.481c3.771 0 6.5-3.057 6.5-6.829v-6.699c0-3.772-2.729-6.829-6.5-6.829s-6.5 3.057-6.5 6.829v6.699c0 3.773 2.729 6.829 6.5 6.829zM21.649 39.803c0-1.381-1.119-2.5-2.5-2.5s-2.5 1.119-2.5 2.5 1.119 2.5 2.5 2.5 2.5-1.119 2.5-2.5zM34.315 39.803c0-1.381-1.119-2.5-2.5-2.5s-2.5 1.119-2.5 2.5 1.119 2.5 2.5 2.5 2.5-1.119 2.5-2.5zM21.649-36.864c0-1.381-1.119-2.5-2.5-2.5s-2.5 1.119-2.5 2.5 1.119 2.5 2.5 2.5 2.5-1.119 2.5-2.5zM34.315-36.864c0-1.381-1.119-2.5-2.5-2.5s-2.5 1.119-2.5 2.5 1.119 2.5 2.5 2.5 2.5-1.119 2.5-2.5zM27.982 50.47c0-1.381-1.119-2.5-2.5-2.5s-2.5 1.119-2.5 2.5 1.119 2.5 2.5 2.5 2.5-1.119 2.5-2.5z"/><path fill="none" d="M86-61h-172v122h172z"/></symbol><symbol id="r" viewBox="-86 -61 172 122"><path d="M-30.854-18.876c-10.478 0-19.002 8.523-19.002 19s8.524 19 19.002 19c10.477 0 19-8.523 19-19s-8.523-19-19-19zm0 32.394c-7.386 0-13.396-6.009-13.396-13.394s6.01-13.394 13.396-13.394c7.385 0 13.394 6.009 13.394 13.394s-6.008 13.394-13.394 13.394z"/><path fill-rule="evenodd" clip-rule="evenodd" d="M-37-1v3.889c0 3.525 2.977 6.382 6.5 6.382s6.5-2.857 6.5-6.382v-3.889"/><path d="M-30.854-18.876c-8.662 0-16.222 5.862-18.383 14.256-.216.84-.032 1.79.499 2.476.531.685 1.349 1.144 2.216 1.144h31.334c.867 0 1.685-.459 2.216-1.145s.715-1.607.499-2.447c-2.163-8.392-9.721-14.284-18.381-14.284zm-11.499 11.876c2.364-4 6.691-6.545 11.499-6.545 4.806 0 9.131 2.545 11.496 6.545h-22.995zM31.646-21.542c-11.947 0-21.668 9.72-21.668 21.666s9.721 21.666 21.668 21.666c11.945 0 21.666-9.72 21.666-21.666s-9.72-21.666-21.666-21.666zm0 36.938c-8.422 0-15.274-6.852-15.274-15.272s6.853-15.272 15.274-15.272 15.272 6.852 15.272 15.272-6.851 15.272-15.272 15.272z"/><path fill-rule="evenodd" clip-rule="evenodd" d="M24-1v4.276c0 4.021 3.482 7.277 7.5 7.277s7.5-3.256 7.5-7.277v-4.276"/><path d="M31.646-21.542c-9.877 0-18.497 6.685-20.962 16.256-.247.958-.037 2.12.569 2.901.606.781 1.538 1.385 2.527 1.385h35.73c.987 0 1.921-.604 2.525-1.385.606-.781.816-1.871.569-2.829-2.464-9.57-11.083-16.328-20.958-16.328zm-13.112 13.542c2.696-4 7.629-7.463 13.112-7.463 5.482 0 10.413 3.463 13.11 7.463h-26.222zM31.507-31.766c-17.507 0-31.749 14.244-31.749 31.75 0 17.508 14.242 31.751 31.749 31.751s31.75-14.243 31.75-31.751c0-17.506-14.243-31.75-31.75-31.75zm0 57.501c-14.198 0-25.749-11.552-25.749-25.751 0-14.198 11.551-25.75 25.749-25.75s25.75 11.552 25.75 25.75c0 14.2-11.552 25.751-25.75 25.751zM67.335-3h-7.078c-1.657 0-3 1.343-3 3s1.343 3 3 3h7.078c1.657 0 3-1.343 3-3s-1.343-3-3-3zM62-45.67c-1.657 0-3 1.343-3 3v40c0 1.657 1.343 3 3 3s3-1.343 3-3v-40c0-1.657-1.343-3-3-3z"/><path fill="none" d="M86-61h-172v122h172z"/></symbol><symbol id="s" viewBox="-86 -61 172 122"><path d="M-28.999-17.15c-11.58 0-21.001 9.421-21.001 21v11.166c0 1.657 1.343 3 3 3s3-1.343 3-3v-11.166c0-8.271 6.729-15 15.001-15 8.271 0 14.999 6.729 14.999 15v10.854c0 1.657 1.343 3 3 3s3-1.343 3-3v-10.854c0-11.579-9.42-21-20.999-21zM30.001-17.15c-11.58 0-21.001 9.421-21.001 21v11.166c0 1.657 1.343 3 3 3s3-1.343 3-3v-11.166c0-8.271 6.729-15 15.001-15 8.271 0 14.999 6.728 14.999 15v10.854c0 1.657 1.343 3 3 3s3-1.343 3-3v-10.854c0-11.579-9.42-21-20.999-21z"/><path fill="none" d="M86-61h-172v122h172z"/></symbol><symbol id="t" viewBox="-86 -61 172 122"><path d="M26.999-24.901c-11.579 0-20.999 9.421-20.999 21.001v17.665c0 11.58 9.421 21.001 21.001 21.001 11.579 0 20.999-9.421 20.999-21.001v-17.665c0-11.58-9.421-21.001-21.001-21.001zm.002 53.667c-8.272 0-15.001-6.73-15.001-15.001v-17.665c0-8.271 6.728-15.001 14.999-15.001 8.272 0 15.001 6.729 15.001 15.001v17.665c0 8.271-6.728 15.001-14.999 15.001z"/><path fill-rule="evenodd" clip-rule="evenodd" d="M27.096 31.766c-9.942 0-18.096-8.06-18.096-18.001v-17.665c0-9.941 8.107-18.001 18.047-18.001"/><path d="M-24.001-24.901c-11.579 0-20.999 9.421-20.999 21.001v17.665c0 11.58 9.421 21.001 21.001 21.001 11.579 0 20.999-9.421 20.999-21.001v-17.665c0-11.58-9.421-21.001-21.001-21.001zm.002 53.667c-8.272 0-15.001-6.73-15.001-15.001v-17.665c0-8.271 6.728-15.001 14.999-15.001 8.272 0 15.001 6.729 15.001 15.001v17.665c0 8.271-6.728 15.001-14.999 15.001z"/><path fill-rule="evenodd" clip-rule="evenodd" d="M-24.071 31.766c-9.941 0-17.929-8.06-17.929-18.001v-17.665c0-9.941 8.023-18.001 17.963-18.001"/><path fill="none" d="M86-61h-172v122h172z"/></symbol><symbol id="u" viewBox="-86 -61 172 122"><path d="M-17.136-6.147c-2.293-5.174-7.47-8.797-13.484-8.797-8.133 0-14.75 6.617-14.75 14.75 0 8.134 6.617 14.751 14.75 14.751 6.014 0 11.19-3.623 13.484-8.798.785 2.203 1.988 4.2 3.521 5.903-3.754 5.368-9.972 8.895-17.005 8.895-11.441 0-20.75-9.309-20.75-20.751 0-11.441 9.309-20.75 20.75-20.75 7.034 0 13.251 3.526 17.005 8.895-1.532 1.703-2.736 3.699-3.521 5.902z"/><path fill-rule="evenodd" clip-rule="evenodd" d="M-30.5 10.238c3.771 0 6.5-3.057 6.5-6.829v-6.699c0-3.772-2.729-6.829-6.5-6.829s-6.5 3.056-6.5 6.829v6.699c0 3.773 2.729 6.829 6.5 6.829z"/><path d="M-.431-20.944c-11.441 0-20.75 9.309-20.75 20.75 0 11.442 9.309 20.751 20.75 20.751s20.75-9.309 20.75-20.751c0-11.442-9.308-20.75-20.75-20.75zm0 35.501c-8.133 0-14.75-6.617-14.75-14.751 0-8.133 6.617-14.75 14.75-14.75s14.75 6.617 14.75 14.75-6.616 14.751-14.75 14.751z"/><path fill-rule="evenodd" clip-rule="evenodd" d="M-.5 10.238c3.771 0 6.5-3.057 6.5-6.829v-6.699c0-3.772-2.729-6.829-6.5-6.829s-6.5 3.056-6.5 6.829v6.699c0 3.773 2.729 6.829 6.5 6.829z"/><path d="M29.759 20.557c-7.034 0-13.251-3.526-17.005-8.896 1.533-1.703 2.736-3.7 3.521-5.902 2.293 5.175 7.47 8.798 13.484 8.798 8.133 0 14.75-6.617 14.75-14.751 0-8.133-6.617-14.75-14.75-14.75-6.015 0-11.191 3.623-13.484 8.797-.785-2.201-1.989-4.198-3.521-5.901 3.754-5.369 9.972-8.896 17.006-8.896 11.441 0 20.75 9.309 20.75 20.75-.001 11.442-9.31 20.751-20.751 20.751z"/><path fill-rule="evenodd" clip-rule="evenodd" d="M29.999 10.238c3.771 0 7.001-3.057 7.001-6.829v-6.699c0-3.772-3.229-6.829-7.001-6.829-3.77 0-6.999 3.056-6.999 6.829v6.699c0 3.773 3.229 6.829 6.999 6.829z"/><path fill="none" d="M86-61h-172v122h172z"/></symbol><symbol id="v" viewBox="-86 -61 172 122"><path d="M-39.838-33.309c-18.197 0-33.002 14.804-33.002 33 0 18.195 14.805 32.999 33.002 32.999 18.196 0 33-14.804 33-32.999 0-18.196-14.804-33-33-33zm0 59.999c-14.889 0-27.002-12.111-27.002-26.999s12.113-27 27.002-27c14.888 0 27 12.112 27 27s-12.113 26.999-27 26.999zM-39.999-11.848c-5.42 0-10.001 4.41-10.001 9.829v6.699c0 1.657 1.343 3 3 3s3-1.343 3-3v-6.699c0-2.111 1.889-3.829 4.001-3.829 2.111 0 3.999 1.718 3.999 3.829v6.699c0 1.657 1.343 3 3 3s3-1.343 3-3v-6.699c0-5.419-4.58-9.829-9.999-9.829zM39.263-33.309c-18.197 0-33.002 14.804-33.002 33 0 18.195 14.805 32.999 33.002 32.999 18.196 0 33-14.804 33-32.999 0-18.196-14.804-33-33-33zm0 59.999c-14.889 0-27.002-12.111-27.002-26.999s12.113-27 27.002-27c14.888 0 27 12.112 27 27s-12.112 26.999-27 26.999zM39-11.848c-5.42 0-10 4.409-10 9.829v6.699c0 1.657 1.343 3 3 3s3-1.343 3-3v-6.699c0-2.111 1.889-3.829 4-3.829s4 1.718 4 3.829v6.699c0 1.657 1.343 3 3 3s3-1.343 3-3v-6.699c0-5.419-4.58-9.829-10-9.829z"/><path fill-rule="evenodd" clip-rule="evenodd" fill="#fff" d="M-15 0h22"/><path d="M10.484 0c0-1.657-1.344-3-3-3h-16.4c-1.656 0-3 1.343-3 3s1.344 3 3 3h16.4c1.657 0 3-1.343 3-3zM83.651 0c0-1.657-1.344-3-3-3h-8.9c-1.656 0-3 1.343-3 3s1.344 3 3 3h8.9c1.656 0 3-1.343 3-3zM-68.333 0c0-1.657-1.344-3-3-3h-8.9c-1.656 0-3 1.343-3 3s1.344 3 3 3h8.9c1.656 0 3-1.343 3-3z"/><path fill="none" d="M86-61h-172v122h172z"/></symbol><symbol id="w" viewBox="-86 -61 172 122"><path d="M-28.132-20.431c-11.212 0-20.334 9.121-20.334 20.333s9.122 20.333 20.334 20.333c11.211 0 20.333-9.121 20.333-20.333s-9.122-20.333-20.333-20.333zm0 34.666c-7.904 0-14.334-6.43-14.334-14.333s6.43-14.333 14.334-14.333c7.903 0 14.332 6.43 14.332 14.333s-6.429 14.333-14.332 14.333z"/><path fill-rule="evenodd" clip-rule="evenodd" d="M-19.021-.098c0-5.031-4.048-5.402-9.079-5.402-5.033 0-9.146.371-9.146 5.402s4.08 9.11 9.113 9.11c5.032.001 9.112-4.078 9.112-9.11z"/><path d="M-28.132-20.431c-6.283 0-12.117 2.85-16.007 7.817-.851 1.087-.85 2.613 0 3.699 3.89 4.968 9.724 7.816 16.006 7.816s12.116-2.849 16.005-7.816c.85-1.087.85-2.612 0-3.698-3.888-4.968-9.722-7.818-16.004-7.818zm-9.559 9.667c2.611-2.354 5.982-3.667 9.559-3.667s6.947 1.313 9.557 3.667c-2.61 2.354-5.981 3.666-9.557 3.666-3.576 0-6.948-1.312-9.559-3.666zM28.868-20.431c-11.212 0-20.334 9.121-20.334 20.333s9.122 20.333 20.334 20.333c11.211 0 20.332-9.121 20.332-20.333s-9.121-20.333-20.332-20.333zm0 34.666c-7.903 0-14.334-6.43-14.334-14.333s6.431-14.333 14.334-14.333 14.332 6.43 14.332 14.333-6.429 14.333-14.332 14.333z"/><path fill-rule="evenodd" clip-rule="evenodd" d="M37.979-.098c0-5.031-4.048-5.402-9.079-5.402-5.033 0-9.146.371-9.146 5.402s4.08 9.11 9.113 9.11c5.032.001 9.112-4.078 9.112-9.11z"/><path d="M28.868-20.431c-6.282 0-12.117 2.85-16.007 7.817-.851 1.087-.85 2.613 0 3.699 3.891 4.968 9.725 7.816 16.007 7.816s12.116-2.849 16.005-7.816c.85-1.087.85-2.612 0-3.698-3.889-4.968-9.723-7.818-16.005-7.818zm-9.558 9.667c2.61-2.354 5.982-3.667 9.559-3.667s6.947 1.313 9.558 3.667c-2.611 2.354-5.982 3.666-9.558 3.666-3.577 0-6.949-1.312-9.559-3.666z"/><path fill="none" d="M86-61h-172v122h172z"/></symbol><symbol id="x" viewBox="-86 -61 172 122"><path d="M42.935-21h-17.665c-11.581 0-21.001 9.421-21.001 21.001 0 11.579 9.42 20.999 21.001 20.999h17.665c11.58 0 21.001-9.421 21.001-21.001 0-11.579-9.421-20.999-21.001-20.999zm-17.665 36c-8.271 0-15.001-6.728-15.001-14.999 0-8.272 6.729-15.001 15.001-15.001h17.665c8.271 0 15.001 6.728 15.001 14.999 0 8.272-6.73 15.001-15.001 15.001h-17.665z"/><path fill-rule="evenodd" clip-rule="evenodd" d="M42.935-17.849c9.941 0 18.001 8.061 18.001 18 0 9.941-8.06 18.002-18.001 18.002"/><path d="M-24.065-21h-17.665c-11.58 0-21.001 9.421-21.001 21.001 0 11.579 9.42 20.999 21.001 20.999h17.665c11.58 0 21.001-9.421 21.001-21.001 0-11.579-9.421-20.999-21.001-20.999zm-17.665 36c-8.271 0-15.001-6.728-15.001-14.999 0-8.272 6.729-15.001 15.001-15.001h17.665c8.271 0 15.001 6.728 15.001 14.999 0 8.272-6.73 15.001-15.001 15.001h-17.665z"/><path fill-rule="evenodd" clip-rule="evenodd" d="M-24.065-17.849c9.941 0 18.001 8.061 18.001 18 0 9.941-8.06 18.002-18.001 18.002"/><path fill="none" d="M86-61h-172v122h172z"/></symbol><symbol id="y" viewBox="-86 -61 172 122"><path d="M-9.999 10.002c-8.271 0-15 6.729-15 15s6.729 15.001 15 15.001 15-6.729 15-15.001c0-8.271-6.73-15-15-15zm0 24.001c-4.963 0-9-4.038-9-9.001 0-4.962 4.037-9 9-9 4.962 0 9 4.038 9 9 0 4.963-4.038 9.001-9 9.001z"/><path fill-rule="evenodd" clip-rule="evenodd" d="M-5.999 25.002c0-2.209-1.791-4-4-4s-4 1.791-4 4c0 2.21 1.791 4.001 4 4.001s4-1.791 4-4.001z"/><path d="M14.667 10.002c-8.272 0-15.002 6.729-15.002 15s6.729 15.001 15.002 15.001c8.271 0 15-6.729 15-15.001 0-8.271-6.729-15-15-15zm0 24.001c-4.965 0-9.002-4.038-9.002-9.001 0-4.962 4.037-9 9.002-9 4.962 0 9 4.038 9 9 0 4.963-4.038 9.001-9 9.001z"/><path fill-rule="evenodd" clip-rule="evenodd" d="M18.667 25.002c0-2.209-1.791-4-4-4-2.211 0-4.002 1.791-4.002 4 0 2.21 1.791 4.001 4.002 4.001 2.209 0 4-1.791 4-4.001z"/><path fill="none" d="M86-61h-172v122h172z"/></symbol><symbol id="z" viewBox="-86 -61 172 122"><path d="M-48.998-33.363c-18.197 0-33.002 14.803-33.002 33 0 18.195 14.805 32.999 33.002 32.999 18.196 0 33-14.804 33-32.999 0-18.197-14.803-33-33-33zm0 59.999c-14.889 0-27.002-12.112-27.002-26.999s12.113-27 27.002-27c14.888 0 27 12.112 27 27s-12.112 26.999-27 26.999zM-49-21.364c-11.58 0-21 9.421-21 21.001 0 11.579 9.42 21 21 21 11.581 0 21.002-9.421 21.002-21 0-11.58-9.421-21.001-21.002-21.001zm0 36.001c-8.271 0-15-6.729-15-15s6.729-15.001 15-15.001c8.272 0 15.002 6.729 15.002 15.001s-6.73 15-15.002 15z"/><path fill-rule="evenodd" clip-rule="evenodd" d="M-45-.363c0-2.209-1.791-4-4-4s-4 1.791-4 4 1.791 4 4 4 4-1.791 4-4z"/><path d="M49.318-33.363c-18.197 0-33.002 14.804-33.002 33 0 18.195 14.805 32.999 33.002 32.999 18.196 0 33-14.804 33-32.999 0-18.197-14.803-33-33-33zm0 59.999c-14.889 0-27.002-12.111-27.002-26.999s12.113-27 27.002-27c14.888 0 27 12.112 27 27s-12.112 26.999-27 26.999zM49.318-21.364c-11.581 0-21.002 9.421-21.002 21.001 0 11.579 9.421 21 21.002 21 11.58 0 21-9.421 21-21 0-11.58-9.42-21.001-21-21.001zm0 36.001c-8.272 0-15.002-6.729-15.002-15s6.73-15.001 15.002-15.001c8.271 0 15 6.729 15 15.001s-6.729 15-15 15z"/><path fill-rule="evenodd" clip-rule="evenodd" d="M53.318-.363c0-2.209-1.791-4-4-4s-4 1.791-4 4 1.791 4 4 4 4-1.791 4-4z"/><path fill="none" d="M86-61h-172v122h172z"/></symbol><symbol id="A" viewBox="-86 -61 172 122"><path d="M-22.914-21h-11.5c-1.657 0-3 1.343-3 3s1.343 3 3 3h11.5c8.271 0 15 6.728 15 14.999 0 8.272-6.729 15.001-15 15.001h-11.813c-1.657 0-3 1.343-3 3s1.343 3 3 3h11.813c11.58 0 21-9.421 21-21.001 0-11.579-9.42-20.999-21-20.999z"/><path fill-rule="evenodd" clip-rule="evenodd" d="M-19.501 10.152c3.771 0 6.501-3.057 6.501-6.829v-6.699c0-3.772-2.729-6.829-6.501-6.829-3.77 0-6.499 3.057-6.499 6.829v6.699c0 3.773 2.729 6.829 6.499 6.829z"/><path clip-rule="evenodd" stroke="#000" stroke-width="6" stroke-linecap="round" stroke-linejoin="round" stroke-miterlimit="10" d="M.752-16.526" fill="none"/><path d="M21.086-21h-11.5c-1.657 0-3 1.343-3 3s1.343 3 3 3h11.5c8.271 0 15 6.728 15 14.999 0 8.272-6.729 15.001-15 15.001h-11.812c-1.657 0-3 1.343-3 3s1.343 3 3 3h11.813c11.58 0 21-9.421 21-21.001-.001-11.579-9.421-20.999-21.001-20.999z"/><path fill-rule="evenodd" clip-rule="evenodd" d="M24.499 10.152c3.771 0 6.501-3.057 6.501-6.829v-6.699c0-3.772-2.729-6.829-6.501-6.829-3.77 0-6.499 3.057-6.499 6.829v6.699c0 3.773 2.729 6.829 6.499 6.829z"/><path fill="none" d="M86-61h-172v122h172z"/></symbol><symbol id="B" viewBox="-86 -61 172 122"><path d="M53.438-14.75c-8.271 0-15 6.729-15 15s6.729 15 15 15 15-6.729 15-15-6.728-15-15-15zm0 24c-4.963 0-9-4.037-9-9s4.037-9 9-9 9 4.037 9 9-4.037 9-9 9z"/><path fill-rule="evenodd" clip-rule="evenodd" d="M57.438.25c0-2.209-1.791-4-4-4s-4 1.791-4 4 1.791 4 4 4 4-1.791 4-4zM-44.229.25c0-6.627-5.373-12-12-12s-11.999 5.373-11.999 12c0 6.628 5.372 12 11.999 12s12-5.372 12-12z"/><path fill="none" d="M86-61h-172v122h172z"/></symbol><symbol id="C" viewBox="-86 -61 172 122"><path d="M-21.628-25.167c-11.212 0-20.334 9.121-20.334 20.333s9.122 20.333 20.334 20.333c11.211 0 20.332-9.121 20.332-20.333s-9.121-20.333-20.332-20.333zm0 34.666c-7.903 0-14.334-6.43-14.334-14.333s6.431-14.333 14.334-14.333c7.902 0 14.332 6.43 14.332 14.333s-6.43 14.333-14.332 14.333z"/><path fill-rule="evenodd" clip-rule="evenodd" d="M-21-7c0-2.209-1.791-4-4-4s-4 1.791-4 4 1.791 4 4 4 4-1.791 4-4zM-4.21 22l.011.021c0 9.803-7.946 17.656-17.75 17.656-9.803 0-17.75-7.807-17.75-17.61l.011-.067h35.478z"/><path d="M29.372-25.167c-11.212 0-20.334 9.121-20.334 20.333s9.122 20.333 20.334 20.333c11.211 0 20.332-9.121 20.332-20.333s-9.121-20.333-20.332-20.333zm0 34.666c-7.903 0-14.334-6.43-14.334-14.333s6.431-14.333 14.334-14.333c7.902 0 14.332 6.43 14.332 14.333s-6.43 14.333-14.332 14.333z"/><path fill-rule="evenodd" clip-rule="evenodd" d="M37.118-4.835c0-2.209-1.791-4-4-4s-4 1.791-4 4 1.791 4 4 4 4-1.791 4-4zM46.79 22l.011.021c0 9.803-7.946 17.656-17.75 17.656-9.803 0-17.75-7.807-17.75-17.61l.011-.067h35.478z"/><path fill="none" d="M86-61h-172v122h172z"/></symbol><symbol id="D" viewBox="-86 -61 172 122"><path fill-rule="evenodd" clip-rule="evenodd" d="M17.35 39.193c-5.28-1.766-9.088-6.676-9.088-12.55 0-.927.095-1.643.277-2.643h14.964c0 6-2.344 11.211-6.153 15.193z"/><path d="M23.503 21h-14.964c-1.422 0-2.648.867-2.938 2.26-.226 1.086-.34 2.139-.34 3.254 0 7.02 4.476 13.2 11.137 15.427 1.101.369 2.316.052 3.119-.787 4.505-4.71 6.985-10.767 6.985-17.275.001-1.658-1.342-2.879-2.999-2.879zm-12.237 6h9.004c-.498 3-1.78 6.143-3.747 8.692-3.127-1.752-5.155-5.692-5.257-8.692zM23.503 21h-44.368c-1.657 0-3 1.213-3 2.869 0 13.887 11.298 25.118 25.185 25.118s25.184-11.199 25.184-25.085c-.001-1.657-1.344-2.902-3.001-2.902zm-41.134 6h37.899c-1.444 9-9.392 16.183-18.949 16.183-9.558 0-17.506-7.183-18.95-16.183z"/><path fill-rule="evenodd" clip-rule="evenodd" d="M17.216 7.324c-5.28-1.767-9.089-6.741-9.089-12.615 0-.928.096-1.834.277-2.709h14.965c0 5.946-2.344 11.341-6.153 15.324z"/><path d="M23.369-11h-14.965c-1.422 0-2.648.998-2.938 2.391-.226 1.086-.34 2.203-.34 3.318 0 7.019 4.476 13.231 11.137 15.46 1.102.369 2.317.068 3.12-.771 4.506-4.71 6.986-10.889 6.986-17.398 0-1.657-1.343-3-3-3zm-12.238 6h9.005c-.498 3.164-1.779 6.143-3.747 8.692-3.127-1.753-5.156-5.032-5.258-8.692zM23.369-11h-44.369c-1.657 0-3 1.343-3 3 0 13.886 11.298 25.183 25.185 25.183s25.184-11.297 25.184-25.183c0-1.657-1.343-3-3-3zm-41.135 6h37.9c-1.444 9.158-9.392 16.183-18.95 16.183s-17.505-7.025-18.95-16.183z"/><path fill="none" d="M86-61h-172v122h172z"/></symbol><symbol id="E" viewBox="-86 -61 172 122"><path fill-rule="evenodd" clip-rule="evenodd" fill="#FCFCFC" d="M-34.623 8.854l18.385-18.384"/><path d="M-16.238-12.53c-.768 0-1.536.293-2.121.879l-18.385 18.384c-1.172 1.171-1.172 3.071 0 4.242 1.171 1.172 3.071 1.172 4.242 0l18.385-18.385c1.172-1.171 1.172-3.071 0-4.242-.586-.585-1.354-.878-2.121-.878z"/><path fill-rule="evenodd" clip-rule="evenodd" fill="#FCFCFC" d="M-34.623-9.529l18.385 18.384"/><path d="M-34.623-12.529c-.768 0-1.536.293-2.121.879-1.172 1.171-1.172 3.071 0 4.242l18.385 18.385c1.171 1.172 3.071 1.172 4.242 0 1.172-1.171 1.172-3.071 0-4.242l-18.385-18.385c-.585-.586-1.353-.879-2.121-.879z"/><path fill-rule="evenodd" clip-rule="evenodd" fill="#FCFCFC" d="M17.377 8.854l18.385-18.384"/><path d="M35.762-12.53c-.768 0-1.536.293-2.121.879l-18.385 18.384c-1.172 1.171-1.172 3.071 0 4.242 1.171 1.172 3.071 1.172 4.242 0l18.385-18.384c1.172-1.171 1.172-3.071 0-4.242-.586-.586-1.354-.879-2.121-.879z"/><path fill-rule="evenodd" clip-rule="evenodd" fill="#FCFCFC" d="M17.377-9.529l18.385 18.384"/><path d="M17.377-12.529c-.768 0-1.536.293-2.121.879-1.172 1.171-1.172 3.071 0 4.242l18.385 18.385c1.171 1.172 3.071 1.172 4.242 0 1.172-1.171 1.172-3.071 0-4.242l-18.385-18.385c-.585-.586-1.353-.879-2.121-.879z"/><path fill="none" d="M86-61h-172v122h172z"/></symbol><symbol id="F" viewBox="-86 -61 172 122"><path fill-rule="evenodd" clip-rule="evenodd" fill="#FCFCFC" d="M31.539 2.267l18.385-18.385"/><path d="M49.924-19.118c-.768 0-1.536.293-2.121.879l-18.385 18.385c-1.172 1.171-1.172 3.071 0 4.242 1.171 1.172 3.071 1.172 4.242 0l18.385-18.385c1.172-1.171 1.172-3.071 0-4.242-.586-.586-1.354-.879-2.121-.879z"/><path fill-rule="evenodd" clip-rule="evenodd" fill="#FCFCFC" d="M31 6v-26"/><path d="M31-22.599c-1.657 0-3 1.343-3 3v19.537c0 1.657 1.343 3 3 3s3-1.343 3-3v-19.537c0-1.657-1.343-3-3-3z"/><path fill-rule="evenodd" clip-rule="evenodd" fill="#FCFCFC" d="M11.539-16.117l18.385 18.385"/><path d="M11.539-19.117c-.768 0-1.536.293-2.121.879-1.172 1.171-1.172 3.071 0 4.242l18.385 18.385c1.171 1.172 3.071 1.172 4.242 0 1.172-1.171 1.172-3.071 0-4.242l-18.385-18.385c-.585-.586-1.353-.879-2.121-.879zM30.827-10.932c-11.213 0-20.335 9.121-20.335 20.333s9.122 20.333 20.335 20.333c11.211 0 20.332-9.121 20.332-20.333s-9.121-20.333-20.332-20.333zm0 34.666c-7.904 0-14.335-6.43-14.335-14.333s6.431-14.333 14.335-14.333c7.903 0 14.332 6.43 14.332 14.333s-6.429 14.333-14.332 14.333z"/><path fill-rule="evenodd" clip-rule="evenodd" d="M14.06 5c1.925-7 8.689-13.004 16.768-13.004 8.073 0 14.838 6.004 16.764 13.004h-33.532z"/><path d="M30.827-10.932c-9.27 0-17.359 6.273-19.673 15.256-.231.898-.034 1.816.534 2.55s1.444 1.126 2.372 1.126h33.532c.928 0 1.803-.393 2.371-1.126.568-.733.766-1.671.534-2.569-2.314-8.981-10.403-15.237-19.67-15.237zm-12.306 12.932c2.53-4 7.16-7.004 12.306-7.004 5.144 0 9.772 3.004 12.302 7.004h-24.608z"/><path fill-rule="evenodd" clip-rule="evenodd" fill="#FCFCFC" d="M-27.961 2.267l18.385-18.385"/><path d="M-9.576-19.118c-.768 0-1.536.293-2.121.879l-18.385 18.385c-1.172 1.171-1.172 3.071 0 4.242 1.171 1.172 3.071 1.172 4.242 0l18.385-18.385c1.172-1.171 1.172-3.071 0-4.242-.586-.586-1.354-.879-2.121-.879z"/><path fill-rule="evenodd" clip-rule="evenodd" fill="#FCFCFC" d="M-29 6v-26"/><path d="M-29-22.599c-1.657 0-3 1.343-3 3v19.537c0 1.657 1.343 3 3 3s3-1.343 3-3v-19.537c0-1.657-1.343-3-3-3z"/><path fill-rule="evenodd" clip-rule="evenodd" fill="#FCFCFC" d="M-47.961-16.117l18.385 18.385"/><path d="M-47.961-19.117c-.768 0-1.536.293-2.121.879-1.172 1.171-1.172 3.071 0 4.242l18.385 18.385c1.171 1.172 3.071 1.172 4.242 0 1.172-1.171 1.172-3.071 0-4.242l-18.385-18.385c-.585-.586-1.353-.879-2.121-.879zM-28.673-10.932c-11.213 0-20.335 9.121-20.335 20.333s9.122 20.333 20.335 20.333c11.211 0 20.332-9.121 20.332-20.333s-9.121-20.333-20.332-20.333zm0 34.666c-7.904 0-14.335-6.43-14.335-14.333s6.431-14.333 14.335-14.333c7.903 0 14.332 6.43 14.332 14.333s-6.429 14.333-14.332 14.333z"/><path fill-rule="evenodd" clip-rule="evenodd" d="M-45.44 5c1.925-7 8.689-13.004 16.768-13.004 8.073 0 14.838 6.004 16.764 13.004h-33.532z"/><path d="M-28.673-10.932c-9.27 0-17.359 6.273-19.673 15.256-.231.898-.034 1.816.534 2.55s1.444 1.126 2.372 1.126h33.532c.928 0 1.803-.393 2.371-1.126.568-.733.766-1.671.534-2.569-2.314-8.981-10.403-15.237-19.67-15.237zm-12.306 12.932c2.53-4 7.16-7.004 12.306-7.004 5.144 0 9.772 3.004 12.302 7.004h-24.608z"/><path fill="none" d="M86-61h-172v122h172z"/></symbol><symbol id="G" viewBox="-86 -61 172 122"><path fill-rule="evenodd" clip-rule="evenodd" d="M-15 0c0-2.209-1.791-4-4-4s-4 1.791-4 4 1.791 4 4 4 4-1.791 4-4zM24 0c0-2.209-1.791-4-4-4s-4 1.791-4 4 1.791 4 4 4 4-1.791 4-4z"/><path fill="none" d="M86-61h-172v122h172z"/></symbol><symbol id="H" viewBox="-86 -61 172 122"><path d="M19 9.369c-1.657 0-3 1.343-3 3v10.735c0 1.657 1.343 3 3 3s3-1.343 3-3v-10.735c0-1.657-1.343-3-3-3zM30 12.953c-1.657 0-3 1.343-3 3v7.151c0 1.657 1.343 3 3 3s3-1.343 3-3v-7.151c0-1.657-1.343-3-3-3zM40 8.772c-1.657 0-3 1.343-3 3v11.332c0 1.657 1.343 3 3 3s3-1.343 3-3v-11.332c0-1.657-1.343-3-3-3zM29.75-23.117c-11.212 0-20.333 9.122-20.333 20.335 0 11.211 9.121 20.332 20.333 20.332s20.333-9.121 20.333-20.332c0-11.213-9.121-20.335-20.333-20.335zm0 34.667c-7.903 0-14.333-6.43-14.333-14.332 0-7.904 6.43-14.335 14.333-14.335s14.333 6.431 14.333 14.335c0 7.902-6.43 14.332-14.333 14.332z"/><path fill-rule="evenodd" clip-rule="evenodd" d="M29.75-20.117c4.538 0 8.656 1.758 11.746 4.612-.319 6.219-5.449 11.167-11.747 11.167s-11.426-4.947-11.745-11.166c3.09-2.855 7.208-4.613 11.746-4.613z"/><path d="M-39 9.369c-1.657 0-3 1.343-3 3v10.735c0 1.657 1.343 3 3 3s3-1.343 3-3v-10.735c0-1.657-1.343-3-3-3zM-28 12.953c-1.657 0-3 1.343-3 3v7.151c0 1.657 1.343 3 3 3s3-1.343 3-3v-7.151c0-1.657-1.343-3-3-3zM-18 8.772c-1.657 0-3 1.343-3 3v11.332c0 1.657 1.343 3 3 3s3-1.343 3-3v-11.332c0-1.657-1.343-3-3-3zM-28.393-23.117c-11.212 0-20.333 9.122-20.333 20.335 0 11.211 9.121 20.332 20.333 20.332s20.333-9.121 20.333-20.332c0-11.213-9.121-20.335-20.333-20.335zm0 34.667c-7.903 0-14.333-6.43-14.333-14.332 0-7.904 6.43-14.335 14.333-14.335s14.333 6.43 14.333 14.335c0 7.902-6.429 14.332-14.333 14.332z"/><path fill-rule="evenodd" clip-rule="evenodd" d="M-28.393-20.117c4.538 0 8.656 1.758 11.746 4.612-.319 6.219-5.449 11.167-11.747 11.167s-11.426-4.947-11.745-11.166c3.09-2.855 7.208-4.613 11.746-4.613z"/><path fill="none" d="M86-61h-172v122h172z"/></symbol><symbol id="I" viewBox="-86 -61 172 122"><path d="M-35.976-20.572c-11.212 0-20.334 9.121-20.334 20.333s9.122 20.333 20.334 20.333c11.211 0 20.332-9.121 20.332-20.333s-9.121-20.333-20.332-20.333zm0 34.666c-7.903 0-14.334-6.43-14.334-14.333s6.431-14.333 14.334-14.333c7.902 0 14.332 6.43 14.332 14.333s-6.429 14.333-14.332 14.333zM-35.978-9.74c-5.238 0-9.5 4.262-9.5 9.5s4.262 9.5 9.5 9.5 9.5-4.262 9.5-9.5-4.261-9.5-9.5-9.5zm0 13c-1.93 0-3.5-1.57-3.5-3.5s1.57-3.5 3.5-3.5 3.5 1.57 3.5 3.5-1.57 3.5-3.5 3.5zM41.024-20.572c-11.212 0-20.334 9.121-20.334 20.333s9.122 20.333 20.334 20.333c11.211 0 20.332-9.121 20.332-20.333s-9.121-20.333-20.332-20.333zm0 34.666c-7.903 0-14.334-6.43-14.334-14.333s6.431-14.333 14.334-14.333c7.902 0 14.332 6.43 14.332 14.333s-6.429 14.333-14.332 14.333zM41.022-9.74c-5.238 0-9.5 4.262-9.5 9.5s4.262 9.5 9.5 9.5 9.5-4.262 9.5-9.5-4.261-9.5-9.5-9.5zm0 13c-1.93 0-3.5-1.57-3.5-3.5s1.57-3.5 3.5-3.5 3.5 1.57 3.5 3.5-1.57 3.5-3.5 3.5z"/><path fill="none" d="M86-61h-172v122h172z"/></symbol><symbol id="J" viewBox="-86 -61 172 122"><path d="M35-21.244c-11.58 0-21 9.421-21 21v32.666c0 11.579 9.42 21 21 21s21-9.421 21-21v-32.666c0-11.579-9.42-21-21-21zm0 68.666c-8.271 0-15-6.729-15-15v-32.666c0-8.271 6.729-15 15-15s15 6.729 15 15v32.666c0 8.271-6.729 15-15 15z"/><path fill-rule="evenodd" clip-rule="evenodd" d="M34.5-9.325c5.155 0 9.5 4.179 9.5 9.334v33.161c0 5.155-4.345 9.334-9.5 9.334s-9.5-4.179-9.5-9.334v-33.161c0-5.155 4.345-9.334 9.5-9.334z"/><path d="M-34-21.244c-11.58 0-21 9.421-21 21v32.666c0 11.579 9.42 21 21 21s21-9.421 21-21v-32.666c0-11.579-9.42-21-21-21zm0 68.666c-8.271 0-15-6.729-15-15v-32.666c0-8.271 6.729-15 15-15s15 6.729 15 15v32.666c0 8.271-6.729 15-15 15z"/><path fill-rule="evenodd" clip-rule="evenodd" d="M-34.5-9.325c5.154 0 9.5 4.179 9.5 9.334v33.161c0 5.155-4.345 9.334-9.5 9.334s-9.5-4.179-9.5-9.334v-33.161c0-5.155 4.345-9.334 9.5-9.334z"/><path fill="none" d="M86-61h-172v122h172z"/></symbol><symbol id="K" viewBox="-86 -61 172 122"><path d="M32.766-18.103c-12.272 0-23.556 5.629-30.956 15.444-.806 1.068-.806 2.543 0 3.612 7.401 9.814 18.685 15.443 30.956 15.443 12.273 0 23.557-5.629 30.958-15.443.806-1.069.806-2.544 0-3.612-7.401-9.815-18.684-15.444-30.958-15.444zm-24.704 17.25c6.229-7.179 15.109-11.25 24.704-11.25 9.596 0 18.476 4.071 24.706 11.25-6.23 7.179-15.11 11.25-24.706 11.25-9.595 0-18.474-4.071-24.704-11.25z"/><path fill-rule="evenodd" clip-rule="evenodd" d="M36.767-.403c0-2.209-1.791-4-4-4s-4 1.791-4 4 1.791 4 4 4 4-1.791 4-4z"/><path d="M-34.734-18.103c-12.272 0-23.556 5.629-30.956 15.444-.806 1.068-.806 2.543 0 3.612 7.401 9.814 18.685 15.443 30.956 15.443 12.273 0 23.557-5.629 30.958-15.443.806-1.069.806-2.544 0-3.612-7.401-9.815-18.684-15.444-30.958-15.444zm-24.704 17.25c6.229-7.179 15.109-11.25 24.704-11.25 9.596 0 18.476 4.071 24.706 11.25-6.23 7.179-15.11 11.25-24.706 11.25-9.595 0-18.474-4.071-24.704-11.25z"/><path fill-rule="evenodd" clip-rule="evenodd" d="M-30.733-.403c0-2.209-1.791-4-4-4s-4 1.791-4 4 1.791 4 4 4 4-1.791 4-4z"/><path fill="none" d="M86-61h-172v122h172z"/></symbol><symbol id="L" viewBox="-86 -61 172 122"><path d="M.063-17.353c-12.273 0-23.557 5.629-30.957 15.444-.806 1.068-.806 2.543 0 3.612 7.401 9.814 18.684 15.443 30.957 15.443s23.557-5.629 30.957-15.444c.806-1.068.806-2.543 0-3.611-7.4-9.815-18.683-15.444-30.957-15.444zm-24.705 17.25c6.229-7.179 15.108-11.25 24.704-11.25s18.476 4.071 24.705 11.25c-6.229 7.179-15.109 11.25-24.705 11.25-9.594 0-18.474-4.071-24.704-11.25z"/><path fill-rule="evenodd" clip-rule="evenodd" d="M8.258.347c0-7.18-5.82-13-13-13s-13 5.82-13 13 5.82 13 13 13 13-5.821 13-13z"/><path fill="none" d="M86-61h-172v122h172z"/></symbol><symbol id="M" viewBox="-86 -61 172 122"><path fill-rule="evenodd" clip-rule="evenodd" d="M49.719-.247c0-2.209-1.791-4-4-4s-4 1.791-4 4 1.791 4 4 4 4-1.791 4-4z"/><path d="M68 12.533v11.449c0 1.657-1.342 3-3 3-1.656 0-3-1.343-3-3v-10.982h-13v10.982c0 1.657-1.342 3-3 3-1.656 0-3-1.343-3-3v-10.982h-14v10.982c0 1.657-1.342 3-3 3-1.656 0-3-1.343-3-3v-11.562c-5.546-1.679-9.598-6.832-9.598-12.919 0-7.445 6.057-13.501 13.5-13.501h37.633c7.445 0 13.5 6.055 13.5 13.499 0 6.246-4.266 11.498-10.035 13.034zm-3.465-20.533h-37.633c-4.135 0-7.5 3.364-7.5 7.501 0 4.136 3.365 7.499 7.5 7.499h37.633c4.137 0 7.5-3.364 7.5-7.501 0-4.136-3.363-7.499-7.5-7.499z"/><path fill-rule="evenodd" clip-rule="evenodd" d="M-42.422-.247c0-2.209-1.791-4-4-4s-4 1.791-4 4 1.791 4 4 4 4-1.791 4-4z"/><path d="M-24 12.496v11.486c0 1.657-1.342 3-3 3-1.656 0-3-1.343-3-3v-10.982h-13v10.982c0 1.657-1.342 3-3 3-1.656 0-3-1.343-3-3v-10.982h-14v10.982c0 1.657-1.342 3-3 3-1.656 0-3-1.343-3-3v-11.526c-5.617-1.634-9.738-6.817-9.738-12.955 0-7.445 6.057-13.501 13.5-13.501h37.633c7.445 0 13.5 6.055 13.5 13.499 0 6.195-4.198 11.415-9.895 12.997zm-3.605-20.496h-37.633c-4.135 0-7.5 3.364-7.5 7.501 0 4.136 3.365 7.499 7.5 7.499h37.633c4.137 0 7.5-3.364 7.5-7.501 0-4.136-3.364-7.499-7.5-7.499z"/><path fill="none" d="M86-61h-172v122h172z"/></symbol><symbol id="N" viewBox="-86 -61 172 122"><path d="M-8-15.056c-1.657 0-3 1.343-3 3v16.652c0 7.706-6.294 13.975-13.997 13.975-7.707-.001-14.003-6.269-14.003-13.975v-16.651c0-1.657-1.343-3-3-3s-3 1.343-3 3v16.651c0 11.014 8.988 19.975 20.003 19.975 11.012-.001 19.997-8.962 19.997-19.975v-16.651c0-1.658-1.343-3.001-3-3.001zM45-15.056c-1.657 0-3 1.343-3 3v16.652c0 7.706-6.294 13.975-13.997 13.975-7.707-.001-14.003-6.269-14.003-13.975v-16.651c0-1.657-1.343-3-3-3s-3 1.343-3 3v16.651c0 11.013 8.988 19.974 20.003 19.974 11.012 0 19.997-8.961 19.997-19.974v-16.651c0-1.658-1.343-3.001-3-3.001z"/><path fill="none" d="M86-61h-172v122h172z"/></symbol><symbol id="O" viewBox="-86 -61 172 122"><path d="M-35.153-25h-.002c-11.21 0-20.33 9.099-20.33 20.31s9.121 20.32 20.332 20.321c11.213 0 20.334-9.104 20.334-20.315s-9.122-20.316-20.334-20.316zm0 34.619c-7.902-.001-14.332-6.431-14.332-14.333s6.429-14.332 14.331-14.333c7.904 0 14.335 6.43 14.335 14.333s-6.431 14.333-14.334 14.333z"/><path fill-rule="evenodd" clip-rule="evenodd" d="M-17.819-4.714c0 9.573-7.758 17.333-17.334 17.333-9.572-.001-17.332-7.761-17.332-17.333"/><path d="M-22.433-19.46l-.154.004c-7.857.403-14.012 6.879-14.012 14.741 0 7.863 6.156 14.34 14.014 14.743.89.045 1.754-.307 2.358-.961 3.487-3.775 5.407-8.67 5.407-13.781 0-5.112-1.921-10.007-5.41-13.782-.569-.616-1.368-.964-2.203-.964zm-1.247 23.312c-3.976-.854-6.918-4.378-6.918-8.566 0-4.188 2.942-7.711 6.917-8.564 1.855 2.473 2.862 5.463 2.862 8.565 0 3.101-1.007 6.092-2.861 8.565z"/><path fill-rule="evenodd" clip-rule="evenodd" fill="#FCFCFC" d="M-34-2v26"/><path d="M-34-4.658c-1.657 0-3 1.343-3 3v26c0 1.657 1.343 3 3 3s3-1.343 3-3v-26c0-1.657-1.343-3-3-3z"/><path fill-rule="evenodd" clip-rule="evenodd" fill="#FCFCFC" d="M-14.33 19.194l-18.385-18.384"/><path d="M-32.715-2.19c-.768 0-1.536.293-2.121.879-1.172 1.171-1.172 3.071 0 4.242l18.385 18.385c1.171 1.172 3.071 1.172 4.242 0 1.172-1.171 1.172-3.071 0-4.242l-18.385-18.386c-.585-.585-1.353-.878-2.121-.878z"/><path fill-rule="evenodd" clip-rule="evenodd" fill="#FCFCFC" d="M-54.048 17.861l18.385-18.384"/><path d="M-35.663-3.523c-.768 0-1.536.293-2.121.879l-18.385 18.384c-1.172 1.171-1.172 3.071 0 4.242 1.171 1.172 3.071 1.172 4.242 0l18.385-18.385c1.172-1.171 1.172-3.071 0-4.242-.585-.585-1.354-.878-2.121-.878z"/><path fill-rule="evenodd" clip-rule="evenodd" fill="#FCFCFC" d="M-9-1h-26"/><path d="M-8.765-4h-26c-1.657 0-3 1.343-3 3s1.343 3 3 3h26c1.657 0 3-1.343 3-3s-1.343-3-3-3z"/><path fill-rule="evenodd" clip-rule="evenodd" fill="#FCFCFC" d="M-37-1h-26"/><path d="M-36.765-4h-26c-1.657 0-3 1.343-3 3s1.343 3 3 3h26c1.657 0 3-1.343 3-3s-1.343-3-3-3zM34.515-25h-.002c-11.21 0-20.33 9.099-20.33 20.31s9.121 20.32 20.332 20.321c11.213 0 20.335-9.104 20.335-20.315s-9.122-20.316-20.335-20.316zm0 34.619c-7.903-.001-14.332-6.431-14.332-14.333s6.429-14.332 14.331-14.333c7.905 0 14.336 6.43 14.336 14.333s-6.431 14.333-14.335 14.333z"/><path fill-rule="evenodd" clip-rule="evenodd" d="M51.85-4.714c0 9.573-7.759 17.333-17.335 17.333-9.571-.001-17.332-7.761-17.332-17.333"/><path d="M47.236-19.46l-.154.004c-7.857.403-14.012 6.879-14.012 14.741 0 7.863 6.155 14.34 14.013 14.743.898.041 1.754-.307 2.357-.96 3.488-3.775 5.409-8.67 5.409-13.782s-1.921-10.007-5.41-13.782c-.569-.616-1.368-.964-2.203-.964zm-1.248 23.312c-3.976-.854-6.918-4.378-6.918-8.566 0-4.188 2.942-7.711 6.917-8.564 1.855 2.473 2.862 5.463 2.862 8.565.001 3.101-1.007 6.092-2.861 8.565z"/><path fill-rule="evenodd" clip-rule="evenodd" fill="#FCFCFC" d="M35-2v26"/><path d="M35-4.658c-1.657 0-3 1.343-3 3v26c0 1.657 1.343 3 3 3s3-1.343 3-3v-26c0-1.657-1.343-3-3-3z"/><path fill-rule="evenodd" clip-rule="evenodd" fill="#FCFCFC" d="M55.339 19.194l-18.385-18.384"/><path d="M36.954-2.19c-.768 0-1.536.293-2.121.879-1.172 1.171-1.172 3.071 0 4.242l18.385 18.385c1.171 1.172 3.071 1.172 4.242 0 1.172-1.171 1.172-3.071 0-4.242l-18.385-18.386c-.585-.585-1.353-.878-2.121-.878z"/><path fill-rule="evenodd" clip-rule="evenodd" fill="#FCFCFC" d="M15.62 17.861l18.385-18.384"/><path d="M34.005-3.523c-.768 0-1.536.293-2.121.879l-18.385 18.384c-1.172 1.171-1.172 3.071 0 4.242 1.171 1.172 3.071 1.172 4.242 0l18.385-18.384c1.172-1.171 1.172-3.071 0-4.242-.585-.586-1.354-.879-2.121-.879z"/><path fill-rule="evenodd" clip-rule="evenodd" fill="#FCFCFC" d="M61-1h-26"/><path d="M60.903-4h-26c-1.657 0-3 1.343-3 3s1.343 3 3 3h26c1.657 0 3-1.343 3-3s-1.343-3-3-3z"/><path fill-rule="evenodd" clip-rule="evenodd" fill="#FCFCFC" d="M33-1h-26"/><path d="M32.903-4h-26c-1.657 0-3 1.343-3 3s1.343 3 3 3h26c1.657 0 3-1.343 3-3s-1.343-3-3-3z"/><path fill-rule="evenodd" clip-rule="evenodd" d="M-45.997-40.001c0-3.531-2.863-6.394-6.395-6.394s-6.395 2.862-6.395 6.394l6.395 15.214s6.395-11.683 6.395-15.214z"/><path fill="none" d="M86-61h-172v122h172z"/></symbol><symbol id="P" viewBox="-86 -61 172 122"><path fill-rule="evenodd" clip-rule="evenodd" d="M17.782.197c0-6.627-5.373-12-12-12-6.628 0-12 5.373-12 12 0 6.628 5.372 12 12 12 6.627 0 12-5.372 12-12z"/><path d="M8.502-21h-17.666c-11.58 0-21 9.42-21 21s9.42 21 21 21h17.666c11.58 0 21-9.42 21-21s-9.42-21-21-21zm-17.666 36c-8.271 0-15-6.729-15-15s6.729-15 15-15h17.666c8.271 0 15 6.729 15 15s-6.729 15-15 15h-17.666z"/><path fill-rule="evenodd" clip-rule="evenodd" fill="#FCFCFC" d="M-13 30h26"/><path d="M12.669 27h-26c-1.657 0-3 1.343-3 3s1.343 3 3 3h26c1.657 0 3-1.343 3-3s-1.343-3-3-3z"/><path fill="none" d="M86-61h-172v122h172z"/></symbol><symbol id="Q" viewBox="-86 -61 172 122"><path fill-rule="evenodd" clip-rule="evenodd" d="M-37.777 25.452c-14.224 0-25.75-11.529-25.75-25.751 0-14.223 11.526-25.75 25.75-25.75 14.221 0 25.75 11.527 25.75 25.75 0 14.222-11.53 25.751-25.75 25.751zm10.993-33.914c1.172-1.235 1.172-3.239 0-4.475-.585-.618-1.354-.927-2.121-.927s-1.536.309-2.121.927l-7.072 7.458-7.071-7.457c-.585-.618-1.354-.927-2.121-.927s-1.536.309-2.121.927c-1.172 1.235-1.172 3.239 0 4.475l7.07 7.457-7.07 7.457c-1.172 1.235-1.172 3.239 0 4.475 1.171 1.235 3.071 1.235 4.242 0l7.071-7.457 7.072 7.458c1.171 1.235 3.071 1.235 4.242 0 1.172-1.235 1.172-3.239 0-4.475l-7.071-7.458 7.071-7.458zM38.223 25.452c-14.225 0-25.75-11.529-25.75-25.751 0-14.223 11.525-25.75 25.75-25.75 14.221 0 25.75 11.527 25.75 25.75 0 14.222-11.53 25.751-25.75 25.751zm10.993-33.914c1.172-1.235 1.172-3.239 0-4.475-.585-.618-1.354-.927-2.121-.927s-1.536.309-2.121.927l-7.071 7.458-7.071-7.457c-.585-.618-1.354-.927-2.121-.927s-1.536.309-2.121.927c-1.172 1.235-1.172 3.239 0 4.475l7.07 7.457-7.07 7.457c-1.172 1.235-1.172 3.239 0 4.475 1.171 1.235 3.071 1.235 4.242 0l7.071-7.457 7.071 7.458c1.171 1.235 3.071 1.235 4.242 0 1.172-1.235 1.172-3.239 0-4.475l-7.071-7.458 7.071-7.458z"/><path fill="none" d="M86-61h-172v122h172z"/></symbol><symbol id="R" viewBox="-86 -61 172 122"><path fill-rule="evenodd" clip-rule="evenodd" d="M20-2v22.506999999999998c0 3.772 2.729 6.829 6.5 6.829s6.5-3.057 6.5-6.829v-22.507"/><path fill-rule="evenodd" clip-rule="evenodd" fill="#FCFCFC" d="M39-3h-26"/><path d="M12.982 0h26c1.657 0 3-1.343 3-3s-1.343-3-3-3h-26c-1.657 0-3 1.343-3 3s1.343 3 3 3z"/><path fill-rule="evenodd" clip-rule="evenodd" d="M-31-2v22.506999999999998c0 3.772 3.229 6.829 7 6.829s7-3.057 7-6.829v-22.507"/><path fill-rule="evenodd" clip-rule="evenodd" fill="#FCFCFC" d="M-12-3h-26"/><path d="M-37.685 0h26c1.657 0 3-1.343 3-3s-1.343-3-3-3h-26c-1.657 0-3 1.343-3 3s1.343 3 3 3z"/><path fill="none" d="M86-61h-172v122h172z"/></symbol><symbol id="S" viewBox="-86 -61 172 122"><path fill-rule="evenodd" clip-rule="evenodd" d="M16.938 1.206c0-2.891-2.343-5.234-5.234-5.234s-5.234 2.343-5.234 5.234c0 2.892 2.343 5.234 5.234 5.234s5.234-2.342 5.234-5.234zM-34.895 1.206c0-2.891-2.343-5.234-5.234-5.234s-5.234 2.344-5.234 5.234c0 2.892 2.343 5.234 5.234 5.234s5.234-2.342 5.234-5.234z"/><path d="M43.94 16h-13.94v6.982c0 1.657-1.343 3-3 3s-3-1.343-3-3v-6.982h-5v6.982c0 1.657-1.343 3-3 3s-3-1.343-3-3v-6.982h-1.898c-.716 0-1.414-.072-2.102-.177v7.159c0 1.657-1.343 3-3 3s-3-1.343-3-3v-9.537c-.325-.225-.639-.467-.945-.716-2.504 2.029-5.67 3.271-9.115 3.271h-13.94v6.982c0 1.657-1.343 3-3 3s-3-1.343-3-3v-6.982h-5v6.982c0 1.657-1.343 3-3 3s-3-1.343-3-3v-6.982h-1.898c-.716 0-1.413-.072-2.102-.177v7.159c0 1.657-1.343 3-3 3s-3-1.343-3-3v-9.537c-3.953-2.727-6.565-7.351-6.565-12.445 0-8.088 6.579-15 14.667-15h32.838c3.426 0 6.576 1.266 9.074 3.305 2.503-2.051 5.656-3.305 9.088-3.305h32.838c8.088 0 14.668 6.912 14.668 15s-6.58 15-14.668 15zm-83.838-24c-4.779 0-8.667 4.221-8.667 9 0 1.156.231 2.278.645 3.317.052-.216.126-.423.22-.619.851 2.702 2.7 4.837 5.7 5.678v.334c.674.183 1.376.29 2.102.29h32.838c1.985 0 3.812-.735 5.274-1.93-1.133-2.124-1.779-4.539-1.779-7.07s.645-4.947 1.778-7.072c-1.463-1.193-3.288-1.928-5.273-1.928h-32.838zm83.838 0h-32.838c-1.98 0-3.801.731-5.261 1.92l.036.062c-2.076 1.576-3.426 4.27-3.439 7.07l.025.51.02.332c.086.84.291 1.654.597 2.423.052-.216.126-.423.22-.619.851 2.702 2.7 4.837 5.7 5.678v.334c.674.183 1.376.29 2.102.29h32.838c4.779 0 8.668-4.221 8.668-9s-3.888-9-8.668-9z"/><path fill="none" d="M86-61h-172v122h172z"/></symbol><symbol id="T" viewBox="-86 -61 172 122"><path d="M-31.513-22.654c-.768 0-1.536.293-2.122.879-1.171 1.172-1.171 3.071 0 4.242l16.171 16.171-16.131 15.546c-1.193 1.149-1.229 3.049-.079 4.242 1.149 1.191 3.048 1.228 4.242.078l18.332-17.667c.58-.559.911-1.327.918-2.133.007-.805-.309-1.579-.879-2.148l-18.332-18.331c-.584-.586-1.352-.879-2.12-.879zM31.151-22.654c-.768 0-1.536.293-2.121.879l-18.332 18.331c-.57.569-.886 1.344-.879 2.148.007.806.338 1.574.918 2.133l18.333 17.667c1.192 1.149 3.092 1.113 4.242-.078 1.15-1.193 1.115-3.093-.079-4.242l-16.131-15.546 16.171-16.171c1.172-1.171 1.172-3.07 0-4.242-.586-.586-1.354-.879-2.122-.879z"/><path fill="none" d="M86-61h-172v122h172z"/></symbol><symbol id="U" viewBox="-86 -61 172 122"><path d="M-37.913-32.383c-18.197 0-33.002 14.804-33.002 33 0 18.195 14.805 32.998 33.002 32.998 18.196 0 33-14.803 33-32.998 0-18.196-14.804-33-33-33zm0 59.998c-14.889 0-27.002-12.111-27.002-26.998 0-14.888 12.113-27 27.002-27 14.888 0 27 12.112 27 27 0 14.887-12.112 26.998-27 26.998z"/><path fill-rule="evenodd" clip-rule="evenodd" d="M-27.227.949l6.605 6.365c-2.659 6.621-9.127 11.303-16.699 11.303-9.943 0-18.001-8.059-18.001-18s8.058-18.002 18.001-18.002c7.688 0 14.232 4.83 16.813 11.613l-6.719 6.721z"/><path d="M-37.32-20.385c-11.58 0-21.001 9.422-21.001 21.002 0 11.579 9.421 21 21.001 21 8.619 0 16.266-5.176 19.483-13.185.456-1.134.178-2.431-.702-3.278l-4.405-4.245 4.559-4.56c.835-.836 1.103-2.083.683-3.188-3.084-8.101-10.967-13.546-19.618-13.546zm0 36.002c-8.271 0-15.001-6.729-15.001-15 0-8.272 6.729-15.002 15.001-15.002 5.542 0 10.645 3.132 13.225 7.959l-5.253 5.254c-.569.569-.886 1.344-.878 2.149.008.805.338 1.573.918 2.132l5.051 4.868c-2.634 4.698-7.573 7.64-13.063 7.64zM36.754-32.383c-18.197 0-33.002 14.804-33.002 33 0 18.195 14.805 32.998 33.002 32.998 18.196 0 33-14.803 33-32.998 0-18.196-14.804-33-33-33zm0 59.998c-14.889 0-27.002-12.111-27.002-26.998 0-14.888 12.113-27 27.002-27 14.888 0 27 12.112 27 27 0 14.887-12.112 26.998-27 26.998z"/><path fill-rule="evenodd" clip-rule="evenodd" d="M47.439.949l6.605 6.365c-2.658 6.621-9.127 11.303-16.699 11.303-9.943 0-18-8.059-18-18s8.057-18.002 18-18.002c7.689 0 14.233 4.83 16.813 11.613l-6.719 6.721z"/><path d="M37.346-20.385c-11.58 0-21 9.422-21 21.002 0 11.579 9.42 21 21 21 8.62 0 16.268-5.176 19.483-13.185.455-1.134.177-2.431-.703-3.278l-4.405-4.245 4.559-4.56c.835-.835 1.103-2.083.683-3.188-3.082-8.101-10.965-13.546-19.617-13.546zm0 36.002c-8.271 0-15-6.729-15-15 0-8.272 6.729-15.002 15-15.002 5.543 0 10.646 3.132 13.226 7.959l-5.253 5.254c-.569.569-.886 1.344-.878 2.149.008.805.338 1.573.918 2.132l5.051 4.868c-2.634 4.698-7.573 7.64-13.064 7.64z"/><path fill="none" d="M86-61h-172v122h172z"/></symbol><symbol id="V" viewBox="-86 -61 172 122"><path clip-rule="evenodd" stroke="#000" stroke-width="6" stroke-linecap="round" stroke-linejoin="round" stroke-miterlimit="10" d="M-.661-19.313" fill="none"/><path d="M51.587-23h-43.414c-1.657 0-3 1.343-3 3s1.343 3 3 3h43.414c8.271 0 15 6.728 15 14.999 0 8.272-6.729 15.001-15 15.001h-43.727c-1.657 0-3 1.343-3 3s1.343 3 3 3h43.727c11.579 0 21-9.421 21-21.001 0-11.579-9.421-20.999-21-20.999z"/><path fill-rule="evenodd" clip-rule="evenodd" d="M61.587-2.547c0-4.557-3.694-8.25-8.25-8.25s-8.25 3.693-8.25 8.25 3.694 8.25 8.25 8.25 8.25-3.693 8.25-8.25z"/><path clip-rule="evenodd" stroke="#000" stroke-width="6" stroke-linecap="round" stroke-linejoin="round" stroke-miterlimit="10" d="M-78.661-19.313" fill="none"/><path d="M-26.413-23h-43.414c-1.657 0-3 1.343-3 3s1.343 3 3 3h43.414c8.271 0 15 6.728 15 14.999 0 8.272-6.729 15.001-15 15.001h-43.727c-1.657 0-3 1.343-3 3s1.343 3 3 3h43.727c11.58 0 21-9.421 21-21.001 0-11.579-9.42-20.999-21-20.999z"/><path fill-rule="evenodd" clip-rule="evenodd" d="M-16.413-2.547c0-4.557-3.694-8.25-8.25-8.25s-8.25 3.693-8.25 8.25 3.694 8.25 8.25 8.25 8.25-3.693 8.25-8.25z"/><path fill="none" d="M86-61h-172v122h172z"/></symbol><symbol id="W" viewBox="-86 -61 172 122"><path d="M-29.402 11.181c-.598.797-1.104 1.566-1.704 2.253-1.393 1.592-3.091 2.738-5.151 3.303-1.46.4-2.944.577-4.439.313-1.677-.297-3.221-.927-4.612-1.947-1.696-1.243-2.91-2.837-3.636-4.793-.704-1.899-.773-3.85-.464-5.849.285-1.828.839-3.558 1.676-5.188 1.136-2.214 2.696-4.132 4.426-5.9.935-.956 1.946-1.851 3.001-2.674 1.98-1.548 4.005-3.039 6.033-4.523 1.491-1.092 3.02-2.132 4.525-3.203.258-.184.463-.168.719.014 2.424 1.731 4.854 3.456 7.285 5.176 2.465 1.745 4.793 3.643 6.85 5.871 1.684 1.824 3.139 3.779 4.197 6.04.932 1.987 1.416 4.074 1.484 6.235.033 1.08-.17 2.191-.426 3.249-.547 2.254-1.859 4.039-3.688 5.438-1.84 1.407-3.942 2.17-6.25 2.151-1.114-.009-2.256-.235-3.332-.547-2.063-.597-3.735-1.825-5.049-3.529-.47-.61-.935-1.221-1.445-1.89z"/><path d="M30.598 11.181c-.598.797-1.104 1.566-1.704 2.253-1.393 1.592-3.091 2.738-5.151 3.303-1.46.4-2.944.577-4.439.313-1.677-.297-3.221-.927-4.612-1.947-1.696-1.243-2.91-2.837-3.636-4.793-.704-1.899-.773-3.85-.464-5.849.285-1.828.839-3.558 1.676-5.188 1.136-2.214 2.696-4.132 4.426-5.9.935-.956 1.946-1.851 3.001-2.674 1.98-1.548 4.005-3.039 6.033-4.523 1.491-1.092 3.02-2.132 4.525-3.203.258-.184.463-.168.719.014 2.424 1.731 4.854 3.456 7.285 5.176 2.465 1.745 4.793 3.643 6.85 5.871 1.684 1.824 3.139 3.779 4.197 6.04.932 1.987 1.416 4.074 1.484 6.235.033 1.08-.17 2.191-.426 3.249-.547 2.254-1.859 4.039-3.688 5.438-1.84 1.407-3.942 2.17-6.25 2.151-1.114-.009-2.256-.235-3.332-.547-2.063-.597-3.735-1.825-5.049-3.529-.47-.61-.935-1.221-1.445-1.89z"/><path fill="none" d="M86-61h-172v122h172z"/></symbol><symbol id="X" viewBox="-86 -61 172 122"><path fill-rule="evenodd" clip-rule="evenodd" d="M-14.5-19.82c5.155 0 9.5 4.179 9.5 9.334v28.661c0 5.155-4.345 9.334-9.499 9.334-5.156 0-9.501-4.179-9.501-9.334v-28.661c0-5.156 4.345-9.334 9.5-9.334zM17.5-19.82c5.155 0 9.5 4.179 9.5 9.334v28.661c0 5.155-4.345 9.334-9.499 9.334-5.156 0-9.501-4.179-9.501-9.334v-28.661c0-5.156 4.345-9.334 9.5-9.334z"/><path fill="none" d="M86-61h-172v122h172z"/></symbol><symbol id="Y" viewBox="-86 -61 172 122"><path d="M-49.424-17.504c-12.273 0-23.557 5.629-30.956 15.444-.806 1.068-.806 2.543 0 3.611 7.4 9.815 18.683 15.444 30.956 15.444s23.557-5.629 30.957-15.444c.806-1.068.806-2.543 0-3.611-7.399-9.815-18.682-15.444-30.957-15.444zm-24.703 17.25c6.229-7.179 15.108-11.25 24.704-11.25s18.476 4.071 24.705 11.25c-6.229 7.179-15.109 11.25-24.705 11.25-9.596 0-18.475-4.071-24.704-11.25z"/><path fill-rule="evenodd" clip-rule="evenodd" d="M-57.878 13.016c-.635-1.261-1.122-2.681-1.122-4.189v-18.161c0-1.509.487-2.929 1.123-4.189 2.674-.639 5.523-.98 8.393-.98 2.871 0 5.734.342 8.408.98.636 1.261 1.076 2.681 1.076 4.189v18.161c0 1.508-.409 2.927-1.045 4.188-2.675.64-5.546.981-8.417.981-2.87 0-5.742-.342-8.416-.98z"/><path d="M51.648-17.678c-12.275 0-23.558 5.629-30.956 15.444-.806 1.069-.806 2.543 0 3.611 7.399 9.815 18.682 15.444 30.956 15.444s23.557-5.629 30.956-15.444c.806-1.068.806-2.542 0-3.611-7.398-9.815-18.681-15.444-30.956-15.444zm-24.704 17.25c6.228-7.179 15.108-11.25 24.704-11.25s18.476 4.071 24.704 11.25c-6.229 7.178-15.108 11.25-24.704 11.25s-18.475-4.072-24.704-11.25z"/><path fill-rule="evenodd" clip-rule="evenodd" d="M43.157 12.842c-.635-1.261-1.157-2.681-1.157-4.189v-18.161c0-1.509.522-2.929 1.158-4.189 2.674-.639 5.542-.98 8.412-.98s5.708.342 8.381.98c.635 1.261 1.049 2.681 1.049 4.189v18.161c0 1.508-.374 2.927-1.01 4.188-2.674.64-5.546.981-8.417.981s-5.742-.342-8.416-.98z"/><path fill="none" d="M86-61h-172v122h172z"/></symbol><symbol id="Z" viewBox="-86 -61 172 122"><path d="M24.419 5h-5.278c-.834 3.243-2.444 6.17-4.629 8.578l6.462 6.462c1.172 1.171 1.172 3.071 0 4.242-1.171 1.172-3.071 1.172-4.242 0l-6.884-6.884c-2.353 1.406-5.007 2.351-7.848 2.706v11.205c0 1.657-1.343 3-3 3s-3-1.343-3-3v-11.349c-3.051-.528-5.867-1.731-8.293-3.461l-6.45 6.45c-1.171 1.172-3.071 1.172-4.242 0-1.172-1.171-1.172-3.071 0-4.242l6.371-6.371c-1.659-2.147-2.891-4.632-3.587-7.336h-6.379c-1.657 0-3-1.343-3-3s1.343-3 3-3h5.766c.499-10.771 9.393-19.388 20.286-19.388 10.892 0 19.785 8.616 20.284 19.388h4.664c1.657 0 3 1.343 3 3s-1.344 3-3.001 3zm-24.948-19.388c-7.904 0-14.334 6.43-14.334 14.333s6.43 14.333 14.334 14.333c7.903 0 14.332-6.43 14.332-14.333s-6.429-14.333-14.332-14.333z"/><path fill-rule="evenodd" clip-rule="evenodd" d="M5.969-.056c0-3.59-2.911-6.5-6.5-6.5-3.59 0-6.5 2.91-6.5 6.5s2.91 6.5 6.5 6.5c3.589 0 6.5-2.91 6.5-6.5z"/><path fill="none" d="M86-61h-172v122h172z"/></symbol><symbol id="aa" viewBox="-86 -61 172 122"><path fill-rule="evenodd" clip-rule="evenodd" d="M14.287 11.387c5.28-1.766 9.088-6.772 9.088-12.646 0-.928-.096-1.74-.277-2.74h-14.964c0 5.999 2.344 11.402 6.153 15.386z"/><path d="M23.098-7h-14.964c-1.657 0-3 1.405-3 3.063 0 6.509 2.48 12.719 6.985 17.429.803.84 2.02 1.156 3.119.787 6.661-2.227 11.137-8.433 11.137-15.452 0-1.115-.114-2.291-.34-3.377-.289-1.393-1.515-2.45-2.937-2.45zm-11.731 6h9.004c-.103 4-2.13 6.94-5.257 8.692-1.967-2.549-3.249-5.692-3.747-8.692zM52.521-7h-44.387c-1.657 0-3 1.405-3 3.063 0 13.886 11.297 25.214 25.184 25.214 13.763 0 24.983-11.081 25.182-24.796l.022-.426c-.001-1.658-1.343-3.055-3.001-3.055zm-41.153 6h37.899c-1.444 9-9.392 16.183-18.95 16.183-9.557 0-17.504-7.183-18.949-16.183z"/><path fill-rule="evenodd" clip-rule="evenodd" d="M-12.784 10.518c-5.28-1.768-9.089-6.838-9.089-12.712 0-.928.096-1.806.277-2.806h14.965c0 6-2.344 11.533-6.153 15.518z"/><path d="M-6.631-8h-14.965c-1.422 0-2.649 1.191-2.938 2.584-.226 1.09-.34 2.302-.34 3.414 0 7.019 4.476 13.28 11.137 15.509 1.1.368 2.317.092 3.12-.748 4.504-4.71 6.985-11.069 6.985-17.578.001-1.658-1.342-3.181-2.999-3.181zm-12.238 6h9.004c-.498 4-1.779 6.143-3.747 8.692-3.127-1.753-5.155-4.692-5.257-8.692zM-6.631-8h-44.369c-1.657 0-3 1.535-3 3.193 0 13.885 11.298 25.278 25.185 25.278s25.184-11.441 25.184-25.326c0-1.658-1.343-3.145-3-3.145zm-41.135 6h37.9c-1.444 10-9.392 16.183-18.95 16.183s-17.506-6.183-18.95-16.183z"/><path fill="none" d="M86-61h-172v122h172z"/></symbol><symbol id="ab" viewBox="-86 -61 172 122"><path d="M23.999-12.681c-11.211 0-20.332 9.121-20.332 20.333s9.121 20.333 20.332 20.333c11.213 0 20.335-9.121 20.335-20.333s-9.122-20.333-20.335-20.333zm0 34.666c-7.902 0-14.332-6.43-14.332-14.333s6.43-14.333 14.332-14.333c7.904 0 14.335 6.43 14.335 14.333s-6.431 14.333-14.335 14.333z"/><path fill-rule="evenodd" clip-rule="evenodd" d="M32.102 22.971l-.006-.004.097-.048-.091.052zM34.78 21.219c2.895-2.313 5.034-5.219 5.987-9.219h-16.37c-.256-1-.397-2.414-.397-3.672 0-6.645 3.744-12.414 9.232-15.323 4.863 3.07 8.102 8.479 8.102 14.654 0 5.494-2.563 10.386-6.554 13.56zM33.348 22.234c-.217.139-.437.271-.659.4.221-.129.443-.261.659-.4zM34.503 21.422c-.243.186-.49.365-.743.537.253-.173.501-.352.743-.537z"/><path d="M40.767 9h-33.533c-.928 0-1.803.42-2.371 1.152-.568.734-.766 1.685-.534 2.583 2.314 8.981 10.403 15.252 19.67 15.252 9.27 0 17.359-6.274 19.673-15.257.231-.898.034-1.844-.534-2.577s-1.444-1.153-2.371-1.153zm-29.071 6h24.608c-2.53 4-7.16 7.004-12.306 7.004-5.143 0-9.77-3.004-12.302-7.004zM-22.334-12.681c-11.211 0-20.332 9.121-20.332 20.333s9.121 20.333 20.332 20.333c11.213 0 20.335-9.121 20.335-20.333s-9.122-20.333-20.335-20.333zm0 34.666c-7.902 0-14.332-6.43-14.332-14.333s6.43-14.333 14.332-14.333c7.904 0 14.335 6.43 14.335 14.333s-6.431 14.333-14.335 14.333z"/><path fill-rule="evenodd" clip-rule="evenodd" d="M-14.231 22.971l-.006-.004.097-.048-.091.052zM-11.553 21.219c2.895-2.313 5.034-5.219 5.987-9.219h-16.37c-.256-1-.396-2.414-.396-3.672 0-6.645 3.744-12.414 9.232-15.323 4.863 3.07 8.102 8.479 8.102 14.654-.001 5.494-2.565 10.386-6.555 13.56zM-12.985 22.234c-.217.139-.437.271-.659.4.221-.129.443-.261.659-.4zM-11.83 21.422c-.243.186-.49.365-.743.537.253-.173.501-.352.743-.537z"/><path d="M-5.566 9h-33.532c-.928 0-1.803.42-2.371 1.152-.568.734-.766 1.685-.534 2.583 2.314 8.981 10.403 15.252 19.67 15.252 9.27 0 17.359-6.274 19.673-15.257.231-.898.034-1.844-.534-2.577s-1.445-1.153-2.372-1.153zm-29.071 6h24.608c-2.53 4-7.16 7.004-12.306 7.004-5.143 0-9.77-3.004-12.302-7.004z"/><path fill="none" d="M86-61h-172v122h172z"/></symbol><symbol id="ac" viewBox="-86 -61 172 122"><path d="M53.418-6.913l-6.321 6.321c3.044 3.505 4.903 8.064 4.903 13.055v5.518c0 1.657-1.343 3-3 3s-3-1.343-3-3v-5.518c0-7.706-6.295-13.975-14.002-13.975-7.705 0-13.998 6.269-13.998 13.975v5.812c0 1.657-1.343 3-3 3s-3-1.343-3-3v-5.812c0-5.045 1.899-9.646 5.001-13.165l-6.21-6.21c-1.172-1.171-1.172-3.071 0-4.242.586-.586 1.354-.879 2.121-.879s1.535.293 2.121.879l6.582 6.582c2.218-1.355 4.714-2.285 7.385-2.69v-5.253c0-1.657 1.343-3 3-3s3 1.343 3 3v5.253c2.723.413 5.264 1.371 7.513 2.77l6.663-6.663c.586-.586 1.354-.879 2.121-.879s1.535.293 2.121.879c1.172 1.171 1.172 3.071 0 4.242zM-7.582-6.913l-6.321 6.321c3.044 3.505 4.903 8.064 4.903 13.055v5.518c0 1.657-1.343 3-3 3s-3-1.343-3-3v-5.518c0-7.706-6.295-13.975-14.002-13.975-7.705 0-13.998 6.269-13.998 13.975v5.812c0 1.657-1.343 3-3 3s-3-1.343-3-3v-5.812c0-5.045 1.899-9.646 5.001-13.165l-6.21-6.21c-1.172-1.171-1.172-3.071 0-4.242.586-.586 1.354-.879 2.121-.879s1.535.293 2.121.879l6.582 6.582c2.218-1.354 4.714-2.285 7.385-2.689v-5.253c0-1.657 1.343-3 3-3s3 1.343 3 3v5.253c2.723.413 5.264 1.371 7.513 2.77l6.663-6.663c.586-.586 1.354-.879 2.121-.879s1.535.293 2.121.879c1.172 1.17 1.172 3.07 0 4.241z"/><path fill="none" d="M86-61h-172v122h172z"/></symbol><symbol id="ad" viewBox="-86 -61 172 122"><path fill-rule="evenodd" clip-rule="evenodd" d="M-10.128-3.532c0-2.209-1.791-4-4-4s-4 1.791-4 4 1.791 4 4 4 4-1.791 4-4zM17.205-3.532c0-2.209-1.791-4-4-4s-4 1.791-4 4 1.791 4 4 4 4-1.791 4-4z"/><path fill="none" d="M86-61h-172v122h172z"/></symbol><symbol id="ae" viewBox="-86 -61 172 122"><path d="M-59-13.237c-1.657 0-3 1.343-3 3v14.46c0 10.017 7.984 18.165 18.001 18.165 10.016 0 17.999-8.149 17.999-18.165v-14.197c0-1.657-1.343-3-3-3s-3 1.343-3 3v14.197c0 6.708-5.292 12.165-11.999 12.165-6.708 0-12.001-5.457-12.001-12.165v-14.46c0-1.658-1.343-3-3-3z"/><path fill-rule="evenodd" clip-rule="evenodd" d="M-36.778 3.234c0-3.984-3.229-7.214-7.212-7.214-3.985 0-7.215 3.229-7.215 7.214s3.23 7.214 7.215 7.214c3.983 0 7.212-3.229 7.212-7.214z"/><path d="M-50.021-18.677c-1.657 0-3 1.343-3 3 0 1.577-1.283 2.859-2.86 2.859-1.576 0-2.859-1.282-2.859-2.859 0-1.657-1.343-3-3-3s-3 1.343-3 3c0 4.885 3.974 8.859 8.859 8.859s8.86-3.975 8.86-8.859c0-1.657-1.343-3-3-3zM-38.303-18.677c-1.657 0-3 1.343-3 3 0 1.577-1.283 2.859-2.859 2.859s-2.859-1.282-2.859-2.859c0-1.657-1.343-3-3-3s-3 1.343-3 3c0 4.885 3.974 8.859 8.859 8.859s8.859-3.975 8.859-8.859c0-1.657-1.343-3-3-3zM-26.579-18.677c-1.657 0-3 1.343-3 3 0 1.577-1.283 2.859-2.859 2.859s-2.859-1.282-2.859-2.859c0-1.657-1.343-3-3-3s-3 1.343-3 3c0 4.885 3.974 8.859 8.859 8.859s8.859-3.975 8.859-8.859c0-1.657-1.343-3-3-3zM29-13.237c-1.657 0-3 1.343-3 3v14.46c0 10.017 7.984 18.165 18 18.165s18-8.148 18-18.165v-14.197c0-1.657-1.343-3-3-3s-3 1.343-3 3v14.197c0 6.708-5.292 12.165-12 12.165s-12-5.457-12-12.165v-14.46c0-1.658-1.343-3-3-3z"/><path fill-rule="evenodd" clip-rule="evenodd" d="M51.383 3.234c0-3.984-3.23-7.214-7.212-7.214-3.985 0-7.215 3.229-7.215 7.214s3.23 7.214 7.215 7.214c3.982 0 7.212-3.229 7.212-7.214z"/><path d="M38.139-18.677c-1.657 0-3 1.343-3 3 0 1.577-1.283 2.859-2.859 2.859s-2.86-1.282-2.86-2.859c0-1.657-1.343-3-3-3s-3 1.343-3 3c0 4.885 3.974 8.859 8.859 8.859s8.859-3.975 8.859-8.859c.001-1.657-1.342-3-2.999-3zM49.858-18.677c-1.657 0-3 1.343-3 3 0 1.577-1.283 2.859-2.86 2.859s-2.859-1.282-2.859-2.859c0-1.657-1.343-3-3-3s-3 1.343-3 3c0 4.885 3.974 8.859 8.859 8.859s8.86-3.975 8.86-8.859c0-1.657-1.343-3-3-3zM61.581-18.677c-1.657 0-3 1.343-3 3 0 1.577-1.283 2.859-2.859 2.859-1.577 0-2.86-1.282-2.86-2.859 0-1.657-1.343-3-3-3s-3 1.343-3 3c0 4.885 3.975 8.859 8.86 8.859s8.859-3.975 8.859-8.859c0-1.657-1.343-3-3-3z"/><path fill="none" d="M86-61h-172v122h172z"/></symbol><symbol id="af" viewBox="-86 -61 172 122"><path d="M35.894-9.236c-9.734 0-17.653 7.919-17.653 17.652s7.919 17.652 17.653 17.652c9.733 0 17.652-7.919 17.652-17.652s-7.919-17.652-17.652-17.652zm0 29.304c-6.426 0-11.653-5.228-11.653-11.652s5.227-11.652 11.653-11.652c6.425 0 11.652 5.228 11.652 11.652s-5.228 11.652-11.652 11.652z"/><path fill-rule="evenodd" clip-rule="evenodd" d="M35.894 23.068c8.092 0 14.652-6.56 14.652-14.652 0-8.092-6.561-14.652-14.652-14.652"/><path d="M-35.667-9.236c-9.734 0-17.653 7.919-17.653 17.652s7.919 17.652 17.653 17.652c9.733 0 17.652-7.919 17.652-17.652s-7.919-17.652-17.652-17.652zm0 29.304c-6.425 0-11.653-5.228-11.653-11.652s5.228-11.652 11.653-11.652 11.652 5.228 11.652 11.652-5.227 11.652-11.652 11.652z"/><path fill-rule="evenodd" clip-rule="evenodd" d="M-35.667 23.068c8.092 0 14.652-6.56 14.652-14.652 0-8.092-6.561-14.652-14.652-14.652"/><path fill="none" d="M86-61h-172v122h172z"/></symbol><symbol id="ag" viewBox="-86 -61 172 122"><path d="M32.898-8.75c-11.441 0-20.75 9.309-20.75 20.75s9.309 20.75 20.75 20.75 20.75-9.309 20.75-20.75-9.308-20.75-20.75-20.75zm0 35.5c-8.133 0-14.75-6.617-14.75-14.75s6.617-14.75 14.75-14.75 14.75 6.617 14.75 14.75-6.617 14.75-14.75 14.75zM37.398 7h-9c-2.485 0-4.5 2.015-4.5 4.5s2.015 4.5 4.5 4.5h9c2.485 0 4.5-2.015 4.5-4.5s-2.014-4.5-4.5-4.5zM-32.504-8.75c-11.441 0-20.75 9.309-20.75 20.75s9.309 20.75 20.75 20.75 20.75-9.309 20.75-20.75-9.309-20.75-20.75-20.75zm0 35.5c-8.133 0-14.75-6.617-14.75-14.75s6.617-14.75 14.75-14.75 14.75 6.617 14.75 14.75-6.617 14.75-14.75 14.75zM-28.004 7h-9c-2.485 0-4.5 2.015-4.5 4.5s2.015 4.5 4.5 4.5h9c2.485 0 4.5-2.015 4.5-4.5s-2.015-4.5-4.5-4.5z"/><path fill="none" d="M86-61h-172v122h172z"/></symbol><symbol id="ah" viewBox="-86 -61 172 122"><path d="M24.771-14.857c-9.456 0-17.149 7.691-17.149 17.146s7.693 17.146 17.149 17.146c9.455 0 17.146-7.691 17.146-17.146s-7.69-17.146-17.146-17.146zm0 28.293c-6.147 0-11.149-5-11.149-11.146s5.002-11.147 11.149-11.147c6.146 0 11.146 5 11.146 11.146s-4.999 11.147-11.146 11.147z"/><path fill-rule="evenodd" clip-rule="evenodd" d="M30.728 8.542c0-3.289-2.667-5.956-5.956-5.956-3.293 0-5.959 2.667-5.959 5.956 0 3.29 2.666 5.957 5.959 5.957 3.289 0 5.956-2.667 5.956-5.957z"/><path d="M-22.547-14.857c-9.456 0-17.148 7.691-17.148 17.146s7.692 17.146 17.148 17.146c9.455 0 17.147-7.691 17.147-17.146s-7.692-17.146-17.147-17.146zm0 28.293c-6.147 0-11.148-5-11.148-11.146s5.001-11.146 11.148-11.146c6.146 0 11.147 5 11.147 11.146s-5 11.146-11.147 11.146z"/><path fill-rule="evenodd" clip-rule="evenodd" d="M-16.59-5.901c0-3.289-2.667-5.956-5.956-5.956-3.292 0-5.959 2.667-5.959 5.956 0 3.29 2.667 5.957 5.959 5.957 3.289 0 5.956-2.667 5.956-5.957z"/><path fill="none" d="M86-61h-172v122h172z"/></symbol><g><use xlink:href="#a" width="172" height="122" x="-86" y="-61" transform="matrix(1 0 0 -1 86 61.001)" overflow="visible"/><use xlink:href="#b" width="172" height="122" x="-86" y="-61" transform="matrix(1 0 0 -1 258 61.001)" overflow="visible"/><use xlink:href="#c" width="172" height="122" x="-86" y="-61" transform="matrix(1 0 0 -1 430 61.001)" overflow="visible"/><use xlink:href="#d" width="172" height="122" x="-86" y="-61" transform="matrix(1 0 0 -1 602 61.001)" overflow="visible"/><use xlink:href="#e" width="172" height="122" x="-86" y="-61" transform="matrix(1 0 0 -1 774 61.001)" overflow="visible"/><use xlink:href="#f" width="172" height="122" x="-86" y="-61" transform="matrix(1 0 0 -1 86 183)" overflow="visible"/><use xlink:href="#g" width="172" height="122" x="-86" y="-61" transform="matrix(1 0 0 -1 258 183)" overflow="visible"/><use xlink:href="#h" width="172" height="122" x="-86" y="-61" transform="matrix(1 0 0 -1 430 183)" overflow="visible"/><use xlink:href="#i" width="172" height="122" x="-86" y="-61" transform="matrix(1 0 0 -1 602 183)" overflow="visible"/><use xlink:href="#j" width="172" height="122" x="-86" y="-61" transform="matrix(1 0 0 -1 774 183)" overflow="visible"/><use xlink:href="#k" width="172" height="122" x="-86" y="-61" transform="matrix(1 0 0 -1 86 305)" overflow="visible"/><use xlink:href="#l" width="172" height="122" x="-86" y="-61" transform="matrix(1 0 0 -1 258 305)" overflow="visible"/><use xlink:href="#m" width="172" height="122" x="-86" y="-61" transform="matrix(1 0 0 -1 430 305)" overflow="visible"/><use xlink:href="#n" width="172" height="122" x="-86" y="-61" transform="matrix(1 0 0 -1 602 305)" overflow="visible"/><use xlink:href="#o" width="172" height="122" x="-86" y="-61" transform="matrix(1 0 0 -1 774 305)" overflow="visible"/><use xlink:href="#p" width="172" height="122" x="-86" y="-61" transform="matrix(1 0 0 -1 86 427)" overflow="visible"/><use xlink:href="#q" width="172" height="122" x="-86" y="-61" transform="matrix(1 0 0 -1 258 427)" overflow="visible"/><use xlink:href="#r" width="172" height="122" x="-86" y="-61" transform="matrix(1 0 0 -1 430 427)" overflow="visible"/><use xlink:href="#s" width="172" height="122" x="-86" y="-61" transform="matrix(1 0 0 -1 602 427)" overflow="visible"/><use xlink:href="#t" width="172" height="122" x="-86" y="-61" transform="matrix(1 0 0 -1 774 427)" overflow="visible"/><use xlink:href="#u" width="172" height="122" x="-86" y="-61" transform="matrix(1 0 0 -1 86 549)" overflow="visible"/><use xlink:href="#v" width="172" height="122" x="-86" y="-61" transform="matrix(1 0 0 -1 258 549)" overflow="visible"/><use xlink:href="#w" width="172" height="122" x="-86" y="-61" transform="matrix(1 0 0 -1 430 549)" overflow="visible"/><use xlink:href="#x" width="172" height="122" x="-86" y="-61" transform="matrix(1 0 0 -1 602 549)" overflow="visible"/><use xlink:href="#y" width="172" height="122" x="-86" y="-61" transform="matrix(1 0 0 -1 774 549)" overflow="visible"/><use xlink:href="#z" width="172" height="122" x="-86" y="-61" transform="matrix(1 0 0 -1 86 671)" overflow="visible"/><use xlink:href="#A" width="172" height="122" x="-86" y="-61" transform="matrix(1 0 0 -1 258 671)" overflow="visible"/><use xlink:href="#B" width="172" height="122" x="-86" y="-61" transform="matrix(1 0 0 -1 430 671)" overflow="visible"/><use xlink:href="#C" width="172" height="122" x="-86" y="-61" transform="matrix(1 0 0 -1 602 671)" overflow="visible"/><use xlink:href="#D" width="172" height="122" x="-86" y="-61" transform="matrix(1 0 0 -1 774 671)" overflow="visible"/><use xlink:href="#E" width="172" height="122" x="-86" y="-61" transform="matrix(1 0 0 -1 86 793)" overflow="visible"/><use xlink:href="#F" width="172" height="122" x="-86" y="-61" transform="matrix(1 0 0 -1 258 793)" overflow="visible"/><use xlink:href="#G" width="172" height="122" x="-86" y="-61" transform="matrix(1 0 0 -1 430 793)" overflow="visible"/><use xlink:href="#H" width="172" height="122" x="-86" y="-61" transform="matrix(1 0 0 -1 602 793)" overflow="visible"/><use xlink:href="#I" width="172" height="122" x="-86" y="-61" transform="matrix(1 0 0 -1 774 793)" overflow="visible"/><use xlink:href="#J" width="172" height="122" x="-86" y="-61" transform="matrix(1 0 0 -1 86 915)" overflow="visible"/><use xlink:href="#K" width="172" height="122" x="-86" y="-61" transform="matrix(1 0 0 -1 258 915)" overflow="visible"/><use xlink:href="#L" width="172" height="122" x="-86" y="-61" transform="matrix(1 0 0 -1 430 915)" overflow="visible"/><use xlink:href="#M" width="172" height="122" x="-86" y="-61" transform="matrix(1 0 0 -1 602 915)" overflow="visible"/><use xlink:href="#N" width="172" height="122" x="-86" y="-61" transform="matrix(1 0 0 -1 774 915)" overflow="visible"/><use xlink:href="#O" width="172" height="122" x="-86" y="-61" transform="matrix(1 0 0 -1 86 1037.001)" overflow="visible"/><use xlink:href="#P" width="172" height="122" x="-86" y="-61" transform="matrix(1 0 0 -1 258 1037.001)" overflow="visible"/><use xlink:href="#Q" width="172" height="122" x="-86" y="-61" transform="matrix(1 0 0 -1 430 1037.001)" overflow="visible"/><use xlink:href="#R" width="172" height="122" x="-86" y="-61" transform="matrix(1 0 0 -1 602 1037.001)" overflow="visible"/><use xlink:href="#S" width="172" height="122" x="-86" y="-61" transform="matrix(1 0 0 -1 774 1037.001)" overflow="visible"/><use xlink:href="#T" width="172" height="122" x="-86" y="-61" transform="matrix(1 0 0 -1 86 1159.001)" overflow="visible"/><use xlink:href="#U" width="172" height="122" x="-86" y="-61" transform="matrix(1 0 0 -1 258 1159.001)" overflow="visible"/><use xlink:href="#V" width="172" height="122" x="-86" y="-61" transform="matrix(1 0 0 -1 430 1159.001)" overflow="visible"/><use xlink:href="#W" width="172" height="122" x="-86" y="-61" transform="matrix(1 0 0 -1 602 1159.001)" overflow="visible"/><use xlink:href="#X" width="172" height="122" x="-86" y="-61" transform="matrix(1 0 0 -1 774 1159.001)" overflow="visible"/><use xlink:href="#Y" width="172" height="122" x="-86" y="-61" transform="matrix(1 0 0 -1 86 1281.001)" overflow="visible"/><use xlink:href="#Z" width="172" height="122" x="-86" y="-61" transform="matrix(1 0 0 -1 258 1281.001)" overflow="visible"/><use xlink:href="#aa" width="172" height="122" x="-86" y="-61" transform="matrix(1 0 0 -1 430 1281.001)" overflow="visible"/><use xlink:href="#ab" width="172" height="122" x="-86" y="-61" transform="matrix(1 0 0 -1 602 1281.001)" overflow="visible"/><use xlink:href="#ac" width="172" height="122" x="-86" y="-61" transform="matrix(1 0 0 -1 774 1281.001)" overflow="visible"/><use xlink:href="#ad" width="172" height="122" x="-86" y="-61" transform="matrix(1 0 0 -1 86 1403.001)" overflow="visible"/><use xlink:href="#ae" width="172" height="122" x="-86" y="-61" transform="matrix(1 0 0 -1 258 1403.001)" overflow="visible"/><use xlink:href="#af" width="172" height="122" x="-86" y="-61" transform="matrix(1 0 0 -1 430 1403.001)" overflow="visible"/><use xlink:href="#ag" width="172" height="122" x="-86" y="-61" transform="matrix(1 0 0 -1 602 1403.001)" overflow="visible"/><use xlink:href="#ah" width="172" height="122" x="-86" y="-61" transform="matrix(1 0 0 -1 774 1403.001)" overflow="visible"/></g></svg>