<svg xmlns="http://www.w3.org/2000/svg" xmlns:xlink="http://www.w3.org/1999/xlink" width="860" height="1742.04" viewBox="0 0 860 1742.04"><symbol id="a" viewBox="-86 -61 172 122"><path d="M5.277-21.424h-13.228c-1.657 0-3 1.344-3 3 0 1.657 1.343 3 3 3h13.228c2.97 0 5.386 2.416 5.386 5.385 0 2.971-2.416 5.387-5.386 5.387h-13.228c-1.625 0-2.955 1.295-2.999 2.919l-.045 1.651c-.021.81.284 1.594.849 2.174.565.58 1.34.908 2.15.908h13.228c2.97 0 5.386 2.415 5.386 5.385s-2.416 5.387-5.386 5.387h-13.228c-1.657 0-3 1.343-3 3 0 1.656 1.343 3 3 3h13.228c6.278 0 11.386-5.108 11.386-11.387 0-3.772-1.844-7.122-4.678-9.195 2.859-2.07 4.723-5.436 4.723-9.229 0-6.277-5.107-11.385-11.386-11.385z"/><path fill="none" d="M86-61h-172v122h172z"/></symbol><symbol id="b" viewBox="-86 -61 172 122"><g><path d="M-37.779-14.301c-1.657 0-3 1.344-3 3v13.229c0 2.971-2.416 5.386-5.385 5.386s-5.385-2.415-5.385-5.386v-13.229c0-1.656-1.343-3-3-3s-3 1.344-3 3v13.229c0 6.278 5.107 11.387 11.385 11.387s11.385-5.108 11.385-11.387v-13.229c0-1.656-1.343-3-3-3zM55.443-14.301c-1.657 0-3 1.344-3 3v13.229c0 2.971-2.416 5.386-5.385 5.386-2.971 0-5.387-2.415-5.387-5.386v-13.229c0-1.656-1.343-3-3-3s-3 1.344-3 3v13.229c0 6.278 5.108 11.387 11.387 11.387 6.277 0 11.385-5.108 11.385-11.387v-13.229c0-1.656-1.342-3-3-3z"/><path fill-rule="evenodd" clip-rule="evenodd" fill="#FCFCFC" d="M-37.656-4.285h76"/><path d="M38.344-7.285h-76c-1.657 0-3 1.344-3 3 0 1.657 1.343 3 3 3h76c1.657 0 3-1.343 3-3 0-1.656-1.343-3-3-3z"/></g><path fill="none" d="M86-61h-172v122h172z"/></symbol><symbol id="c" viewBox="-86 -61 172 122"><g><path fill-rule="evenodd" clip-rule="evenodd" d="M24.94 6.822h-53.01c-6.532 0-11.828-5.296-11.828-11.828 0-6.533 5.296-11.83 11.828-11.83h10.956c-.53 1.101-.835 2.328-.835 3.631v13.228000000000002h16.771v-13.229c0-1.303-.306-2.53-.835-3.631h2.199c-.53 1.101-.836 2.328-.836 3.631v13.228000000000002h16.77v-13.229c0-1.303-.306-2.53-.835-3.631h9.655c6.532 0 11.828 5.297 11.828 11.829.001 6.535-5.295 11.831-11.828 11.831z"/><path d="M-9.564-24.592c-6.277 0-11.385 5.107-11.385 11.387v13.228c0 1.657 1.343 3 3 3s3-1.343 3-3v-13.229c0-2.971 2.416-5.387 5.385-5.387 2.97 0 5.386 2.416 5.386 5.387v13.229c0 1.657 1.343 3 3 3s3-1.343 3-3v-13.229c-.001-6.278-5.108-11.386-11.386-11.386zM7.734-24.592c-6.277 0-11.385 5.107-11.385 11.387v13.228c0 1.657 1.343 3 3 3s3-1.343 3-3v-13.229c0-2.971 2.416-5.387 5.385-5.387 2.97 0 5.386 2.416 5.386 5.387v13.229c0 1.657 1.343 3 3 3s3-1.343 3-3v-13.229c0-6.278-5.107-11.386-11.386-11.386z"/></g><path fill="none" d="M86-61h-172v122h172z"/></symbol><symbol id="d" viewBox="-86 -61 172 122"><path d="M-.326-19.02c-6.277 0-11.385 5.107-11.385 11.385v13.229c0 1.657 1.343 3 3 3s3-1.343 3-3v-13.229c0-2.969 2.416-5.385 5.385-5.385 2.97 0 5.386 2.416 5.386 5.385v13.229c0 1.657 1.343 3 3 3s3-1.343 3-3v-13.229c0-6.277-5.108-11.385-11.386-11.385z"/><path fill="none" d="M86-61h-172v122h172z"/></symbol><symbol id="e" viewBox="-86 -61 172 122"><path d="M-13.265-17.481c-1.657 0-3 1.343-3 3v9.221c0 9.403 7.65 17.054 17.054 17.054 9.402 0 17.052-7.65 17.052-17.054v-8.978c0-1.656-1.343-3-3-3s-3 1.344-3 3v8.978c0 6.095-4.958 11.053-11.052 11.053-6.095 0-11.054-4.958-11.054-11.053v-9.221c0-1.658-1.342-3-3-3z"/><path fill="none" d="M86-61h-172v122h172z"/></symbol><symbol id="f" viewBox="-86 -61 172 122"><g><path d="M-7.91-20.774c-5.192 0-9.416 4.225-9.416 9.417v10.123c0 1.656 1.343 3 3 3s3-1.344 3-3v-10.123c0-1.885 1.532-3.417 3.416-3.417s3.416 1.532 3.416 3.417v10.123c0 1.656 1.343 3 3 3s3-1.344 3-3v-10.123c0-5.193-4.224-9.417-9.416-9.417zM5.326-20.774c-5.192 0-9.416 4.225-9.416 9.417v10.123c0 1.656 1.343 3 3 3s3-1.344 3-3v-10.123c0-1.885 1.532-3.417 3.416-3.417s3.417 1.532 3.417 3.417v10.123c0 1.656 1.343 3 3 3s3-1.344 3-3v-10.123c0-5.193-4.224-9.417-9.417-9.417z"/><path fill-rule="evenodd" clip-rule="evenodd" fill="#fff" d="M-31.292-.313h60.001"/><path d="M28.709-3.313h-60.001c-1.657 0-3 1.344-3 3s1.343 3 3 3h60.001c1.657 0 3-1.344 3-3s-1.343-3-3-3z"/></g><path fill="none" d="M86-61h-172v122h172z"/></symbol><symbol id="g" viewBox="-86 -61 172 122"><g><path d="M-9.861-34.019c-6.104 0-11.069 4.966-11.069 11.07v22.97c0 1.657 1.343 3.001 3 3.001s3-1.344 3-3.001v-22.969c0-2.796 2.274-5.07 5.069-5.07 2.796 0 5.07 2.274 5.07 5.07v22.969c0 1.657 1.343 3.001 3 3.001s3-1.344 3-3.001v-22.969c0-6.105-4.966-11.071-11.07-11.071zM6.787-34.019c-6.104 0-11.07 4.966-11.07 11.07v22.97c0 1.657 1.343 3.001 3 3.001s3-1.344 3-3.001v-22.969c0-2.796 2.274-5.07 5.07-5.07s5.07 2.274 5.07 5.07v22.969c0 1.657 1.343 3.001 3 3.001s3-1.344 3-3.001v-22.969c0-6.105-4.965-11.071-11.07-11.071z"/><path fill-rule="evenodd" clip-rule="evenodd" fill="#fff" d="M35.625 2.096h-68.183"/><path d="M32.642-.904h-65.325c-1.577 0-2.854 1.344-2.854 3 0 1.657 1.277 3 2.854 3h65.325c1.576 0 2.854-1.343 2.854-3s-1.278-3-2.854-3z"/><path fill-rule="evenodd" clip-rule="evenodd" d="M43.28 12.312"/><path d="M41.948-12.022c-.831 0-1.657.343-2.251 1.016l-10 11.333c-1.048 1.188-.991 2.986.129 4.106l10 10c1.172 1.172 3.07 1.172 4.242 0s1.172-3.071 0-4.242l-8.007-8.007 8.136-9.222c1.096-1.242.978-3.138-.266-4.234-.57-.503-1.278-.75-1.983-.75zM-43.388-12.022c-.705 0-1.413.247-1.983.75-1.243 1.097-1.361 2.992-.266 4.234l8.136 9.222-8.007 8.007c-1.172 1.171-1.172 3.07 0 4.242s3.07 1.172 4.242 0l10-10c1.12-1.12 1.177-2.918.129-4.106l-10-11.333c-.593-.674-1.42-1.016-2.251-1.016z"/></g><path fill="none" d="M86-61h-172v122h172z"/></symbol><symbol id="h" viewBox="-86 -61 172 122"><g><path d="M-7.655-12.595c-3.041 0-5.899 1.185-8.05 3.335-2.149 2.149-3.334 5.009-3.333 8.051 0 3.042 1.185 5.901 3.335 8.051 1.172 1.172 3.07 1.172 4.242 0 1.172-1.171 1.172-3.071 0-4.242-1.017-1.018-1.577-2.37-1.577-3.81 0-1.438.56-2.791 1.576-3.807 1.017-1.018 2.369-1.578 3.808-1.578 1.439 0 2.792.561 3.81 1.578l.781.783c.563.563 1.326.879 2.122.88h.001c.796 0 1.559-.315 2.121-.879l.784-.784c2.102-2.1 5.518-2.101 7.617-.001 2.1 2.101 2.099 5.517-.001 7.617-1.172 1.171-1.172 3.071 0 4.242 1.172 1.172 3.07 1.172 4.242 0 4.439-4.439 4.44-11.663.001-16.102-4.016-4.019-10.313-4.397-14.763-1.146-1.938-1.421-4.268-2.188-6.714-2.188h-.002z"/><path fill-rule="evenodd" clip-rule="evenodd" fill="#fff" d="M-.94-6.354v6.047"/><path d="M-.94-9.354c-1.657 0-3 1.343-3 3v6.047c0 1.657 1.343 3 3 3s3-1.343 3-3v-6.047c0-1.657-1.343-3-3-3z"/></g><path fill="none" d="M86-61h-172v122h172z"/></symbol><symbol id="i" viewBox="-86 -61 172 122"><g><path d="M7.852-9.058c-1.657 0-3 1.343-3 3 0 2.971-2.416 5.387-5.385 5.387-2.97 0-5.386-2.416-5.386-5.387 0-1.657-1.343-3-3-3s-3 1.343-3 3c0 6.278 5.107 11.387 11.386 11.387 6.277 0 11.385-5.108 11.385-11.387 0-1.657-1.343-3-3-3zM-.262-26.003c-5.542 0-10.753 2.158-14.672 6.077-8.091 8.09-8.092 21.254-.001 29.346 3.919 3.92 9.13 6.078 14.672 6.078 5.543 0 10.755-2.159 14.674-6.079 8.091-8.091 8.091-21.254 0-29.345-3.92-3.919-9.13-6.077-14.673-6.077zm-.001 35.501c-3.939 0-7.644-1.534-10.43-4.32-5.751-5.752-5.75-15.11.001-20.86 2.786-2.786 6.49-4.32 10.43-4.32 3.94 0 7.645 1.534 10.431 4.32 5.751 5.75 5.751 15.108 0 20.859-2.786 2.786-6.491 4.321-10.432 4.321z"/></g><path fill="none" d="M86-61h-172v122h172z"/></symbol><symbol id="j" viewBox="-86 -61 172 122"><g><path d="M-5.945-19.082c-5.192 0-9.416 4.225-9.416 9.417v10.123c0 1.657 1.343 3 3 3s3-1.343 3-3v-10.123c0-1.884 1.532-3.417 3.416-3.417s3.416 1.533 3.416 3.417v10.123c0 1.657 1.343 3 3 3s3-1.343 3-3v-10.123c0-5.192-4.224-9.417-9.416-9.417zM6.916-19.082c-5.192 0-9.416 4.225-9.416 9.417v10.123c0 1.657 1.343 3 3 3s3-1.343 3-3v-10.123c0-1.884 1.532-3.417 3.416-3.417s3.417 1.533 3.417 3.417v10.123c0 1.657 1.343 3 3 3s3-1.343 3-3v-10.123c0-5.192-4.225-9.417-9.417-9.417zM32.084-29.856c-1.657 0-3 1.343-3 3 0 15.237-12.394 27.635-27.627 27.635-15.235 0-27.63-12.397-27.63-27.635 0-1.657-1.343-3-3-3s-3 1.343-3 3c0 18.546 15.086 33.635 33.63 33.635 18.542 0 33.627-15.089 33.627-33.635 0-1.658-1.343-3-3-3z"/></g><path fill="none" d="M86-61h-172v122h172z"/></symbol><symbol id="k" viewBox="-86 -61 172 122"><g><path d="M-38.893-8.757c-1.657 0-3 1.343-3 3v13.229c0 2.969-2.416 5.385-5.385 5.385-2.97 0-5.386-2.416-5.386-5.385v-13.229c0-1.657-1.343-3-3-3s-3 1.343-3 3v13.229c0 6.277 5.107 11.385 11.386 11.385 6.277 0 11.385-5.107 11.385-11.385v-13.229c0-1.657-1.342-3-3-3zM54.329-8.757c-1.657 0-3 1.343-3 3v13.229c0 2.969-2.416 5.385-5.385 5.385-2.97 0-5.386-2.416-5.386-5.385v-13.229c0-1.657-1.343-3-3-3s-3 1.343-3 3v13.229c0 6.277 5.107 11.385 11.386 11.385 6.277 0 11.385-5.107 11.385-11.385v-13.229c0-1.657-1.343-3-3-3zM-1.361-13.564c-.779 0-1.57.008-2.375.026-24.924.554-36.682 12.195-37.171 12.69-1.163 1.18-1.149 3.079.03 4.243 1.178 1.159 3.069 1.149 4.233-.021.105-.103 10.713-10.418 33.04-10.914 28.265-.606 38.476 10.659 38.575 10.773 1.092 1.249 2.988 1.374 4.233.284 1.247-1.091 1.374-2.986.284-4.233-.47-.538-11.582-12.848-40.849-12.848z"/></g><path fill="none" d="M86-61h-172v122h172z"/></symbol><symbol id="l" viewBox="-86 -61 172 122"><g><path d="M-25.873-17.083c-6.104 0-11.069 4.966-11.069 11.07v10.97c0 1.657 1.343 3 3 3s3-1.343 3-3v-10.97c0-2.796 2.274-5.07 5.069-5.07 2.796 0 5.07 2.274 5.07 5.07v10.97c0 1.657 1.343 3 3 3s3-1.343 3-3v-10.97c0-6.104-4.966-11.07-11.07-11.07zM-9.493-17.083c-6.104 0-11.07 4.966-11.07 11.07v10.97c0 1.657 1.343 3 3 3s3-1.343 3-3v-10.97c0-2.796 2.274-5.07 5.07-5.07s5.07 2.274 5.07 5.07v10.97c0 1.657 1.343 3 3 3s3-1.343 3-3v-10.97c0-6.104-4.966-11.07-11.07-11.07zM6.886-17.083c-6.104 0-11.07 4.966-11.07 11.07v10.97c0 1.657 1.343 3 3 3s3-1.343 3-3v-10.97c0-2.796 2.274-5.07 5.07-5.07s5.07 2.274 5.07 5.07v10.97c0 1.657 1.343 3 3 3s3-1.343 3-3v-10.97c0-6.104-4.966-11.07-11.07-11.07zM23.266-17.083c-6.104 0-11.07 4.966-11.07 11.07v10.97c0 1.657 1.343 3 3 3s3-1.343 3-3v-10.97c0-2.796 2.274-5.07 5.07-5.07s5.07 2.274 5.07 5.07v10.97c0 1.657 1.343 3 3 3s3-1.343 3-3v-10.97c0-6.104-4.966-11.07-11.07-11.07z"/></g><path fill="none" d="M86-61h-172v122h172z"/></symbol><symbol id="m" viewBox="-86 -61 172 122"><g><path d="M6.908-28.188c-1.238 0-2.35.761-2.797 1.915l-6.416 16.54c-.6 1.545.167 3.282 1.712 3.882 1.545.602 3.283-.168 3.882-1.712l3.619-9.331 3.621 9.331c.599 1.545 2.335 2.314 3.882 1.712 1.545-.6 2.312-2.338 1.712-3.882l-6.418-16.54c-.448-1.155-1.559-1.915-2.797-1.915zM-9.758-28.188c-1.238 0-2.35.761-2.797 1.915l-6.416 16.54c-.6 1.545.167 3.282 1.712 3.882 1.545.603 3.282-.167 3.882-1.712l3.619-9.33 3.62 9.33c.599 1.545 2.337 2.314 3.882 1.712 1.545-.6 2.312-2.337 1.712-3.882l-6.416-16.54c-.448-1.155-1.56-1.915-2.798-1.915z"/><path fill-rule="evenodd" clip-rule="evenodd" fill="#fff" d="M36.639-7.023h-77.105"/><path d="M36.639-10.023h-77.104c-1.643 0-2.974 1.343-2.974 3s1.331 3 2.974 3h77.104c1.643 0 2.974-1.343 2.974-3s-1.332-3-2.974-3z"/><path fill-rule="evenodd" clip-rule="evenodd" d="M44.829 2.977"/><path d="M61.84-31.734c1.657 0 3 1.343 3 3s-1.343 3-3 3c-11.319 0-20.528 9.206-20.528 20.522 0 11.317 9.209 20.524 20.528 20.524 1.657 0 3 1.343 3 3s-1.343 3-3 3c-14.628 0-26.528-11.898-26.528-26.524 0-14.625 11.9-26.522 26.528-26.522zM-64.688-31.734c-1.657 0-3 1.343-3 3s1.343 3 3 3c11.319 0 20.528 9.206 20.528 20.522 0 11.317-9.209 20.524-20.528 20.524-1.657 0-3 1.343-3 3s1.343 3 3 3c14.628 0 26.528-11.898 26.528-26.524 0-14.625-11.9-26.522-26.528-26.522z"/></g><path fill="none" d="M86-61h-172v122h172z"/></symbol><symbol id="n" viewBox="-86 -61 172 122"><g><path d="M-42.659-15.02h-7.239c-1.657 0-3 1.343-3 3s1.343 3 3 3h7.239c4.593 0 8.33 3.737 8.33 8.33 0 4.595-3.737 8.333-8.33 8.333h-7.436c-1.657 0-3 1.343-3 3s1.343 3 3 3h7.436c7.901 0 14.33-6.43 14.33-14.333 0-7.901-6.429-14.33-14.33-14.33zM49.443-15.02h-7.436c-7.901 0-14.33 6.43-14.33 14.333 0 7.901 6.429 14.33 14.33 14.33h7.239c1.657 0 3-1.343 3-3s-1.343-3-3-3h-7.239c-4.593 0-8.33-3.737-8.33-8.33 0-4.595 3.737-8.333 8.33-8.333h7.436c1.657 0 3-1.343 3-3s-1.342-3-3-3z"/><path fill-rule="evenodd" clip-rule="evenodd" fill="#fff" d="M30.401-.023h-60.602"/><path d="M30.401-3.023h-60.603c-1.643 0-2.974 1.343-2.974 3s1.331 3 2.974 3h60.603c1.643 0 2.974-1.343 2.974-3s-1.331-3-2.974-3z"/><path fill-rule="evenodd" clip-rule="evenodd" d="M45.344 9.977"/></g><path fill="none" d="M86-61h-172v122h172z"/></symbol><symbol id="o" viewBox="-86 -61 172 122"><g><path d="M-4.052-18.809c-3.377 0-6.55 1.314-8.937 3.701-1.171 1.172-1.171 3.071.001 4.243 1.172 1.17 3.071 1.171 4.243-.001 1.252-1.253 2.919-1.943 4.691-1.943h.001c1.772 0 3.438.689 4.689 1.942 1.254 1.253 1.944 2.919 1.944 4.691.001 1.774-.689 3.44-1.942 4.693l-.9.901c-1.171 1.171-1.172 3.069-.001 4.241l.9.901c1.254 1.254 1.944 2.921 1.944 4.693s-.689 3.438-1.942 4.69c-1.253 1.254-2.919 1.944-4.69 1.944h-.001c-1.772-.001-3.438-.691-4.691-1.944-1.172-1.172-3.071-1.171-4.243-.001-1.172 1.172-1.172 3.071-.001 4.243 2.387 2.387 5.56 3.701 8.935 3.702h.002c3.375 0 6.547-1.314 8.934-3.701 2.386-2.386 3.7-5.559 3.699-8.935 0-2.827-.923-5.514-2.625-7.713 1.702-2.2 2.625-4.886 2.626-7.714 0-3.376-1.314-6.55-3.701-8.936-2.387-2.382-5.56-3.697-8.935-3.697z"/><path fill-rule="evenodd" clip-rule="evenodd" fill="#fff" d="M1.858 1.539h-6.948"/><path d="M1.858-1.461h-6.948c-1.657 0-3 1.343-3 3s1.343 3 3 3h6.948c1.657 0 3-1.343 3-3s-1.342-3-3-3z"/></g><path fill="none" d="M86-61h-172v122h172z"/></symbol><symbol id="p" viewBox="-86 -61 172 122"><g><path d="M-9.937-33.664c-1.847.01-3.691.39-5.441 1.139-7.105 3.042-10.412 11.298-7.37 18.404l2.771 6.47 3.368 7.38c.688 1.507 2.464 2.175 3.975 1.482 1.507-.688 2.171-2.468 1.483-3.975l-3.339-7.314-2.741-6.404c-1.739-4.064.152-8.787 4.216-10.527 4.066-1.742 8.787.153 10.525 4.217l8.798 20.551c.652 1.522 2.418 2.229 3.938 1.577 1.523-.652 2.229-2.416 1.577-3.938l-8.797-20.553c-1.474-3.442-4.199-6.104-7.675-7.497-1.709-.685-3.5-1.022-5.288-1.012zM-6.786-16.04c-.389.002-.784.08-1.164.242-1.523.653-2.229 2.417-1.578 3.939l4.985 11.646c.651 1.521 2.415 2.228 3.939 1.578 1.523-.653 2.229-2.417 1.578-3.939l-4.985-11.646c-.489-1.142-1.605-1.826-2.775-1.82zM-42.189-15.03c-1.657.009-2.993 1.358-2.984 3.016s1.359 2.993 3.016 2.984c4.593-.024 8.35 3.692 8.374 8.285.024 4.595-3.693 8.353-8.286 8.377-1.657.009-2.993 1.359-2.984 3.017s1.359 2.992 3.016 2.983c7.901-.042 14.296-6.506 14.254-14.408-.042-7.902-6.505-14.296-14.406-14.254z"/><path fill-rule="evenodd" clip-rule="evenodd" fill="#fff" d="M31.521-.426l-61.146.325"/><path d="M31.505-3.426l-61.146.325c-1.657.009-2.993 1.358-2.984 3.016s1.359 2.993 3.016 2.984l61.146-.325c1.657-.009 2.993-1.359 2.984-3.017s-1.358-2.992-3.016-2.983z"/><path fill-rule="evenodd" clip-rule="evenodd" d="M45.945 9.497"/></g><path fill="none" d="M86-61h-172v122h172z"/></symbol><symbol id="q" viewBox="-86 -61 172 122"><g><path d="M-43.602-14.856l-7.239.039c-1.657.009-2.993 1.358-2.984 3.016s1.358 2.993 3.016 2.984l7.239-.039c4.593-.024 8.35 3.693 8.374 8.286.025 4.595-3.693 8.353-8.286 8.377l-7.435.039c-1.657.009-2.993 1.359-2.984 3.017s1.359 2.992 3.016 2.983l7.436-.039c7.901-.042 14.295-6.506 14.253-14.409-.042-7.902-6.505-14.296-14.406-14.254zM48.499-15.346l-7.436.039c-7.901.042-14.295 6.506-14.253 14.41.042 7.901 6.505 14.296 14.406 14.254l7.239-.038c1.657-.009 2.993-1.359 2.984-3.017s-1.358-2.992-3.016-2.983l-7.239.038c-4.593.024-8.35-3.693-8.374-8.285-.024-4.595 3.693-8.354 8.286-8.378l7.435-.039c1.657-.009 2.993-1.358 2.984-3.016s-1.359-2.993-3.016-2.985zM-1.629-36.714c-7.729.042-13.984 6.363-13.943 14.093l.119 22.355c.009 1.657 1.359 2.993 3.016 2.984s2.993-1.358 2.984-3.016l-.119-22.356c-.023-4.421 3.554-8.037 7.975-8.061 4.42-.023 8.036 3.555 8.059 7.976l.119 22.356c.009 1.657 1.358 2.993 3.016 2.985s2.993-1.358 2.984-3.016l-.119-22.356c-.041-7.73-6.362-13.985-14.091-13.944z"/><path fill-rule="evenodd" clip-rule="evenodd" fill="#fff" d="M29.575-.249l-60.638.322"/><path d="M29.559-3.249l-60.638.322c-1.644.009-2.968 1.358-2.959 3.016s1.347 2.993 2.991 2.984l60.639-.322c1.643-.009 2.968-1.358 2.959-3.016s-1.348-2.993-2.992-2.984z"/><path fill-rule="evenodd" clip-rule="evenodd" d="M44.532 9.672"/><path d="M-1.288-18.413c-1.657.009-2.993 1.358-2.984 3.016l.068 12.667c.009 1.657 1.358 2.993 3.016 2.984s2.993-1.359 2.984-3.017l-.067-12.666c-.009-1.657-1.359-2.993-3.017-2.984z"/></g><path fill="none" d="M86-61h-172v122h172z"/></symbol><symbol id="r" viewBox="-86 -61 172 122"><path fill-rule="evenodd" clip-rule="evenodd" d="M-1.178-46.801c6.533-.035 11.707 5.232 11.741 11.765l.041 7.763.091 24.246c.034 6.532-5.233 11.856-11.766 11.89-6.533.035-11.856-5.232-11.891-11.764l.059-24.451-.041-7.558c-.035-6.532 5.233-11.857 11.766-11.891z"/><path fill="none" d="M86-61h-172v122h172z"/></symbol><symbol id="s" viewBox="-86 -61 172 122"><g><path d="M25.834-15.539l-53.009.282c-8.176.043-14.793 6.731-14.749 14.907.043 8.176 6.73 14.793 14.906 14.749l53.01-.281c8.176-.044 14.792-6.731 14.749-14.907-.044-8.176-6.731-14.793-14.907-14.75zm-52.883 23.939c-4.868.025-8.85-3.913-8.875-8.781-.026-4.868 3.913-8.851 8.781-8.876l53.009-.282c4.868-.025 8.849 3.914 8.875 8.782.025 4.868-3.913 8.85-8.781 8.875l-53.009.282zM-17.281-3.065c-3.925.021-7.101 3.231-7.08 7.156l.035 6.497c.009 1.657 1.358 2.992 3.016 2.983s2.992-1.358 2.984-3.016l-.035-6.497c-.003-.616.496-1.12 1.112-1.124.616-.003 1.121.496 1.124 1.112l.035 6.497c.008 1.657 1.358 2.993 3.016 2.984s2.992-1.359 2.983-3.017l-.034-6.497c-.021-3.923-3.231-7.099-7.156-7.078zM16.719-3.246c-3.925.021-7.102 3.231-7.08 7.156l.034 6.497c.009 1.657 1.358 2.992 3.016 2.983s2.993-1.358 2.984-3.016l-.034-6.497c-.004-.616.496-1.121 1.112-1.124s1.12.496 1.124 1.112l.034 6.497c.009 1.657 1.358 2.993 3.016 2.983 1.657-.009 2.993-1.358 2.984-3.016l-.034-6.497c-.021-3.923-3.231-7.099-7.156-7.078zM-.281-3.155c-3.925.02-7.101 3.23-7.08 7.155l.034 6.497c.009 1.657 1.359 2.993 3.017 2.984s2.992-1.358 2.983-3.016l-.034-6.497c-.004-.616.496-1.121 1.112-1.124.616-.004 1.12.496 1.124 1.111l.034 6.497c.009 1.657 1.358 2.993 3.017 2.984 1.656-.009 2.992-1.358 2.983-3.016l-.034-6.495c-.021-3.925-3.231-7.102-7.156-7.08z"/></g><path fill="none" d="M86-61h-172v122h172z"/></symbol><symbol id="t" viewBox="-86 -61 172 122"><g><path d="M16.969-27.39c-3.096.017-6.095 1.139-8.445 3.156-3.403 2.926-6.641 4.38-9.896 4.443-3.168-.029-6.421-1.449-9.855-4.337-2.372-1.994-5.383-3.084-8.479-3.067-3.846.021-7.469 1.719-9.94 4.659-2.248 2.672-3.32 6.059-3.02 9.539.3 3.479 1.938 6.632 4.61 8.88 8.256 6.943 17.22 10.486 26.643 10.536l.24.002h.046l.16-.004c9.422-.15 18.348-3.788 26.529-10.817 5.469-4.698 6.096-12.969 1.398-18.437-2.504-2.913-6.146-4.573-9.991-4.553zm-18.31 13.6c4.728-.092 9.334-2.075 13.775-5.893 1.271-1.092 2.893-1.698 4.566-1.707 2.082-.011 4.054.887 5.407 2.464 2.542 2.957 2.203 7.432-.757 9.974-7.121 6.12-14.803 9.273-22.83 9.371h-.085c-8.026-.012-15.741-3.083-22.931-9.127-1.445-1.216-2.331-2.923-2.494-4.806-.162-1.882.418-3.714 1.634-5.16 1.338-1.591 3.299-2.51 5.381-2.521 1.674-.009 3.302.58 4.584 1.659 4.546 3.823 9.043 5.703 13.75 5.746zM17.026-17.316c-.688.004-1.377.242-1.938.725-17.537 15.068-32.641.921-33.274.311-1.193-1.146-3.092-1.111-4.242.085-1.147 1.194-1.109 3.093.085 4.242 6.733 6.47 24.039 14.779 41.343-.086 1.256-1.08 1.399-2.975.319-4.231-.597-.696-1.443-1.05-2.293-1.046z"/></g><path fill="none" d="M86-61h-172v122h172z"/></symbol><symbol id="u" viewBox="-86 -61 172 122"><path d="M-9.896-36.333c-6.104 0-11.069 4.966-11.069 11.07v22.97c0 1.657 1.343 3 3 3s3-1.343 3-3v-22.97c0-2.796 2.274-5.07 5.069-5.07 2.796 0 5.07 2.274 5.07 5.07v22.97c0 1.657 1.343 3 3 3s3-1.343 3-3v-22.97c.001-6.104-4.965-11.07-11.07-11.07zM6.753-36.333c-6.104 0-11.07 4.966-11.07 11.07v22.97c0 1.657 1.343 3 3 3s3-1.343 3-3v-22.97c0-2.796 2.274-5.07 5.07-5.07s5.07 2.274 5.07 5.07v22.97c0 1.657 1.343 3 3 3s3-1.343 3-3v-22.97c0-6.104-4.966-11.07-11.07-11.07z"/><path fill-rule="evenodd" clip-rule="evenodd" fill="#fff" d="M27.665-.16h-58.455"/><path d="M27.665-3.16h-58.455c-1.566 0-2.835 1.343-2.835 3s1.269 3 2.835 3h58.455c1.566 0 2.835-1.343 2.835-3s-1.269-3-2.835-3zM36.923-10.753c-2.916 0-5.831 1.109-8.05 3.329-4.018 4.016-4.399 10.313-1.146 14.765-3.253 4.453-2.87 10.749 1.146 14.765 2.149 2.149 5.008 3.333 8.049 3.333h.002c3.041 0 5.9-1.185 8.051-3.334 1.172-1.172 1.172-3.071.001-4.243-1.172-1.172-3.071-1.171-4.243-.001-1.018 1.018-2.37 1.578-3.81 1.578h-.001c-1.438 0-2.79-.56-3.806-1.576-2.101-2.1-2.101-5.517 0-7.617l.782-.78c.563-.563.881-1.326.881-2.123s-.316-1.561-.88-2.124l-.785-.784c-2.099-2.099-2.099-5.516.001-7.614 2.1-2.1 5.516-2.1 7.617.001 1.172 1.17 3.071 1.171 4.243-.001 1.171-1.172 1.171-3.071-.001-4.243-2.219-2.221-5.136-3.331-8.051-3.331z"/><path fill-rule="evenodd" clip-rule="evenodd" fill="#fff" d="M31.779 7.341h6.047"/><path d="M37.826 4.341h-6.047c-1.657 0-3 1.343-3 3s1.343 3 3 3h6.047c1.657 0 3-1.343 3-3s-1.343-3-3-3zM-39.701-11.258h-.002c-3.041 0-5.9 1.185-8.051 3.334-1.172 1.172-1.172 3.071-.001 4.243 1.172 1.172 3.071 1.171 4.243.001 1.018-1.018 2.37-1.578 3.81-1.578h.001c1.438 0 2.79.56 3.806 1.576 2.101 2.1 2.101 5.517 0 7.617l-.782.78c-.563.563-.881 1.326-.881 2.123s.316 1.561.88 2.124l.785.784c2.099 2.099 2.099 5.516-.001 7.614-2.101 2.101-5.517 2.101-7.617-.001-1.172-1.17-3.071-1.171-4.243.001-1.171 1.172-1.171 3.071.001 4.243 4.44 4.438 11.665 4.438 16.102 0 4.018-4.016 4.399-10.313 1.146-14.765 3.253-4.453 2.87-10.749-1.146-14.765-2.151-2.147-5.009-3.331-8.05-3.331z"/><path fill-rule="evenodd" clip-rule="evenodd" fill="#fff" d="M-34.559 6.84h-6.046"/><path d="M-34.559 3.84h-6.047c-1.657 0-3 1.343-3 3s1.343 3 3 3h6.047c1.657 0 3-1.343 3-3s-1.342-3-3-3z"/><path fill="none" d="M86-61h-172v122h172z"/></symbol><symbol id="v" viewBox="-86 -61 172 122"><path d="M24.654-26.839c-2.745 0-5.468 1.19-7.327 3.485l-6.371 7.869c-1.043 1.287-.845 3.177.443 4.219 1.285 1.045 3.176.846 4.219-.443l6.372-7.868c1.184-1.462 3.34-1.689 4.804-.505.711.575 1.153 1.391 1.249 2.299.096.907-.169 1.797-.743 2.506l-6.37 7.867c-1.043 1.288-.845 3.177.442 4.22 1.288 1.044 3.176.844 4.22-.442l6.371-7.868c1.583-1.954 2.311-4.408 2.047-6.91-.263-2.501-1.484-4.75-3.439-6.334-1.74-1.409-3.835-2.095-5.917-2.095zM-27.305-26.839c-2.082 0-4.177.686-5.917 2.095-1.954 1.583-3.176 3.832-3.438 6.333-.264 2.502.464 4.956 2.048 6.911l6.37 7.867c1.042 1.286 2.932 1.486 4.22.442 1.287-1.043 1.485-2.932.442-4.22l-6.369-7.866c-.575-.71-.84-1.6-.744-2.507.096-.908.538-1.724 1.248-2.298 1.464-1.188 3.62-.959 4.806.505l6.371 7.867c1.042 1.289 2.93 1.488 4.219.443 1.288-1.042 1.486-2.932.443-4.219l-6.37-7.868c-1.861-2.293-4.584-3.485-7.329-3.485zM-1.713-19.691c-18.542 0-33.627 15.089-33.627 33.635 0 1.657 1.343 3 3 3s3-1.343 3-3c0-15.238 12.394-27.635 27.627-27.635 15.235 0 27.63 12.396 27.63 27.635 0 1.657 1.343 3 3 3s3-1.343 3-3c0-18.547-15.086-33.635-33.63-33.635z"/><path fill="none" d="M86-61h-172v122h172z"/></symbol><symbol id="w" viewBox="-86 -61 172 122"><path d="M26.679-1.399c-.887 0-1.765.391-2.357 1.141-4.268 5.404-12.173 12.987-16.43 12.987h-.039c-2.641-.029-5.768-2.732-6.655-3.677-.549-.583-1.306-.924-2.105-.946-.807-.031-1.575.277-2.153.829-3.449 3.292-4.917 4.003-8.263 4.003-4.774 0-12.539-8.052-16.313-13.128-.989-1.33-2.868-1.604-4.196-.619-1.33.987-1.608 2.865-.621 4.195 1.181 1.592 11.807 15.552 21.13 15.552 4.522 0 7.275-1.233 10.344-3.802 2.03 1.594 5.236 3.553 8.766 3.592 1.509-.018 9.705-.635 21.246-15.271 1.026-1.301.803-3.186-.497-4.212-.552-.434-1.207-.644-1.857-.644zM-9.673-15.833c-10.257 0-15.158 2.228-22.236 14.748-.525.929-.518 2.066.021 2.988.537.922 1.523 1.488 2.591 1.488h55.25c1.047 0 2.018-.545 2.562-1.439.545-.894.584-2.006.104-2.937-7.316-14.178-13.354-14.744-27.512-14.744l-2.097.001c-1.794 0-3.438-.03-4.953-.059-1.332-.024-2.571-.046-3.73-.046zm-14.263 13.225c4.714-6.904 8.008-7.225 14.263-7.225 1.125 0 2.326.022 3.62.046 1.55.028 3.229.06 5.063.06l2.097-.001c10.916 0 15.027 0 19.677 7.12h-44.72z"/><path fill="none" d="M86-61h-172v122h172z"/></symbol><symbol id="x" viewBox="-86 -61 172 122"><path d="M8.362-19.948h-17.666c-11.579 0-21 9.422-21 21.002 0 11.579 9.421 21 21 21h17.666c11.579 0 21-9.422 21-21.002 0-11.579-9.421-21-21-21zm-17.666 36.002c-8.271 0-15-6.729-15-15 0-8.272 6.729-15.002 15-15.002h17.666c8.271 0 15 6.729 15 15 0 8.272-6.729 15.002-15 15.002h-17.666zM10.529-2.385h-22c-1.657 0-3 1.343-3 3s1.343 3 3 3h22c1.657 0 3-1.343 3-3s-1.342-3-3-3z"/><path fill="none" d="M86-61h-172v122h172z"/></symbol><symbol id="y" viewBox="-86 -61 172 122"><path d="M1.29 20.37c-18.544 0-33.63-15.089-33.63-33.635 0-1.657 1.343-3 3-3h10.359c1.59-4.479 5.858-7.702 10.876-7.702 3.534 0 6.698 1.6 8.818 4.108 2.12-2.509 5.284-4.108 8.818-4.108 5.019 0 9.287 3.223 10.878 7.702h11.507c1.657 0 3 1.343 3 3 .001 18.546-15.084 33.635-33.626 33.635zm-9.394-38.337c-3.06 0-5.549 2.489-5.549 5.55v22.378c3.289 2.125 7.054 3.569 11.099 4.136v-26.514c-.001-3.061-2.49-5.55-5.55-5.55zm17.636 0c-3.06 0-5.549 2.489-5.549 5.55v26.654c4.013-.391 7.772-1.646 11.1-3.573v-23.081c0-3.061-2.49-5.55-5.551-5.55z"/><path fill="none" d="M86-61h-172v122h172z"/></symbol><symbol id="z" viewBox="-86 -61 172 122"><path d="M-17.285-16.99c-5.192 0-9.416 4.225-9.416 9.417v10.123c0 1.657 1.343 3 3 3s3-1.343 3-3v-10.123c0-1.884 1.532-3.417 3.416-3.417s3.416 1.533 3.416 3.417v10.123c0 1.657 1.343 3 3 3s3-1.343 3-3v-10.123c0-5.193-4.224-9.417-9.416-9.417zM-4.049-16.99c-5.192 0-9.416 4.225-9.416 9.417v10.123c0 1.657 1.343 3 3 3s3-1.343 3-3v-10.123c0-1.884 1.532-3.417 3.416-3.417s3.417 1.533 3.417 3.417v10.123c0 1.657 1.343 3 3 3s3-1.343 3-3v-10.123c0-5.193-4.224-9.417-9.417-9.417zM8.358-16.99c-5.192 0-9.416 4.225-9.416 9.417v10.123c0 1.657 1.343 3 3 3s3-1.343 3-3v-10.123c0-1.884 1.532-3.417 3.416-3.417s3.417 1.533 3.417 3.417v10.123c0 1.657 1.343 3 3 3s3-1.343 3-3v-10.123c0-5.193-4.224-9.417-9.417-9.417z"/><path fill-rule="evenodd" clip-rule="evenodd" fill="#fff" d="M-28.667 3.471h60.001"/><path d="M31.334.471h-60.001c-1.657 0-3 1.343-3 3s1.343 3 3 3h60.001c1.657 0 3-1.343 3-3s-1.343-3-3-3z"/><path fill="none" d="M86-61h-172v122h172z"/></symbol><symbol id="A" viewBox="-86 -61 172 122"><path d="M12.207-8.573h-27.273c-1.657 0-3 1.342-3 3 0 9.168 7.459 16.627 16.628 16.627 9.039 0 16.416-7.25 16.621-16.244l.023-.383c.001-1.658-1.342-3-2.999-3zm-23.842 6h20.392c-1.298 4.404-5.377 7.627-10.195 7.627-4.819 0-8.899-3.223-10.197-7.627zM-1.438-7.707c-1.657 0-3 1.343-3 3v9.761c0 1.657 1.343 3 3 3s3-1.343 3-3v-9.761c.001-1.657-1.343-3-3-3z"/><path fill="none" d="M86-61h-172v122h172z"/></symbol><symbol id="B" viewBox="-86 -61 172 122"><path fill-rule="evenodd" clip-rule="evenodd" d="M25.303 12.369h-53.01c-6.532 0-11.828-5.295-11.828-11.828s5.296-11.829 11.828-11.829h15.488v17.773h22.033v-17.774h15.488c6.532 0 11.828 5.296 11.828 11.829s-5.295 11.829-11.827 11.829z"/><path d="M-1.202-29.889c-7.729 0-14.018 6.288-14.018 14.018v22.356c0 1.657 1.343 3 3 3s3-1.343 3-3v-22.356c0-4.421 3.597-8.018 8.018-8.018 4.42 0 8.017 3.597 8.017 8.018v22.356c0 1.657 1.343 3 3 3s3-1.343 3-3v-22.356c-.001-7.73-6.289-14.018-14.017-14.018zM-.958-11.587c-1.657 0-3 1.343-3 3v16.667c0 1.657 1.343 3 3 3s3-1.343 3-3v-16.667c0-1.657-1.343-3-3-3z"/><path fill="none" d="M86-61h-172v122h172z"/></symbol><symbol id="C" viewBox="-86 -61 172 122"><path d="M39.886-18.915c-6.104 0-11.07 4.965-11.07 11.07v10.969c0 1.658 1.343 3 3 3s3-1.342 3-3v-10.969c0-2.797 2.274-5.07 5.07-5.07 2.795 0 5.069 2.273 5.069 5.07v10.969c0 1.658 1.343 3 3 3s3-1.342 3-3v-10.969c0-6.105-4.966-11.07-11.069-11.07zM31.875-5.913c-1.657 0-3 1.344-3 3v10.971c0 2.795-2.274 5.07-5.07 5.07s-5.07-2.275-5.07-5.07v-10.971c0-1.656-1.343-3-3-3s-3 1.344-3 3v10.971c0 6.104 4.966 11.07 11.07 11.07s11.07-4.967 11.07-11.07v-10.971c0-1.656-1.343-3-3-3zM7.625-18.915c-6.104 0-11.07 4.965-11.07 11.07v10.969c0 1.658 1.343 3 3 3s3-1.342 3-3v-10.969c0-2.797 2.274-5.07 5.07-5.07s5.07 2.273 5.07 5.07v10.969c0 1.658 1.343 3 3 3s3-1.342 3-3v-10.969c0-6.105-4.966-11.07-11.07-11.07zM-.458-5.913c-1.657 0-3 1.344-3 3v10.971c0 2.795-2.274 5.07-5.07 5.07s-5.07-2.275-5.07-5.07v-10.971c0-1.656-1.343-3-3-3s-3 1.344-3 3v10.971c0 6.104 4.966 11.07 11.07 11.07s11.07-4.967 11.07-11.07v-10.971c0-1.656-1.343-3-3-3zM-24.708-18.915c-6.104 0-11.07 4.965-11.07 11.07v10.969c0 1.658 1.343 3 3 3s3-1.342 3-3v-10.969c0-2.797 2.274-5.07 5.07-5.07s5.07 2.273 5.07 5.07v10.969c0 1.658 1.343 3 3 3s3-1.342 3-3v-10.969c0-6.105-4.966-11.07-11.07-11.07zM-32.727-5.913c-1.657 0-3 1.344-3 3v10.971c0 2.795-2.274 5.07-5.07 5.07s-5.07-2.275-5.07-5.07v-10.971c0-1.656-1.343-3-3-3s-3 1.344-3 3v10.971c0 6.104 4.966 11.07 11.07 11.07s11.07-4.967 11.07-11.07v-10.971c0-1.656-1.342-3-3-3z"/><path fill-rule="evenodd" clip-rule="evenodd" d="M6.972-19.647"/><path fill="none" d="M86-61h-172v122h172z"/></symbol><symbol id="D" viewBox="-86 -61 172 122"><path d="M19.076-2.885h-37c-1.657 0-3 1.343-3 3s1.343 3 3 3h37c1.657 0 3-1.343 3-3s-1.343-3-3-3z"/><path fill="none" d="M86-61h-172v122h172z"/></symbol><symbol id="E" viewBox="-86 -61 172 122"><path d="M-18.115-11.912c-4.818 0-8.738 3.92-8.738 8.738v9.054c0 1.657 1.343 3 3 3s3-1.343 3-3v-9.054c0-1.51 1.229-2.738 2.738-2.738 1.511 0 2.74 1.229 2.74 2.738v9.054c0 1.657 1.343 3 3 3s3-1.343 3-3v-9.054c0-4.818-3.921-8.738-8.74-8.738zM13.911-11.912c-4.817 0-8.736 3.92-8.736 8.738v9.054c0 1.657 1.343 3 3 3s3-1.343 3-3v-9.054c0-1.51 1.228-2.738 2.736-2.738 1.511 0 2.74 1.229 2.74 2.738v9.054c0 1.657 1.343 3 3 3s3-1.343 3-3v-9.054c0-4.818-3.921-8.738-8.74-8.738z"/><path fill-rule="evenodd" clip-rule="evenodd" fill="#fff" d="M35.389 6.194h-68.667"/><path d="M31.536 3.194h-64.976c-1.568 0-2.839 1.343-2.839 3s1.271 3 2.839 3h64.976c1.568 0 2.839-1.343 2.839-3s-1.271-3-2.839-3z"/><path fill-rule="evenodd" clip-rule="evenodd" d="M42.539 16.194"/><path d="M41.207-8.14c-.831 0-1.657.343-2.251 1.016l-10 11.334c-1.048 1.188-.991 2.985.129 4.105l10 10c1.172 1.172 3.07 1.172 4.242 0 1.172-1.171 1.172-3.071 0-4.242l-8.007-8.008 8.136-9.221c1.096-1.242.978-3.138-.266-4.234-.57-.503-1.278-.75-1.983-.75zM-44.129-8.14c-.705 0-1.413.247-1.983.75-1.243 1.097-1.361 2.992-.266 4.234l8.136 9.221-8.007 8.008c-1.172 1.171-1.172 3.071 0 4.242 1.172 1.172 3.07 1.172 4.242 0l10-10c1.12-1.12 1.177-2.918.129-4.105l-10-11.334c-.594-.673-1.42-1.016-2.251-1.016z"/><path fill="none" d="M86-61h-172v122h172z"/></symbol><symbol id="F" viewBox="-86 -61 172 122"><path d="M-7.086-10.278c-4.818 0-8.738 3.92-8.738 8.738v9.054c0 1.657 1.343 3 3 3s3-1.343 3-3v-9.054c0-1.51 1.229-2.738 2.738-2.738 1.511 0 2.74 1.229 2.74 2.738v9.054c0 1.657 1.343 3 3 3s3-1.343 3-3v-9.054c0-4.818-3.921-8.738-8.74-8.738zM4.26-10.278c-4.817 0-8.736 3.92-8.736 8.738v9.054c0 1.657 1.343 3 3 3s3-1.343 3-3v-9.054c0-1.51 1.228-2.738 2.736-2.738 1.511 0 2.74 1.228 2.74 2.738v9.054c0 1.657 1.343 3 3 3s3-1.343 3-3v-9.054c0-4.818-3.921-8.738-8.74-8.738z"/><path fill-rule="evenodd" clip-rule="evenodd" fill="#fff" d="M-22.203 8.435h41.332"/><path d="M19.129 5.435h-41.332c-1.657 0-3 1.343-3 3s1.343 3 3 3h41.332c1.657 0 3-1.343 3-3s-1.343-3-3-3z"/><path fill="none" d="M86-61h-172v122h172z"/></symbol><symbol id="G" viewBox="-86 -61 172 122"><path fill-rule="evenodd" clip-rule="evenodd" d="M-1.068 2.891"/><path d="M43.087-13.907h-88.307c-1.054 0-2.029.553-2.572 1.456-.542.903-.571 2.024-.075 2.954 9.238 17.348 27.171 28.124 46.797 28.124 19.632 0 37.566-10.776 46.805-28.124.496-.93.467-2.051-.075-2.954-.544-.903-1.519-1.456-2.573-1.456zm-82.994 6h77.682c-8.706 12.781-23.166 20.534-38.845 20.534-15.674 0-30.132-7.753-38.837-20.534zM-1.068-11.04c-1.657 0-3 1.343-3 3v23.667c0 1.657 1.343 3 3 3s3-1.343 3-3v-23.667c0-1.657-1.343-3-3-3zM18.265-11.04c-1.657 0-3 1.259-3 2.813v18.75c0 1.554 1.343 2.813 3 2.813s3-1.259 3-2.813v-18.75c0-1.554-1.343-2.813-3-2.813zM31.599-11.04c-1.657 0-3 1.343-3 3v11.333c0 1.657 1.343 3 3 3s3-1.343 3-3v-11.333c0-1.657-1.343-3-3-3zM-20.399-11.04c-1.657 0-3 1.266-3 2.827v18.846c0 1.562 1.343 2.827 3 2.827s3-1.266 3-2.827v-18.846c0-1.561-1.343-2.827-3-2.827zM-33.066-11.04c-1.657 0-3 1.343-3 3v12c0 1.657 1.343 3 3 3s3-1.343 3-3v-12c0-1.657-1.343-3-3-3z"/><path fill="none" d="M86-61h-172v122h172z"/></symbol><symbol id="H" viewBox="-86 -61 172 122"><path d="M-31.008 5.976c-5.42 0-9.83 4.409-9.83 9.829v6.699c0 1.657 1.343 3 3 3s3-1.343 3-3v-6.699c0-2.111 1.718-3.829 3.83-3.829 2.11 0 3.828 1.718 3.828 3.829v6.699c0 1.657 1.343 3 3 3s3-1.343 3-3v-6.699c0-5.42-4.409-9.829-9.828-9.829zM30.326 5.976c-5.42 0-9.83 4.409-9.83 9.829v6.699c0 1.657 1.343 3 3 3s3-1.343 3-3v-6.699c0-2.111 1.718-3.829 3.83-3.829 2.11 0 3.828 1.718 3.828 3.829v6.699c0 1.657 1.343 3 3 3s3-1.343 3-3v-6.699c0-5.42-4.409-9.829-9.828-9.829z"/><path fill-rule="evenodd" clip-rule="evenodd" d="M39.958 10.575"/><path fill="none" d="M86-61h-172v122h172z"/><path d="M30.326 5.976c-1.287 0-2.514.256-3.642.707-2.389-12.458-13.357-21.906-26.501-21.906-13.301 0-24.379 9.671-26.591 22.347-1.374-.73-2.938-1.148-4.6-1.148-.444 0-.878.04-1.307.098 2.711-15.486 16.246-27.296 32.497-27.296 16.323 0 29.905 11.916 32.53 27.504-.765-.193-1.562-.306-2.386-.306z"/></symbol><symbol id="I" viewBox="-86 -61 172 122"><path d="M-6.449-11.472l-.377.023.377 2.977-.396-2.974-.231.03c-1.48.209-2.581 1.476-2.581 2.971v6.824c0 2.25-1.83 4.08-4.08 4.08s-4.08-1.83-4.08-4.08v-2.584c0-1.027-.525-1.982-1.393-2.533-.868-.55-1.956-.618-2.886-.181-10.294 4.847-18.91 13.049-24.261 23.096-.496.93-.467 2.051.075 2.954.543.903 1.519 1.456 2.572 1.456h88.31c1.054 0 2.029-.553 2.572-1.456.542-.903.571-2.024.075-2.954-5.279-9.911-13.755-18.049-23.866-22.913-.93-.447-2.023-.387-2.897.163-.873.549-1.403 1.509-1.403 2.54v2.413c0 2.25-1.83 4.08-4.08 4.08s-4.08-1.83-4.08-4.08v-6.766c0-1.481-1.082-2.742-2.547-2.966l-.209-.033c-.867-.13-1.745.12-2.407.689-.664.57-1.046 1.401-1.046 2.276v6.799c0 2.25-1.83 4.08-4.08 4.08s-4.08-1.83-4.08-4.08v-6.852c0-.861-.37-1.681-1.017-2.251-.552-.484-1.259-.748-1.984-.748zm-31.939 26.06c3.864-5.645 8.954-10.431 14.827-13.938 1.033 4.469 5.045 7.81 9.822 7.81 2.81 0 5.354-1.156 7.185-3.017 1.83 1.86 4.375 3.017 7.185 3.017s5.354-1.156 7.185-3.017c1.83 1.861 4.374 3.017 7.184 3.017 4.709 0 8.675-3.246 9.776-7.618 5.731 3.488 10.707 8.206 14.501 13.746h-77.665z"/><path fill="none" d="M86-61h-172v122h172z"/></symbol><symbol id="J" viewBox="-86 -61 172 122"><path d="M-25.714-14.652c-.892-.001-1.797.137-2.69.427-4.583 1.489-7.1 6.429-5.611 11.011l2.796 8.609c.513 1.577 2.208 2.437 3.779 1.928 1.576-.512 2.439-2.204 1.928-3.779l-2.796-8.611c-.467-1.437.321-2.984 1.758-3.45 1.437-.467 2.984.322 3.451 1.76l2.796 8.61c.513 1.576 2.208 2.436 3.78 1.927 1.576-.512 2.438-2.205 1.927-3.78l-2.796-8.609c-1.199-3.692-4.635-6.043-8.322-6.043zM-6.34-17.576c-.892-.001-1.797.137-2.69.427-4.583 1.489-7.1 6.429-5.611 11.011l1.779 6.504c.513 1.577 2.208 2.436 3.779 1.928 1.576-.512 3.456-.099 2.944-1.674l-2.796-8.611c-.467-1.437.321-2.984 1.758-3.45 1.435-.467 2.984.322 3.451 1.76l2.796 8.61c.513 1.576 2.208 2.435 3.78 1.927 1.576-.512 2.438-2.205 1.927-3.78l-2.796-8.609c-1.198-3.692-4.634-6.043-8.321-6.043zM.389-2.413c-.779 0-1.57.008-2.375.026-24.924.554-36.682 12.196-37.171 12.691-1.163 1.18-1.149 3.079.03 4.243 1.178 1.16 3.069 1.149 4.233-.021.104-.104 10.713-10.419 33.04-10.915 28.265-.627 38.476 10.659 38.574 10.773 1.092 1.249 2.988 1.374 4.233.284 1.247-1.091 1.374-2.986.284-4.233-.469-.538-11.581-12.848-40.848-12.848z"/><path fill-rule="evenodd" clip-rule="evenodd" fill="#fff" d="M35.576 20.434l11-11"/><path d="M46.576 6.434c-.768 0-1.535.293-2.121.879l-11 11c-1.172 1.171-1.172 3.071 0 4.242 1.172 1.172 3.07 1.172 4.242 0l11-11c1.172-1.171 1.172-3.071 0-4.242-.586-.586-1.353-.879-2.121-.879z"/><path fill-rule="evenodd" clip-rule="evenodd" fill="#fff" d="M-44.424 6.934l11 11"/><path d="M-44.424 3.934c-.768 0-1.535.293-2.121.879-1.172 1.171-1.172 3.071 0 4.242l11 11c1.172 1.172 3.07 1.172 4.242 0 1.172-1.171 1.172-3.071 0-4.242l-11-11c-.586-.586-1.353-.879-2.121-.879z"/><path fill="none" d="M86-61h-172v122h172z"/></symbol><symbol id="K" viewBox="-86 -61 172 122"><path d="M9.326-24.066c-4.818 0-8.738 3.92-8.738 8.738v9.054c0 1.657 1.343 3 3 3s3-1.343 3-3v-9.054c0-1.51 1.229-2.738 2.738-2.738 1.511 0 2.74 1.229 2.74 2.738v9.054c0 1.657 1.343 3 3 3s3-1.343 3-3v-9.054c0-4.818-3.92-8.738-8.74-8.738zM39.826-25.066c-4.817 0-8.736 3.92-8.736 8.738v9.054c0 1.657 1.343 3 3 3s3-1.343 3-3v-9.054c0-1.51 1.228-2.738 2.736-2.738 1.511 0 2.74 1.229 2.74 2.738v9.054c0 1.657 1.343 3 3 3s3-1.343 3-3v-9.054c0-4.818-3.92-8.738-8.74-8.738zM45.303-8.998h-53.01c-1.657 0-3 1.343-3 3s1.343 3 3 3h53.01c4.868 0 8.828 3.961 8.828 8.829s-3.96 8.828-8.828 8.828h-17.977c-1.657 0-3 1.343-3 3s1.343 3 3 3h17.977c8.176 0 14.828-6.652 14.828-14.828 0-8.177-6.652-14.829-14.828-14.829zM-32.674-27.234c-1.657 0-3 1.343-3 3s1.343 3 3 3c11.319 0 20.528 9.206 20.528 20.522 0 11.317-9.209 20.524-20.528 20.524-1.657 0-3 1.343-3 3s1.343 3 3 3c14.628 0 26.528-11.898 26.528-26.524 0-14.625-11.9-26.522-26.528-26.522z"/><path fill="none" d="M86-61h-172v122h172z"/></symbol><symbol id="L" viewBox="-86 -61 172 122"><path d="M-7.55-5.879c-3.041 0-5.899 1.185-8.05 3.335-2.149 2.149-3.334 5.009-3.333 8.051 0 3.042 1.185 5.9 3.335 8.051 1.172 1.172 3.07 1.172 4.242 0 1.172-1.171 1.172-3.071 0-4.242-1.017-1.018-1.577-2.37-1.577-3.81 0-1.438.56-2.791 1.576-3.807 1.017-1.018 2.369-1.578 3.808-1.578 1.439.001 2.792.561 3.81 1.578l.781.783c.563.563 1.326.88 2.122.88h.001c.796 0 1.559-.316 2.121-.879l.784-.784c2.102-2.1 5.518-2.103 7.617-.001 2.1 2.1 2.099 5.517-.001 7.617-1.172 1.171-1.172 3.071 0 4.242 1.172 1.172 3.07 1.172 4.242 0 4.439-4.439 4.44-11.663.001-16.102-4.016-4.017-10.313-4.397-14.762-1.145-1.938-1.421-4.268-2.188-6.714-2.188l-.003-.001z"/><path fill-rule="evenodd" clip-rule="evenodd" fill="#fff" d="M-.835.362v6.047"/><path d="M-.835-2.638c-1.657 0-3 1.343-3 3v6.047c0 1.657 1.343 3 3 3s3-1.343 3-3v-6.047c0-1.657-1.343-3-3-3z"/><path fill="none" d="M86-61h-172v122h172z"/></symbol><symbol id="M" viewBox="-86 -61 172 122"><path fill-rule="evenodd" clip-rule="evenodd" d="M-20.55 9.521c0-11.172 9.057-20.23 20.232-20.23 11.173 0 20.23 9.059 20.23 20.23h-40.462zM45.958 6.703"/><path fill="none" d="M86-61h-172v122h172z"/></symbol><symbol id="N" viewBox="-86 -61 172 122"><path d="M.546-19.14h-.126l-.16.004c-9.423.1-18.368 3.69-26.586 10.676-5.493 4.669-6.164 12.937-1.496 18.429 2.488 2.927 6.121 4.605 9.967 4.605 3.096 0 6.101-1.105 8.462-3.111 3.419-2.907 6.664-4.344 9.92-4.391 3.168.047 6.413 1.483 9.832 4.391 2.361 2.006 5.366 3.111 8.462 3.111 3.847 0 7.479-1.679 9.966-4.606 2.262-2.659 3.353-6.041 3.07-9.522-.282-3.48-1.903-6.643-4.563-8.904-8.22-6.986-17.165-10.577-26.587-10.677l-.161-.005zm-18.401 27.714c-2.082 0-4.049-.908-5.395-2.492-2.526-2.971-2.163-7.443.81-9.97 7.155-6.082 14.854-9.194 22.881-9.249h.085c8.026.055 15.724 3.167 22.881 9.249 1.438 1.224 2.315 2.935 2.469 4.818.152 1.883-.438 3.712-1.661 5.151-1.347 1.584-3.313 2.492-5.395 2.492-1.674 0-3.299-.598-4.575-1.684-4.525-3.845-9.013-5.748-13.719-5.817-4.728.068-9.344 2.026-13.806 5.819-1.277 1.086-2.902 1.683-4.575 1.683zM.769-8.997c-6.36 0-13.455 2.163-20.572 8.212-1.262 1.073-1.416 2.967-.343 4.229 1.075 1.261 2.969 1.414 4.229.343 17.613-14.975 32.644-.746 33.275-.134 1.187 1.153 3.087 1.127 4.242-.063 1.154-1.188 1.126-3.087-.063-4.242-3.955-3.841-11.596-8.345-20.768-8.345z"/><path fill="none" d="M86-61h-172v122h172z"/></symbol><symbol id="O" viewBox="-86 -61 172 122"><path d="M-32.121-5.862c10.649-9.051 21.304-12.352 30.914-12.417v-.004l.078.003.079-.003v.004c9.609.065 20.264 3.366 30.914 12.417 5.282 4.491 5.926 12.415 1.434 17.697-2.483 2.922-6.017 4.423-9.571 4.423-2.875 0-5.764-.98-8.125-2.988-4.931-4.191-9.791-6.29-14.73-6.361-4.938.071-9.801 2.17-14.73 6.361-2.361 2.008-5.25 2.988-8.125 2.988-3.555 0-7.088-1.501-9.572-4.423-4.492-5.282-3.849-13.206 1.434-17.697z"/><path fill="none" d="M86-61h-172v122h172z"/></symbol><symbol id="P" viewBox="-86 -61 172 122"><path fill="none" d="M86-61h-172v122h172z"/><path d="M33.938 15.799c-2.714 3.193-6.575 4.834-10.462 4.834-3.142 0-6.299-1.072-8.879-3.266-5.39-4.582-10.702-6.875-16.101-6.954-5.397.079-10.712 2.372-16.101 6.954-2.581 2.193-5.738 3.266-8.88 3.266-3.886 0-7.748-1.641-10.463-4.834-4.907-5.773-4.205-14.434 1.569-19.343 6.713-5.706 13.427-9.309 19.923-11.357v-8.353c0-7.729 6.288-14.018 14.018-14.018 7.729 0 14.017 6.288 14.017 14.018v8.396c6.455 2.056 13.124 5.647 19.791 11.314 5.775 4.909 6.479 13.569 1.568 19.343zm-27.358-39.053c0-4.421-3.597-8.018-8.017-8.018-4.421 0-8.018 3.597-8.018 8.018v22.356h5.262v-15.072c0-1.657 1.343-3 3-3s3 1.343 3 3v15.072h4.773v-22.356z"/></symbol><symbol id="Q" viewBox="-86 -61 172 122"><path d="M29.187 16.014h-61.257c-1.657 0-3-1.343-3-3 0-11.162 5.472-21.061 13.866-27.182.329-6.075 5.361-10.922 11.517-10.922 3.534 0 6.698 1.6 8.818 4.108 2.12-2.509 5.284-4.108 8.818-4.108 6.369 0 11.551 5.182 11.551 11.55v.271c7.724 6.167 12.687 15.653 12.687 26.283 0 1.657-1.343 3-3 3zm-33.325-6.374v-23.18c0-3.061-2.489-5.55-5.55-5.55-3.06 0-5.549 2.489-5.549 5.55v23.488l-.007.065h11.144l-.038-.373zm17.638.342v-23.522c0-3.061-2.49-5.55-5.551-5.55-3.06 0-5.549 2.489-5.549 5.55v23.18l-.038.374h11.141l-.003-.032z"/><path fill="none" d="M86-61h-172v122h172z"/></symbol><symbol id="R" viewBox="-86 -61 172 122"><path d="M46.226 13.371c-.543.903-1.519 1.456-2.572 1.456h-88.31c-1.054 0-2.029-.553-2.572-1.456-.542-.903-.571-2.024-.075-2.954 9.238-17.347 27.17-28.123 46.802-28.124h.002c19.629 0 37.562 10.776 46.8 28.124.496.93.467 2.051-.075 2.954zm-82.394-8.672c-1.125 1.313-2.191 2.683-3.176 4.128h3.176v-4.128zm13.334-10.762c-2.592 1.399-5.044 3.047-7.334 4.912v9.979h7.334v-14.891zm19.333-5.546c-4.624.293-9.108 1.271-13.343 2.84l.01.088v17.508h13.333v-20.436zm32.001 9.912c-2.096-1.645-4.327-3.103-6.667-4.366v14.89h6.667v-10.524zm6 5.634v4.891h3.841c-1.177-1.727-2.466-3.354-3.841-4.891z"/><path fill="none" d="M86-61h-172v122h172z"/></symbol><symbol id="S" viewBox="-86 -61 172 122"><path d="M49.681-17.205l-100.666.282c-8.176.043-14.793 6.731-14.749 14.907.043 8.176 6.73 14.793 14.906 14.749l100.667-.281c8.176-.044 14.792-6.731 14.749-14.907-.044-8.176-6.732-14.793-14.907-14.75zm-100.54 23.939c-4.868.025-8.85-3.913-8.875-8.781-.026-4.868 3.913-8.851 8.781-8.876l100.666-.282c4.868-.025 8.849 3.914 8.875 8.782.025 4.868-3.913 8.85-8.781 8.875l-100.666.282zM-17.628-4.731c-3.925.021-7.101 3.231-7.08 7.156l.035 6.497c.009 1.657 1.358 2.992 3.016 2.983s2.992-1.358 2.984-3.016l-.035-6.497c-.003-.616.496-1.12 1.112-1.124.616-.003 1.121.496 1.124 1.112l.035 6.497c.008 1.657 1.358 2.993 3.016 2.984s2.992-1.359 2.983-3.017l-.034-6.497c-.02-3.923-3.231-7.099-7.156-7.078zM16.372-4.912c-3.925.021-7.102 3.231-7.08 7.156l.034 6.497c.009 1.657 1.358 2.992 3.016 2.983s2.993-1.358 2.984-3.016l-.034-6.497c-.004-.616.496-1.121 1.112-1.124s1.12.496 1.124 1.112l.034 6.497c.009 1.657 1.358 2.993 3.016 2.983 1.657-.009 2.993-1.358 2.984-3.016l-.034-6.497c-.021-3.923-3.231-7.099-7.156-7.078zM-.628-4.821c-3.925.021-7.101 3.23-7.08 7.155l.034 6.497c.009 1.657 1.359 2.993 3.017 2.984s2.992-1.358 2.983-3.016l-.034-6.497c-.004-.616.496-1.121 1.112-1.124.616-.004 1.12.496 1.124 1.111l.034 6.497c.009 1.657 1.358 2.993 3.017 2.984 1.656-.009 2.992-1.358 2.983-3.016l-.034-6.495c-.021-3.925-3.231-7.102-7.156-7.08z"/><path fill="none" d="M86-61h-172v122h172z"/></symbol><symbol id="T" viewBox="-86 -61 172 122"><path d="M-8.146-24.294c-5.192 0-9.416 4.225-9.416 9.417v10.123c0 1.657 1.343 3 3 3s3-1.343 3-3v-10.123c0-1.884 1.532-3.417 3.416-3.417s3.416 1.533 3.416 3.417v7.623c0 1.657 1.343 3 3 3s3-1.343 3-3v-7.623c0-5.192-4.224-9.417-9.416-9.417zM5.09-24.294c-5.192 0-9.416 4.225-9.416 9.417v7.623c0 1.657 1.343 3 3 3s3-1.343 3-3v-7.623c0-1.884 1.532-3.417 3.416-3.417s3.417 1.533 3.417 3.417v10.123c0 1.657 1.343 3 3 3s3-1.343 3-3v-10.123c0-5.192-4.225-9.417-9.417-9.417zM-2.437-8.885c-18.542 0-33.627 15.089-33.627 33.635 0 1.657 1.343 3 3 3s3-1.343 3-3c0-15.238 12.394-27.635 27.627-27.635 15.235 0 27.63 12.396 27.63 27.635 0 1.657 1.343 3 3 3s3-1.343 3-3c0-18.546-15.086-33.635-33.63-33.635z"/><path fill="none" d="M86-61h-172v122h172z"/></symbol><symbol id="U" viewBox="-86 -61 172 122"><path d="M-1.378-6.168c-9.167 0-16.625 7.459-16.625 16.628 0 1.657 1.343 3 3 3h27.253c1.657 0 3-1.343 3-3 0-9.169-7.459-16.628-16.628-16.628zm-10.194 13.628c1.298-4.404 5.377-7.628 10.194-7.628 4.819 0 8.899 3.224 10.197 7.628h-20.391z"/><path fill="none" d="M86-61h-172v122h172z"/></symbol><symbol id="V" viewBox="-86 -61 172 122"><path fill="none" d="M86-61h-172v122h172z"/><path d="M33.621 3.81c-11.639 9.893-23.285 13.5-33.789 13.571v.005l-.084-.003-.086.003v-.005c-10.504-.071-22.148-3.679-33.789-13.571-5.773-4.91-6.477-13.57-1.566-19.343 2.713-3.193 6.574-4.834 10.461-4.834 3.143 0 6.299 1.072 8.879 3.266.523.445 1.046.859 1.568 1.259l-.001.004c1.502-6.122 7.022-10.683 13.6-10.683 7.001 0 12.803 5.165 13.836 11.883l-.001-.012c1.064-.729 2.13-1.542 3.199-2.451 2.582-2.193 5.738-3.266 8.881-3.266 3.885 0 7.748 1.641 10.463 4.834 4.906 5.773 4.204 14.433-1.571 19.343zm-48.766-17.492c-.035.389-.06.78-.06 1.178.001-.397.028-.789.06-1.178zm.046-.466l.086-.565-.086.565zm21.929 1.644c0-4.421-3.597-8.018-8.017-8.018-4.421 0-8.018 3.597-8.018 8.018v22.357h5.262v-15.073c0-1.657 1.343-3 3-3s3 1.343 3 3v15.073h4.773v-22.357zm5.941-1.149c.031.38.059.762.059 1.149 0-.388-.022-.77-.059-1.149z"/></symbol><symbol id="W" viewBox="-86 -61 172 122"><path fill-rule="evenodd" clip-rule="evenodd" fill="#fff" d="M30.096-1.54h-61.864"/><path d="M37.658-12.133c-2.916 0-5.831 1.109-8.05 3.329-4.018 4.016-4.399 10.313-1.146 14.765-3.253 4.453-2.87 10.749 1.146 14.765 2.149 2.149 5.008 3.333 8.049 3.333h.002c3.041 0 5.9-1.185 8.051-3.334 1.172-1.172 1.172-3.071.001-4.243-1.172-1.172-3.071-1.171-4.243-.001-1.018 1.018-2.37 1.578-3.81 1.578h-.001c-1.438 0-2.79-.56-3.806-1.576-2.101-2.1-2.101-5.517 0-7.617l.782-.78c.563-.563.881-1.326.881-2.123s-.316-1.561-.88-2.124l-.784-.785c-2.099-2.099-2.099-5.516.001-7.614 2.1-2.1 5.516-2.099 7.617.001 1.172 1.17 3.071 1.171 4.243-.001 1.171-1.172 1.171-3.071-.001-4.243-2.22-2.219-5.137-3.33-8.052-3.33z"/><path fill-rule="evenodd" clip-rule="evenodd" fill="#fff" d="M32.515 5.961h6.047"/><path d="M38.562 2.961h-6.047c-1.657 0-3 1.343-3 3s1.343 3 3 3h6.047c1.657 0 3-1.343 3-3s-1.343-3-3-3zM-38.966-12.638h-.002c-3.041 0-5.9 1.185-8.051 3.334-1.172 1.172-1.172 3.071-.001 4.243 1.172 1.172 3.071 1.171 4.243.001 1.018-1.018 2.37-1.578 3.81-1.578h.001c1.438 0 2.79.56 3.806 1.576 2.101 2.1 2.101 5.517 0 7.617l-.782.78c-.563.563-.881 1.326-.881 2.123s.316 1.561.88 2.124l.785.784c2.099 2.099 2.099 5.516-.001 7.614-2.102 2.102-5.518 2.101-7.617-.001-1.172-1.17-3.071-1.171-4.243.001-1.171 1.172-1.171 3.071.001 4.243 4.44 4.438 11.665 4.438 16.102 0 4.018-4.016 4.399-10.313 1.146-14.765 3.253-4.453 2.87-10.749-1.146-14.765-2.15-2.147-5.009-3.331-8.05-3.331z"/><path fill-rule="evenodd" clip-rule="evenodd" fill="#fff" d="M-33.823 5.46h-6.047"/><path d="M-33.823 2.46h-6.047c-1.657 0-3 1.343-3 3s1.343 3 3 3h6.047c1.657 0 3-1.343 3-3s-1.343-3-3-3z"/><path fill="none" d="M86-61h-172v122h172z"/><path d="M7.27-4.54v-20.633c0-4.421-3.597-8.018-8.017-8.018-4.421 0-8.018 3.597-8.018 8.018v20.633h-6v-20.633c0-7.729 6.288-14.018 14.018-14.018 7.729 0 14.017 6.288 14.017 14.018v20.633h-6zM-3.503-20.043c0-1.657 1.343-3 3-3s3 1.343 3 3v15.503h-6v-15.503zM26.924-4.54c-.677 1.931-.818 4.007-.426 6h-54.422c.481-1.975.43-4.049-.156-6h55.004z"/></symbol><symbol id="X" viewBox="-86 -61 172 122"><path fill-rule="evenodd" clip-rule="evenodd" fill="#fff" d="M33.472-1.128h-64.667"/><path d="M33.472-4.128h-64.667c-1.657 0-3 1.343-3 3s1.343 3 3 3h64.667c1.657 0 3-1.343 3-3s-1.343-3-3-3z"/><path fill-rule="evenodd" clip-rule="evenodd" d="M44.622 9.087"/><path d="M43.29-15.247c-.831 0-1.657.343-2.251 1.016l-10 11.334c-1.048 1.188-.991 2.985.129 4.105l10 10c1.172 1.172 3.07 1.172 4.242 0 1.172-1.171 1.172-3.071 0-4.242l-8.007-8.008 8.136-9.221c1.096-1.242.978-3.138-.266-4.234-.57-.503-1.278-.75-1.983-.75zM-42.046-15.247c-.705 0-1.413.247-1.983.75-1.243 1.097-1.361 2.992-.266 4.234l8.136 9.221-8.007 8.008c-1.172 1.171-1.172 3.071 0 4.242 1.172 1.172 3.07 1.172 4.242 0l10-10c1.12-1.12 1.177-2.918.129-4.105l-10-11.334c-.594-.673-1.42-1.016-2.251-1.016z"/><path fill="none" d="M86-61h-172v122h172z"/></symbol><symbol id="Y" viewBox="-86 -61 172 122"><path d="M-.867-10.535c-4.818 0-8.738 3.92-8.738 8.738v9.054c0 1.657 1.343 3 3 3s3-1.343 3-3v-9.054c0-1.51 1.229-2.738 2.738-2.738 1.511 0 2.74 1.229 2.74 2.738v9.054c0 1.657 1.343 3 3 3s3-1.343 3-3v-9.054c0-4.818-3.921-8.738-8.74-8.738zM10.865-10.535c-4.818 0-8.738 3.92-8.738 8.738v9.054c0 1.657 1.343 3 3 3s3-1.343 3-3v-9.054c0-1.51 1.229-2.738 2.738-2.738 1.511 0 2.74 1.229 2.74 2.738v9.054c0 1.657 1.343 3 3 3s3-1.343 3-3v-9.054c0-4.818-3.92-8.738-8.74-8.738zM-39.973-1.769c-1.657 0-3 1.343-3 3v13.229c0 2.97-2.416 5.386-5.385 5.386s-5.385-2.416-5.385-5.386v-13.229c0-1.657-1.343-3-3-3s-3 1.343-3 3v13.229c0 6.278 5.107 11.386 11.385 11.386s11.385-5.107 11.385-11.386v-13.229c0-1.657-1.342-3-3-3zM53.25-1.769c-1.657 0-3 1.343-3 3v13.229c0 2.97-2.416 5.386-5.385 5.386-2.971 0-5.387-2.416-5.387-5.386v-13.229c0-1.657-1.343-3-3-3s-3 1.343-3 3v13.229c0 6.278 5.108 11.386 11.387 11.386 6.277 0 11.385-5.107 11.385-11.386v-13.229c0-1.657-1.343-3-3-3z"/><path fill-rule="evenodd" clip-rule="evenodd" fill="#FCFCFC" d="M-39.85 8.247h76"/><path d="M36.15 5.247h-76c-1.657 0-3 1.343-3 3s1.343 3 3 3h76c1.657 0 3-1.343 3-3s-1.342-3-3-3z"/><path fill="none" d="M86-61h-172v122h172z"/></symbol><symbol id="Z" viewBox="-86 -61 172 122"><path d="M-1.389-4.259l-.309-.003c-5.19.046-9.376 4.308-9.329 9.5l.093 10.126c.014 1.624 1.318 2.935 2.93 2.971l.098.001c1.656-.015 2.987-1.371 2.972-3.027l-.094-10.125c-.016-1.883 1.502-3.429 3.386-3.446.885.006 1.775.338 2.427.979.65.639 1.013 1.492 1.022 2.405l.093 10.122c.014 1.625 1.318 2.936 2.93 2.972l.097.001c1.657-.015 2.988-1.371 2.973-3.026l-.095-10.124c-.021-2.514-1.023-4.87-2.817-6.633-1.722-1.69-3.976-2.639-6.377-2.693zM29.146-16.335c-1.657 0-3 1.343-3 3 0 15.238-12.393 27.635-27.626 27.635-15.235 0-27.631-12.396-27.631-27.635 0-1.657-1.343-3-3-3s-3 1.343-3 3c0 18.546 15.087 33.635 33.631 33.635 18.542 0 33.627-15.089 33.627-33.635-.001-1.657-1.343-3-3.001-3z"/><path fill="none" d="M86-61h-172v122h172z"/></symbol><symbol id="aa" viewBox="-86 -61 172 122"><path d="M12.951 12.738h-18.471c-1.657 0-3 1.343-3 3s1.343 3 3 3h18.471c1.657 0 3-1.343 3-3s-1.343-3-3-3zM.518-3.342h-10.968c-6.104 0-11.07 4.966-11.07 11.07s4.966 11.07 11.07 11.07h18.468c1.657 0 3-1.343 3-3s-1.343-3-3-3h-18.468c-2.796 0-5.07-2.274-5.07-5.07s2.274-5.07 5.07-5.07h10.968c1.657 0 3-1.343 3-3s-1.343-3-3-3zM5.451-19.521h-10.971c-1.657 0-3 1.343-3 3s1.343 3 3 3h10.971c2.796 0 5.07 2.274 5.07 5.07s-2.274 5.07-5.07 5.07h-10.971c-1.657 0-3 1.343-3 3s1.343 3 3 3h10.971c6.104 0 11.07-4.966 11.07-11.07s-4.965-11.07-11.07-11.07zM.518-19.535h-18.468c-1.657 0-3 1.343-3 3s1.343 3 3 3h18.468c1.657 0 3-1.343 3-3s-1.343-3-3-3z"/><path clip-rule="evenodd" d="M17.252-9.105" fill="none"/><path d="M-.635-29.707c-1.656 0-3 1.343-3 3v49.998c0 1.657 1.344 3 3 3 1.658 0 3-1.343 3-3v-49.998c0-1.657-1.342-3-3-3z"/><path fill="none" d="M86-61h-172v122h172z"/></symbol><symbol id="ab" viewBox="-86 -61 172 122"><path fill="#FCFCFC" d="M12.608 12.289l-26.265-25.092"/><path d="M-13.844-15.797c-.728.045-1.44.354-1.983.923-1.145 1.197-1.101 3.097.098 4.241l26.267 25.091c1.196 1.145 3.096 1.102 4.241-.098 1.145-1.197 1.101-3.097-.098-4.241l-26.267-25.091c-.629-.601-1.452-.875-2.258-.825z"/><path fill="#FCFCFC" d="M-13.07 12.876l25.091-26.266"/><path d="M11.835-16.384c-.728.045-1.44.353-1.983.922l-25.091 26.267c-1.146 1.197-1.101 3.097.097 4.241 1.196 1.145 3.097 1.102 4.242-.098l25.09-26.266c1.146-1.197 1.101-3.097-.097-4.241-.629-.602-1.452-.876-2.258-.825z"/><path fill="none" d="M86-61h-172v122h172z"/></symbol><symbol id="ac" viewBox="-86 -61 172 122"><path fill-rule="evenodd" clip-rule="evenodd" d="M10.103-1.619c0-5.318-4.31-9.628-9.627-9.628-5.315 0-9.626 4.31-9.626 9.628h19.253z"/><path fill-rule="evenodd" clip-rule="evenodd" fill="#fff" d="M34.555-.045h-64.667"/><path d="M34.555-3.045h-64.667c-1.657 0-3 1.343-3 3s1.343 3 3 3h64.667c1.657 0 3-1.343 3-3s-1.343-3-3-3z"/><path fill-rule="evenodd" clip-rule="evenodd" d="M45.705 10.17"/><path d="M44.373-14.164c-.831 0-1.657.343-2.251 1.016l-10 11.334c-1.048 1.188-.991 2.985.129 4.105l10 10c1.172 1.172 3.07 1.172 4.242 0 1.172-1.171 1.172-3.071 0-4.242l-8.007-8.008 8.136-9.221c1.096-1.242.978-3.138-.266-4.234-.57-.503-1.278-.75-1.983-.75zM-40.963-14.164c-.705 0-1.413.247-1.983.75-1.243 1.097-1.361 2.992-.266 4.234l8.136 9.221-8.007 8.008c-1.172 1.171-1.172 3.071 0 4.242 1.172 1.172 3.07 1.172 4.242 0l10-10c1.12-1.12 1.177-2.918.129-4.105l-10-11.334c-.594-.673-1.42-1.016-2.251-1.016z"/><path fill="none" d="M86-61h-172v122h172z"/></symbol><symbol id="ad" viewBox="-86 -61 172 122"><path d="M17.105-6.371h-37c-1.657 0-3 1.343-3 3s1.343 3 3 3h37c1.657 0 3-1.343 3-3s-1.342-3-3-3zM-44.174-29.734c-1.657 0-3 1.343-3 3s1.343 3 3 3c11.319 0 20.528 9.206 20.528 20.522 0 11.317-9.209 20.524-20.528 20.524-1.657 0-3 1.343-3 3s1.343 3 3 3c14.628 0 26.528-11.898 26.528-26.524 0-14.625-11.9-26.522-26.528-26.522zM41.854-23.734c-11.319 0-20.528 9.206-20.528 20.522 0 11.317 9.209 20.524 20.528 20.524 1.657 0 3 1.343 3 3s-1.343 3-3 3c-13.668 0-24.952-10.389-26.374-23.684h1.625c1.657 0 3-1.343 3-3s-1.343-3-3-3h-1.584c1.568-13.141 12.775-23.363 26.333-23.363 1.657 0 3 1.343 3 3s-1.342 3.001-3 3.001z"/><path fill="none" d="M86-61h-172v122h172z"/></symbol><symbol id="ae" viewBox="-86 -61 172 122"><path d="M40.112-22.599h-82.166c-11.579 0-21 9.422-21 21.002 0 11.579 9.421 21 21 21h82.166c11.579 0 21-9.422 21-21.002 0-11.579-9.421-21-21-21zm-82.166 36.002c-8.271 0-15-6.729-15-15 0-8.272 6.729-15.002 15-15.002h82.166c8.271 0 15 6.729 15 15 0 8.272-6.729 15.002-15 15.002h-82.166zM42.279-5.035h-86.5c-1.657 0-3 1.343-3 3s1.343 3 3 3h86.5c1.657 0 3-1.343 3-3s-1.343-3-3-3z"/><path fill="none" d="M86-61h-172v122h172z"/></symbol><symbol id="af" viewBox="-86 -61 172 122"><path d="M16.415-4.842h-35.793c-1.657 0-3 1.343-3 3s1.343 3 3 3h35.793c1.657 0 3-1.343 3-3s-1.343-3-3-3zM-.938-57.855c-7.729 0-14.015 6.288-14.015 14.018v39.797c0 1.657 1.343 3 3 3s2.998-1.343 2.998-3v-39.797c0-4.421 3.597-8.018 8.018-8.018 4.42 0 8.017 3.597 8.017 8.018v39.797c0 1.657 1.343 3 3 3s3-1.343 3-3v-39.797c-.001-7.73-6.289-14.018-14.018-14.018zM-.693-39.554c-1.657 0-3 1.343-3 3v34.107c0 1.657 1.343 3 3 3s3-1.343 3-3v-34.107c0-1.657-1.343-3-3-3zM14.248 19.597h-31.459c-11.579 0-21-9.421-21-21 0-11.58 9.421-21.002 21-21.002h2.259v6h-2.259c-8.271 0-15 6.729-15 15.002 0 8.271 6.729 15 15 15h31.459c8.271 0 15-6.729 15-15.002 0-8.271-6.729-15-15-15h-1.169v-6h1.169c11.579 0 21 9.421 21 21 0 11.58-9.421 21.002-21 21.002z"/><path fill="none" d="M86-61h-172v122h172z"/></symbol><g><use xlink:href="#a" width="172" height="122" x="-86" y="-61" transform="matrix(1 0 0 -1 86 61)" overflow="visible"/><use xlink:href="#b" width="172" height="122" x="-86" y="-61" transform="matrix(1 0 0 -1 258 61)" overflow="visible"/><use xlink:href="#c" width="172" height="122" x="-86" y="-61" transform="matrix(1 0 0 -1 430 61)" overflow="visible"/><use xlink:href="#d" width="172" height="122" x="-86" y="-61" transform="matrix(1 0 0 -1 602 61)" overflow="visible"/><use xlink:href="#e" width="172" height="122" x="-86" y="-61" transform="matrix(1 0 0 -1 774 61)" overflow="visible"/><use xlink:href="#f" width="172" height="122" x="-86" y="-61" transform="matrix(1 0 0 -1 86 183)" overflow="visible"/><use xlink:href="#g" width="172" height="122" x="-86" y="-61" transform="matrix(1 0 0 -1 258 183)" overflow="visible"/><use xlink:href="#h" width="172" height="122" x="-86" y="-61" transform="matrix(1 0 0 -1 430 183)" overflow="visible"/><use xlink:href="#i" width="172" height="122" x="-86" y="-61" transform="matrix(1 0 0 -1 602 183)" overflow="visible"/><use xlink:href="#j" width="172" height="122" x="-86" y="-61" transform="matrix(1 0 0 -1 774 183)" overflow="visible"/><use xlink:href="#k" width="172" height="122" x="-86" y="-61" transform="matrix(1 0 0 -1 86 305)" overflow="visible"/><use xlink:href="#l" width="172" height="122" x="-86" y="-61" transform="matrix(1 0 0 -1 258 305)" overflow="visible"/><use xlink:href="#m" width="172" height="122" x="-86" y="-61" transform="matrix(1 0 0 -1 430 305)" overflow="visible"/><use xlink:href="#n" width="172" height="122" x="-86" y="-61" transform="matrix(1 0 0 -1 602 305)" overflow="visible"/><use xlink:href="#o" width="172" height="122" x="-86" y="-61" transform="matrix(1 0 0 -1 774 305)" overflow="visible"/><use xlink:href="#p" width="172" height="122" x="-86" y="-61" transform="matrix(1 0 0 -1 86 427)" overflow="visible"/><use xlink:href="#q" width="172" height="122" x="-86" y="-61" transform="matrix(1 0 0 -1 258 427)" overflow="visible"/><use xlink:href="#r" width="172" height="122" x="-86" y="-61" transform="matrix(1 0 0 -1 430 427)" overflow="visible"/><use xlink:href="#s" width="172" height="122" x="-86" y="-61" transform="matrix(1 0 0 -1 602 427)" overflow="visible"/><use xlink:href="#t" width="172" height="122" x="-86" y="-61" transform="matrix(1 0 0 -1 774 427)" overflow="visible"/><use xlink:href="#u" width="172" height="122" x="-86" y="-61" transform="matrix(1 0 0 -1 86 549)" overflow="visible"/><use xlink:href="#v" width="172" height="122" x="-86" y="-61" transform="matrix(1 0 0 -1 258 549)" overflow="visible"/><use xlink:href="#w" width="172" height="122" x="-86" y="-61" transform="matrix(1 0 0 -1 430 549)" overflow="visible"/><use xlink:href="#x" width="172" height="122" x="-86" y="-61" transform="matrix(1 0 0 -1 602 549)" overflow="visible"/><use xlink:href="#y" width="172" height="122" x="-86" y="-61" transform="matrix(1 0 0 -1 774 549)" overflow="visible"/><use xlink:href="#z" width="172" height="122" x="-86" y="-61" transform="matrix(1 0 0 -1 86 671)" overflow="visible"/><use xlink:href="#A" width="172" height="122" x="-86" y="-61" transform="matrix(1 0 0 -1 258 671)" overflow="visible"/><use xlink:href="#B" width="172" height="122" x="-86" y="-61" transform="matrix(1 0 0 -1 430 671)" overflow="visible"/><use xlink:href="#C" width="172" height="122" x="-86" y="-61" transform="matrix(1 0 0 -1 602 671)" overflow="visible"/><use xlink:href="#D" width="172" height="122" x="-86" y="-61" transform="matrix(1 0 0 -1 774 671)" overflow="visible"/><use xlink:href="#E" width="172" height="122" x="-86" y="-61" transform="matrix(1 0 0 -1 86 793)" overflow="visible"/><use xlink:href="#F" width="172" height="122" x="-86" y="-61" transform="matrix(1 0 0 -1 258 793)" overflow="visible"/><use xlink:href="#G" width="172" height="122" x="-86" y="-61" transform="matrix(1 0 0 -1 430 793)" overflow="visible"/><use xlink:href="#H" width="172" height="122" x="-86" y="-61" transform="matrix(1 0 0 -1 602 793)" overflow="visible"/><use xlink:href="#I" width="172" height="122" x="-86" y="-61" transform="matrix(1 0 0 -1 774 793)" overflow="visible"/><use xlink:href="#J" width="172" height="122" x="-86" y="-61" transform="matrix(1 0 0 -1 86 915)" overflow="visible"/><use xlink:href="#K" width="172" height="122" x="-86" y="-61" transform="matrix(1 0 0 -1 258 915)" overflow="visible"/><use xlink:href="#L" width="172" height="122" x="-86" y="-61" transform="matrix(1 0 0 -1 430 915)" overflow="visible"/><use xlink:href="#M" width="172" height="122" x="-86" y="-61" transform="matrix(1 0 0 -1 602 915)" overflow="visible"/><use xlink:href="#N" width="172" height="122" x="-86" y="-61" transform="matrix(1 0 0 -1 774 915)" overflow="visible"/><use xlink:href="#O" width="172" height="122" x="-86" y="-61" transform="matrix(1 0 0 -1 86 1037)" overflow="visible"/><use xlink:href="#P" width="172" height="122" x="-86" y="-61" transform="matrix(1 0 0 -1 258 1037)" overflow="visible"/><use xlink:href="#Q" width="172" height="122" x="-86" y="-61" transform="matrix(1 0 0 -1 430 1037)" overflow="visible"/><use xlink:href="#R" width="172" height="122" x="-86" y="-61" transform="matrix(1 0 0 -1 602 1037)" overflow="visible"/><use xlink:href="#S" width="172" height="122" x="-86" y="-61" transform="matrix(1 0 0 -1 774 1037)" overflow="visible"/><use xlink:href="#T" width="172" height="122" x="-86" y="-61" transform="matrix(1 0 0 -1 86 1159)" overflow="visible"/><use xlink:href="#U" width="172" height="122" x="-86" y="-61" transform="matrix(1 0 0 -1 258 1159)" overflow="visible"/><use xlink:href="#V" width="172" height="122" x="-86" y="-61" transform="matrix(1 0 0 -1 430 1159)" overflow="visible"/><use xlink:href="#W" width="172" height="122" x="-86" y="-61" transform="matrix(1 0 0 -1 602 1159)" overflow="visible"/><use xlink:href="#X" width="172" height="122" x="-86" y="-61" transform="matrix(1 0 0 -1 774 1159)" overflow="visible"/><use xlink:href="#Y" width="172" height="122" x="-86" y="-61" transform="matrix(1 0 0 -1 86 1281)" overflow="visible"/><use xlink:href="#Z" width="172" height="122" x="-86" y="-61" transform="matrix(1 0 0 -1 258 1281)" overflow="visible"/><use xlink:href="#aa" width="172" height="122" x="-86" y="-61" transform="matrix(1 0 0 -1 430 1281)" overflow="visible"/><use xlink:href="#ab" width="172" height="122" x="-86" y="-61" transform="matrix(1 0 0 -1 602 1281)" overflow="visible"/><use xlink:href="#ac" width="172" height="122" x="-86" y="-61" transform="matrix(1 0 0 -1 774 1281)" overflow="visible"/><use xlink:href="#ad" width="172" height="122" x="-86" y="-61" transform="matrix(1 0 0 -1 86 1406)" overflow="visible"/><use xlink:href="#ae" width="172" height="122" x="-86" y="-61" transform="matrix(1 0 0 -1 258 1406)" overflow="visible"/><use xlink:href="#af" width="172" height="122" x="-86" y="-61" transform="matrix(1 0 0 -1 430 1406)" overflow="visible"/><path fill="none" d="M516 1345h172v122h-172zM688 1345h172v122h-172z"/></g></svg>