<svg xmlns="http://www.w3.org/2000/svg" xmlns:xlink="http://www.w3.org/1999/xlink" width="863" height="2219.016" viewBox="0 0 863 2219.016"><symbol id="b" viewBox="-86 -61 172 122"><path d="M13.751-31.271h-27.987c-.913 0-1.776.416-2.346 1.13s-.782 1.648-.579 2.539l13.667 51.512c.308 1.345 1.492 2.306 2.871 2.331 1.331.037 2.597-.893 2.952-2.227l14.32-51.512c.24-.9.049-1.861-.52-2.601-.566-.739-1.446-1.172-2.378-1.172zm-24.225 6h20.32l-10.192 36.029-10.128-36.029z"/><path fill-rule="evenodd" clip-rule="evenodd" fill="#fff" d="M-4.826-22.625v-4.667"/><path d="M-4.826-30.292c-1.657 0-3 1.343-3 3v4.667c0 1.657 1.343 3 3 3s3-1.343 3-3v-4.667c0-1.657-1.343-3-3-3z"/><path fill-rule="evenodd" clip-rule="evenodd" fill="#fff" d="M3.84-22.958v-4.667"/><path d="M3.84-30.625c-1.657 0-3 1.343-3 3v4.666c0 1.657 1.343 3 3 3s3-1.343 3-3v-4.666c0-1.656-1.343-3-3-3z"/><path fill="none" d="M86-61h-172v122h172z"/></symbol><symbol id="c" viewBox="-86 -61 172 122"><path fill-rule="evenodd" clip-rule="evenodd" d="M4.456-18.107c0-2.209-1.791-4-4.001-4-2.209 0-4 1.791-4 4s1.791 4 4 4c2.21 0 4.001-1.791 4.001-4zM14.755-18.107c0-2.209-1.791-4-4-4s-4 1.791-4 4 1.791 4 4 4 4-1.791 4-4z"/><path d="M-17-31.65c-1.634 0-2.968 1.307-2.999 2.941l-.102 5.198-.001 42.527c0 1.657 1.343 3 3 3s3-1.343 3-3v-42.469l.043-2.187 25.521-.11c4.357 0 7.902 3.545 7.902 7.902 0 4.358-3.545 7.903-7.902 7.903h-6.768c-1.658 0-3.001 1.343-3.001 3v25.777c0 1.657 1.343 3 3.001 3 1.656 0 3-1.343 3-3v-22.775h3.768c7.666 0 13.902-6.237 13.902-13.903s-6.236-13.902-13.902-13.902h-6.768l-21.683.099h-.011z"/><path fill="none" d="M86-61h-172v122h172z"/></symbol><symbol id="d" viewBox="-86 -61 172 122"><path d="M-5.847-20.6c-3.043 0-5.9 1.184-8.051 3.334-2.15 2.149-3.334 5.009-3.334 8.051s1.186 5.901 3.336 8.051l11.988 11.99c1.129 1.131 2.945 1.176 4.131.107l13.295-11.99.111-.107c2.15-2.15 3.336-5.009 3.336-8.05 0-3.042-1.184-5.901-3.334-8.052-2.15-2.15-5.01-3.334-8.051-3.334-2.447 0-4.777.767-6.715 2.187-1.936-1.42-4.264-2.187-6.712-2.187zm6.168 25.169l-9.975-9.975c-1.018-1.018-1.578-2.37-1.578-3.809s.561-2.791 1.576-3.808c1.018-1.017 2.37-1.577 3.809-1.577 1.438 0 2.791.56 3.809 1.578l.781.783c.563.563 1.326.879 2.123.88.797 0 1.559-.316 2.121-.879l.785-.784c1.018-1.017 2.369-1.577 3.809-1.578 1.439 0 2.791.56 3.809 1.577 2.082 2.083 2.098 5.464.047 7.568l-11.116 10.024z"/><path fill-rule="evenodd" clip-rule="evenodd" fill="#fff" d="M.866-14.359v6.047"/><path d="M.866-17.359c-1.656 0-3 1.343-3 3v6.047c0 1.657 1.344 3 3 3 1.658 0 3-1.343 3-3v-6.047c0-1.657-1.342-3-3-3z"/><path fill="none" d="M86-61h-172v122h172z"/></symbol><symbol id="e" viewBox="-86 -61 172 122"><path d="M13.828-11.1h-24.410999999999998c-1.117 0-2.141.62-2.658 1.61-.518.989-.443 2.185.193 3.102l12.195 17.558c.561.807 1.482 1.289 2.465 1.289s1.902-.481 2.463-1.289l12.025-17.31c.453-.526.729-1.211.729-1.96-.001-1.656-1.345-3-3.001-3zm-18.674 6h12.918l-6.459 9.299-6.459-9.299z"/><path fill="none" d="M86-61h-172v122h172z"/></symbol><symbol id="f" viewBox="-86 -61 172 122"><path d="M-.362-18.908c-9.971 0-18.083 8.112-18.083 18.083 0 9.972 8.112 18.084 18.083 18.084s18.083-8.112 18.083-18.084c0-9.971-8.112-18.083-18.083-18.083zm0 30.167c-6.663 0-12.083-5.421-12.083-12.084 0-6.663 5.42-12.083 12.083-12.083s12.083 5.42 12.083 12.083-5.42 12.084-12.083 12.084zM-10.578-14.482c-.724 0-1.45.261-2.026.789-1.221 1.12-1.304 3.017-.185 4.239l5.5 6c1.119 1.221 3.017 1.304 4.239.184 1.221-1.12 1.304-3.017.185-4.239l-5.5-6c-.592-.645-1.401-.973-2.213-.973z"/><path fill="none" d="M86-61h-172v122h172z"/></symbol><symbol id="g" viewBox="-86 -61 172 122"><path d="M11.884-26.189h-23.754c-7.696 0-13.957 6.261-13.957 13.957 0 6.989 5.164 12.795 11.877 13.802v18.803c0 1.657 1.343 3 3 3s3-1.343 3-3v-21.648c0-1.657-1.343-3-3-3h-.92c-4.388 0-7.957-3.569-7.957-7.957s3.569-7.957 7.957-7.957h23.754c4.388 0 7.957 3.569 7.957 7.957s-3.569 7.957-7.957 7.957h-.92c-1.657 0-3 1.343-3 3v21.648c0 1.657 1.343 3 3 3s3-1.343 3-3v-18.803c6.713-1.007 11.877-6.813 11.877-13.802 0-7.696-6.26-13.957-13.957-13.957z"/><path fill-rule="evenodd" clip-rule="evenodd" d="M-7.782-12.689c0-2.209-1.791-4-4-4s-4 1.791-4 4 1.791 4 4 4 4-1.791 4-4zM15.55-12.689c0-2.209-1.791-4-4-4s-4 1.791-4 4 1.791 4 4 4 4-1.791 4-4z"/><path fill="none" d="M86-61h-172v122h172z"/></symbol><symbol id="h" viewBox="-86 -61 172 122"><path d="M-7.892-17.875c-1.657 0-3 1.343-3 3v3.247c0 1.075-.874 1.949-1.949 1.949-1.073 0-1.947-.875-1.947-1.949v-3.161c0-1.657-1.343-3-3-3s-3 1.343-3 3v3.161c0 4.383 3.565 7.949 7.947 7.949 4.383 0 7.949-3.566 7.949-7.949v-3.247c0-1.657-1.342-3-3-3zM2.712-17.875c-.795 0-1.558.315-2.12.877-.563.563-.88 1.326-.88 2.123v3.247c0 1.075-.874 1.949-1.949 1.949-1.073 0-1.947-.875-1.947-1.949v-3.161c0-1.657-1.343-3-3-3s-3 1.343-3 3v3.161c0 4.383 3.565 7.949 7.947 7.949 4.383 0 7.949-3.566 7.949-7.949v-.244l9.416.012v8.816c0 8.271-6.729 15-15.002 15-8.271 0-15-6.729-15-15v-11.5c0-1.657-1.343-3-3-3s-3 1.343-3 3v11.5c0 11.58 9.421 21 21 21 11.58 0 21.002-9.42 21.002-21v-11.813c0-1.655-1.341-2.998-2.996-3l-15.416-.018h-.004z"/><path fill="none" d="M86-61h-172v122h172z"/></symbol><symbol id="i" viewBox="-86 -61 172 122"><path d="M9.954-25.479h-18.545c-5.227 0-9.479 4.252-9.479 9.479s4.252 9.479 9.479 9.479h1.092v34.03c0 1.657 1.343 3 3 3s3-1.343 3-3v-37.03c0-1.657-1.343-3-3-3h-4.092c-1.918 0-3.479-1.561-3.479-3.479s1.561-3.479 3.479-3.479h18.545c1.918 0 3.479 1.561 3.479 3.479s-1.561 3.479-3.479 3.479h-4.092c-1.657 0-3 1.343-3 3v37.03c0 1.657 1.343 3 3 3s3-1.343 3-3v-34.03h1.092c5.227 0 9.479-4.252 9.479-9.479s-4.252-9.479-9.479-9.479zM-5.51-25.402c-1.657 0-3 1.343-3 3v3.397c0 1.657 1.343 3 3 3s3-1.343 3-3v-3.397c0-1.657-1.343-3-3-3zM6.874-25.402c-1.657 0-3 1.343-3 3v3.397c0 1.657 1.343 3 3 3s3-1.343 3-3v-3.397c0-1.657-1.343-3-3-3z"/><path fill="none" d="M86-61h-172v122h172z"/></symbol><symbol id="j" viewBox="-86 -61 172 122"><path fill-rule="evenodd" clip-rule="evenodd" d="M1.498 15.575c-4.632 0-8.386-3.754-8.386-8.385v-8.229c0-4.632 3.754-8.387 8.385-8.387s8.386 3.756 8.386 8.387v8.229c0 4.631-3.755 8.385-8.385 8.385z"/><path fill-rule="evenodd" clip-rule="evenodd" fill="#FCFCFC" d="M17.696-24.104l-15.42 18.354"/><path d="M18.794-26.897c-1.167-.458-2.544-.149-3.395.863l-15.42 18.354c-1.066 1.269-.9 3.161.367 4.227 1.269 1.068 3.161.9 4.227-.367l15.421-18.354c1.066-1.269.901-3.162-.367-4.227-.257-.215-.539-.38-.833-.496z"/><path fill-rule="evenodd" clip-rule="evenodd" fill="#FCFCFC" d="M-14.703-24.104l15.42 18.354"/><path d="M-15.801-26.897c1.167-.458 2.544-.149 3.395.863l15.421 18.354c1.066 1.269.9 3.161-.367 4.227-1.269 1.068-3.161.9-4.227-.367l-15.421-18.354c-1.066-1.269-.901-3.162.367-4.227.256-.215.538-.38.832-.496z"/><path fill="none" d="M86-61h-172v122h172z"/></symbol><symbol id="k" viewBox="-86 -61 172 122"><path d="M.263-39.057c-10.112 0-18.368 7.921-18.794 18.034l-.001.026-.009.136c-.014.189-.025.379-.026.571-.002.41.08.813.237 1.183l11.889 39.421c.518 2.81 2.969 4.875 5.827 4.91 2.897 0 5.368-2.006 5.946-4.771l13.521-39.582c.153-.354.239-.741.239-1.147l-.022-.518-.007-.104-.01-.18c-.418-10.053-8.673-17.979-18.79-17.979zm-12.798 18.246c.311-6.871 5.925-12.246 12.798-12.246 6.88 0 12.496 5.384 12.798 12.263l-.024.174-13.578 39.845-11.972-39.869-.004-.025-.019-.125.001-.017z"/><path fill-rule="evenodd" clip-rule="evenodd" d="M-16.004-20.942c.028-8.721 7.104-15.781 15.83-15.781 8.726 0 15.802 7.061 15.83 15.781h-31.66z"/><path fill="none" d="M86-61h-172v122h172z"/></symbol><symbol id="l" viewBox="-86 -61 172 122"><path fill-rule="evenodd" clip-rule="evenodd" d="M-.492 13.438c-4.955 0-8.974-4.017-8.974-8.973v-8.803999999999998c0-4.956 4.019-8.973 8.972-8.973 4.955 0 8.974 4.017 8.974 8.973v8.803c0 4.958-4.019 8.974-8.972 8.974z"/><path fill="none" d="M86-61h-172v122h172z"/></symbol><symbol id="m" viewBox="-86 -61 172 122"><path d="M.127-22.586c-8.018 0-14.541 6.523-14.541 14.541 0 6.796 9.921 25.266 11.909 28.899.526.962 1.535 1.56 2.632 1.56s2.105-.598 2.632-1.56c1.988-3.633 11.909-22.103 11.909-28.899 0-8.018-6.523-14.541-14.541-14.541zm0 35.58c-4.142-8.091-8.541-17.868-8.541-21.039 0-4.71 3.831-8.541 8.541-8.541s8.541 3.831 8.541 8.541c0 3.171-4.399 12.948-8.541 21.039z"/><path fill="none" d="M86-61h-172v122h172z"/></symbol><symbol id="n" viewBox="-86 -61 172 122"><path d="M.285-29.17c-7.603 0-13.787 6.187-13.787 13.79v37.346c0 1.657 1.343 3 3 3s3-1.343 3-3v-37.346c0-4.296 3.493-7.79 7.787-7.79 4.295 0 7.789 3.494 7.789 7.79v37.534c0 1.657 1.343 3 3 3s3-1.343 3-3v-37.534c0-7.603-6.185-13.79-13.789-13.79z"/><path fill="none" d="M86-61h-172v122h172z"/></symbol><symbol id="o" viewBox="-86 -61 172 122"><path d="M13.584-28.752h-23.754c-7.696 0-13.957 6.261-13.957 13.957s6.261 13.957 13.957 13.957h3.92v24.148c0 1.657 1.343 3 3 3s3-1.343 3-3v-27.148c0-1.657-1.343-3-3-3h-6.92c-4.388 0-7.957-3.569-7.957-7.957s3.569-7.957 7.957-7.957h23.754c4.388 0 7.957 3.569 7.957 7.957s-3.569 7.957-7.957 7.957h-6.92c-1.657 0-3 1.343-3 3v27.148c0 1.657 1.343 3 3 3s3-1.343 3-3v-24.148h3.92c7.696 0 13.957-6.261 13.957-13.957s-6.261-13.957-13.957-13.957z"/><path fill-rule="evenodd" clip-rule="evenodd" d="M-3.082-15.252c0-2.209-1.791-4-4-4s-4 1.791-4 4 1.791 4 4 4 4-1.791 4-4zM14.25-15.252c0-2.209-1.791-4-4-4s-4 1.791-4 4 1.791 4 4 4 4-1.791 4-4z"/><path fill="none" d="M86-61h-172v122h172z"/></symbol><symbol id="p" viewBox="-86 -61 172 122"><path d="M-17.614-16.54c-.794 0-1.557.315-2.119.876-.563.563-.881 1.327-.881 2.124v7.841c0 11.101 9.029 20.131 20.128 20.131 11.098 0 20.126-9.03 20.126-20.131v-7.759c0-1.654-1.339-2.996-2.992-3l-3.072-.008c-.876.021-1.72.383-2.291 1.055-.572.671-.819 1.56-.678 2.43.039.24.059.441.059.615 0 2.029-1.65 3.68-3.68 3.68s-3.68-1.65-3.68-3.68c0-.185.02-.39.061-.629.147-.869-.096-1.76-.664-2.435s-1.404-1.065-2.286-1.067l-1.987-.005h-.008c-.883 0-1.721.389-2.291 1.063-.572.677-.815 1.571-.666 2.443.041.237.061.442.061.629 0 2.029-1.65 3.68-3.68 3.68s-3.68-1.65-3.68-3.68c0-.196.021-.406.063-.644.154-.872-.084-1.769-.652-2.448s-1.408-1.073-2.295-1.075l-2.888-.007h-.008z"/><path fill="none" d="M86-61h-172v122h172z"/></symbol><symbol id="q" viewBox="-86 -61 172 122"><path d="M7.843-32.461h-16.337c-.829 0-1.622.344-2.189.948-.567.605-.858 1.418-.805 2.246l.008.123.013.226c0 2.826-2.299 5.125-5.125 5.125-1.636 0-3.138-.763-4.12-2.092-.597-.809-1.566-1.272-2.561-1.214-1.002.049-1.914.597-2.429 1.459-1.292 2.164-1.975 4.632-1.975 7.136 0 7.696 6.261 13.957 13.957 13.957h3.92v27.185c-.032.816-.037 4.72 2.588 7.506 1.225 1.301 3.526 2.86 7.466 2.6 6.626-.454 8.929-6.283 8.86-10.091v-27.199h3.92c7.696 0 13.957-6.261 13.957-13.957 0-2.434-.646-4.84-1.868-6.959-.51-.885-1.435-1.449-2.455-1.498-1.015-.058-1.995.424-2.587 1.255-.965 1.354-2.525 2.163-4.174 2.163-2.826 0-5.125-2.299-5.125-5.125l.005-.22c.036-.186.055-.377.055-.573.001-1.658-1.342-3.001-2.999-3.001zm-13.583 6h10.743c1.027 5.081 5.526 8.918 10.905 8.918 1.788 0 3.526-.436 5.079-1.235l.005.274c0 4.388-3.569 7.957-7.957 7.957h-6.92c-1.657 0-3 1.343-3 3v30.254c-.001.918-.24 3.843-3.271 4.05l-.474.017c-1.514 0-2.041-.56-2.214-.743-.888-.943-.985-2.748-.961-3.144l.005-.18v-30.254c0-1.657-1.343-3-3-3h-6.92c-4.388 0-7.957-3.569-7.957-7.957l.018-.521c1.552.798 3.289 1.232 5.066 1.232 5.292 0 9.731-3.712 10.853-8.668z"/><path fill="none" d="M86-61h-172v122h172z"/></symbol><symbol id="r" viewBox="-86 -61 172 122"><path fill-rule="evenodd" clip-rule="evenodd" d="M-5.586 8.419c-2.563 0-4.64-2.077-4.64-4.639v-4.553c0-2.563 2.077-4.639 4.639-4.639s4.64 2.076 4.64 4.639v4.553c0 2.562-2.078 4.639-4.639 4.639zM6.414 8.419c-2.563 0-4.64-2.077-4.64-4.639v-4.553c0-2.563 2.077-4.639 4.639-4.639s4.64 2.076 4.64 4.639v4.553c0 2.562-2.078 4.639-4.639 4.639z"/><path d="M-18.179-14.852c-.793 0-1.555.314-2.117.875-.565.563-.883 1.327-.883 2.125v12.2c0 11.908 9.687 21.596 21.593 21.596 11.905 0 21.591-9.688 21.591-21.596v-12.11c0-1.652-1.336-2.993-2.988-3l-8.672-.034c-1.637.01-3.005 1.331-3.012 2.988s1.331 3.005 2.988 3.012l5.684.022v9.122c0 8.6-6.994 15.596-15.591 15.596-8.598 0-15.593-6.996-15.593-15.596v-9.188l4.967.019h.011c1.652 0 2.994-1.336 3-2.989.006-1.656-1.332-3.005-2.989-3.011l-7.979-.029-.01-.002z"/><path fill="none" d="M86-61h-172v122h172z"/></symbol><symbol id="s" viewBox="-86 -61 172 122"><path d="M31.833-31.085l-34.708.022c-1.649.001-2.989 1.334-2.998 2.983l-.31 56.512c-.007 1.344.88 2.528 2.171 2.899 1.289.373 2.672-.161 3.38-1.303l35.016-56.534c.573-.926.6-2.09.069-3.041-.529-.949-1.532-1.538-2.62-1.538zm-31.723 6.021l26.334-.017-26.568 42.895.234-42.878z"/><path fill="none" d="M86-61h-172v122h172z"/></symbol><symbol id="t" viewBox="-86 -61 172 122"><path d="M14.349-14.818c-.768 0-1.536.293-2.122.879-1.171 1.172-1.171 3.071.001 4.243 1.018 1.017 1.578 2.369 1.578 3.809 0 1.438-.56 2.791-1.576 3.808-1.018 1.016-2.37 1.576-3.808 1.576h-.001c-1.439-.001-2.791-.56-3.808-1.578l-.782-.783c-.562-.563-1.325-.879-2.121-.88h-.002c-.795 0-1.558.315-2.12.877l-.785.784c-1.019 1.019-2.37 1.579-3.81 1.579-1.439 0-2.791-.56-3.809-1.577-1.017-1.017-1.577-2.369-1.576-3.808 0-1.438.561-2.791 1.578-3.808 1.172-1.172 1.172-3.071.001-4.243-1.172-1.172-3.071-1.171-4.243-.001-2.15 2.15-3.336 5.01-3.336 8.051-.001 3.042 1.183 5.901 3.334 8.052 2.15 2.15 5.01 3.334 8.051 3.334h.001c2.447 0 4.776-.767 6.713-2.187 1.938 1.42 4.266 2.187 6.713 2.188h.002c3.041 0 5.899-1.185 8.05-3.335 2.15-2.149 3.334-5.009 3.334-8.051-.001-3.042-1.186-5.901-3.336-8.052-.586-.584-1.354-.877-2.121-.877z"/><path fill-rule="evenodd" clip-rule="evenodd" fill="#fff" d="M1.708-.744v-6.047"/><path d="M1.708-9.791c-1.657 0-3 1.343-3 3v6.047c0 1.657 1.343 3 3 3s3-1.343 3-3v-6.047c0-1.657-1.343-3-3-3z"/><path fill="none" d="M86-61h-172v122h172z"/></symbol><symbol id="u" viewBox="-86 -61 172 122"><path d="M64.456.67c0-7.603-6.187-13.787-13.79-13.787h-65.136c-1.657 0-3 1.343-3 3s1.343 3 3 3h65.136c4.296 0 7.79 3.493 7.79 7.787 0 4.295-3.494 7.789-7.79 7.789h-65.324c-1.657 0-3 1.343-3 3s1.343 3 3 3h65.324c7.603 0 13.79-6.186 13.79-13.789z"/><path fill="none" d="M86-61h-172v122h172z"/></symbol><symbol id="v" viewBox="-86 -61 172 122"><path d="M-.493-17.998c-8.018 0-14.541 6.523-14.541 14.541 0 6.796 9.921 25.266 11.909 28.899.526.962 1.535 1.56 2.632 1.56s2.105-.598 2.632-1.56c1.988-3.633 11.909-22.103 11.909-28.899 0-8.018-6.523-14.541-14.541-14.541zm0 35.58c-4.141-8.091-8.541-17.868-8.541-21.039 0-4.71 3.831-8.541 8.541-8.541s8.541 3.831 8.541 8.541c0 3.171-4.399 12.948-8.541 21.039z"/><path fill-rule="evenodd" clip-rule="evenodd" d="M11.056-5.126c0-6.812-5.521-12.333-12.333-12.333s-12.333 5.521-12.333 12.333"/><path fill="none" d="M86-61h-172v122h172z"/></symbol><symbol id="w" viewBox="-86 -61 172 122"><path d="M-.295-29.723c-10.113 0-18.369 7.921-18.794 18.034l-.001.016-.009.128c-.015.2-.026.4-.026.604 0 .416.085.812.237 1.171l12.889 39.419c.518 2.81 2.969 4.875 5.827 4.91 2.897 0 5.368-2.006 5.946-4.771l12.522-39.582c.153-.354.21-1.769.21-1.769l-.007-.117c-.422-10.117-8.677-18.043-18.794-18.043zm-12.798 18.245c.312-6.869 5.925-12.245 12.798-12.245 6.878 0 12.493 5.382 12.798 12.258l-.011.067-.017.123-12.574 39.834-12.976-39.886-.001-.013-.018-.116.001-.022z"/><path fill-rule="evenodd" clip-rule="evenodd" d="M-6.169-14.81c-2.151 0-3.897-1.745-3.897-3.896v-3.824c0-2.152 1.746-3.896 3.896-3.896 2.152 0 3.897 1.744 3.897 3.896v3.823c.001 2.152-1.745 3.897-3.896 3.897zM5.55-14.639c-2.152 0-3.897-1.745-3.897-3.896v-3.824c0-2.152 1.745-3.896 3.896-3.896 2.152 0 3.897 1.744 3.897 3.896v3.823c0 2.152-1.745 3.897-3.896 3.897z"/><path fill="none" d="M86-61h-172v122h172z"/></symbol><symbol id="x" viewBox="-86 -61 172 122"><path d="M-7.561-7.25c-1.657 0-3 1.343-3 3v10.97c0 2.796-2.274 5.07-5.07 5.07s-5.07-2.274-5.07-5.07v-10.97c0-1.657-1.343-3-3-3s-3 1.343-3 3v10.97c0 6.104 4.966 11.07 11.07 11.07s11.07-4.966 11.07-11.07v-10.97c0-1.657-1.342-3-3-3zM.522-20.253c-6.104 0-11.07 4.966-11.07 11.07v10.97c0 1.657 1.343 3 3 3s3-1.343 3-3v-10.97c0-2.796 2.274-5.07 5.07-5.07s5.07 2.274 5.07 5.07v10.97c0 1.657 1.343 3 3 3s3-1.343 3-3v-10.97c.001-6.104-4.965-11.07-11.07-11.07zM24.772-7.25c-1.657 0-3 1.343-3 3v10.97c0 2.796-2.274 5.07-5.07 5.07s-5.07-2.274-5.07-5.07v-10.97c0-1.657-1.343-3-3-3s-3 1.343-3 3v10.97c0 6.104 4.966 11.07 11.07 11.07s11.07-4.966 11.07-11.07v-10.97c0-1.657-1.342-3-3-3z"/><path fill-rule="evenodd" clip-rule="evenodd" d="M-14.978 18.521"/><path d="M27.309-15.358c0-1.828-1.481-3.31-3.31-3.31-1.826 0-3.308 1.481-3.308 3.31 0 1.826 1.481 3.308 3.308 3.308 1.828-.001 3.31-1.482 3.31-3.308z"/><path fill="none" d="M86-61h-172v122h172z"/></symbol><symbol id="y" viewBox="-86 -61 172 122"><path d="M13.334-25.289h-23.754c-7.696 0-13.957 6.261-13.957 13.957s6.261 13.957 13.957 13.957h3.92v19.648c0 1.657 1.343 3 3 3s3-1.343 3-3v-22.648c0-1.657-1.343-3-3-3h-6.92c-4.388 0-7.957-3.569-7.957-7.957s3.569-7.957 7.957-7.957h23.754c4.388 0 7.957 3.569 7.957 7.957s-3.569 7.957-7.957 7.957h-6.92c-1.657 0-3 1.343-3 3v22.648c0 1.657 1.343 3 3 3s3-1.343 3-3v-19.648h3.92c7.696 0 13.957-6.261 13.957-13.957s-6.261-13.957-13.957-13.957zM-5.209-22.622c-1.657 0-3 1.343-3 3v8c0 1.657 1.343 3 3 3s3-1.343 3-3v-8c0-1.657-1.343-3-3-3zM8.124-22.622c-1.657 0-3 1.343-3 3v8c0 1.657 1.343 3 3 3s3-1.343 3-3v-8c0-1.657-1.343-3-3-3z"/><path fill="none" d="M86-61h-172v122h172z"/></symbol><symbol id="z" viewBox="-86 -61 172 122"><path d="M11.39-14.449h-.92c-1.657 0-3 1.343-3 3s1.343 3 3 3h.92c4.388 0 7.957 3.569 7.957 7.957s-3.569 7.957-7.957 7.957h-23.754c-4.388 0-7.957-3.569-7.957-7.957s3.569-7.957 7.957-7.957h.92c1.657 0 3-1.343 3-3s-1.343-3-3-3h-.92c-7.696 0-13.957 6.261-13.957 13.957s6.261 13.957 13.957 13.957h23.754c7.696 0 13.957-6.261 13.957-13.957s-6.261-13.957-13.957-13.957z"/><path fill-rule="evenodd" clip-rule="evenodd" d="M7.302-.035c0 2.209 1.791 4 4 4s4-1.791 4-4-1.791-4-4-4-4 1.791-4 4zM-16.03-.035c0 2.209 1.791 4 4 4s4-1.791 4-4-1.791-4-4-4-4 1.791-4 4z"/><path fill="none" d="M86-61h-172v122h172z"/></symbol><symbol id="A" viewBox="-86 -61 172 122"><path d="M.028-16.033c-8.018 0-14.541 6.523-14.541 14.541s6.523 14.541 14.541 14.541c1.657 0 3-1.343 3-3s-1.343-3-3-3c-4.71 0-8.541-3.831-8.541-8.541s3.831-8.541 8.541-8.541c1.657 0 3-1.343 3-3s-1.343-3-3-3z"/><path fill="none" d="M86-61h-172v122h172z"/></symbol><symbol id="B" viewBox="-86 -61 172 122"><path d="M.044-17.993c-9.971 0-18.083 8.112-18.083 18.083 0 9.972 8.112 18.084 18.083 18.084s18.083-8.112 18.083-18.084c0-9.971-8.112-18.083-18.083-18.083zm0 30.167c-6.663 0-12.083-5.421-12.083-12.084s5.42-12.083 12.083-12.083 12.083 5.42 12.083 12.083-5.42 12.084-12.083 12.084z"/><path fill-rule="evenodd" clip-rule="evenodd" d="M15.127.09c0-8.33-6.753-15.083-15.083-15.083s-15.083 6.753-15.083 15.083"/><path fill="none" d="M86-61h-172v122h172z"/></symbol><symbol id="C" viewBox="-86 -61 172 122"><path d="M1.556-26.987c-6.104 0-11.07 4.966-11.07 11.07s4.966 11.07 11.07 11.07h10.97c1.657 0 3-1.343 3-3s-1.343-3-3-3h-10.97c-2.796 0-5.07-2.274-5.07-5.07s2.274-5.07 5.07-5.07c1.657 0 3-1.343 3-3s-1.343-3-3-3zM17.458-10.834h-10.97c-1.657 0-3 1.343-3 3s1.343 3 3 3h10.97c2.796 0 5.07 2.274 5.07 5.07s-2.274 5.07-5.07 5.07h-10.97c-1.657 0-3 1.343-3 3s1.343 3 3 3h10.97c6.104 0 11.07-4.966 11.07-11.07s-4.965-11.07-11.07-11.07zM12.525 5.346h-18.47c-1.657 0-3 1.343-3 3s1.343 3 3 3h18.47c1.657 0 3-1.343 3-3s-1.342-3-3-3z"/><path clip-rule="evenodd" d="M-10.246-15.264" fill="none"/><path fill="none" d="M86-61h-172v122h172z"/></symbol><symbol id="D" viewBox="-86 -61 172 122"><path d="M15.957-19.992h-29c-1.657 0-3 1.343-3 3v29c0 1.657 1.343 3 3 3h29c1.657 0 3-1.343 3-3v-29c0-1.657-1.343-3-3-3zm-26 6h23v23h-23v-23zM-2.202-18.068c-1.657 0-3 1.343-3 3v8c0 1.657 1.343 3 3 3s3-1.343 3-3v-8c0-1.658-1.343-3-3-3zM7.572-18.068c-1.657 0-3 1.343-3 3v8c0 1.657 1.343 3 3 3s3-1.343 3-3v-8c0-1.658-1.343-3-3-3z"/><path fill="none" d="M86-61h-172v122h172z"/></symbol><symbol id="E" viewBox="-86 -61 172 122"><path fill-rule="evenodd" clip-rule="evenodd" d="M8.34-18.415v4.648c0 4.956-4.019 8.973-8.972 8.973-4.955 0-8.974-4.017-8.974-8.973v-4.648h17.946z"/><path d="M-3.75-18.53c-1.655 0-2.998 1.341-3 2.996-.002 1.657 1.339 3.002 2.996 3.004l21.754.026v10.754c0 13.822-8.93 21.75-24.5 21.75-1.657 0-3 1.343-3 3s1.343 3 3 3c18.813 0 30.5-10.633 30.5-27.75v-13.75c0-1.655-1.341-2.998-2.996-3l-24.75-.03h-.004z"/><path fill="none" d="M86-61h-172v122h172z"/></symbol><symbol id="F" viewBox="-86 -61 172 122"><path d="M11.582-24.243h-23.754c-7.696 0-13.957 6.261-13.957 13.957 0 6.99 5.166 12.797 11.88 13.803l.016 15.096c-.021.845-.039 7.548 4.289 12.052 2.543 2.646 5.974 3.988 10.194 3.988 4.103 0 7.386-1.347 9.758-4.002 4.182-4.684 3.769-11.843 3.654-13.142v-13.992c6.712-1.008 11.877-6.813 11.877-13.803 0-7.696-6.261-13.957-13.957-13.957zm-23.754 21.914c-4.388 0-7.957-3.569-7.957-7.957s3.569-7.957 7.957-7.957h23.754c4.388 0 7.957 3.569 7.957 7.957s-3.569 7.957-7.957 7.957h-.92c-1.657 0-3 1.343-3 3v16.981l.019.338c.166 1.553.102 6.16-2.162 8.679-1.2 1.335-2.924 1.983-5.269 1.983-2.561 0-4.48-.702-5.869-2.146-2.732-2.843-2.619-7.687-2.617-7.734l.002-.122-.018-17.982c-.002-1.656-1.344-2.997-3-2.997h-.92z"/><path fill-rule="evenodd" clip-rule="evenodd" d="M-8.084-10.743c0-2.209-1.791-4-4-4s-4 1.791-4 4 1.791 4 4 4 4-1.791 4-4zM15.248-10.743c0-2.209-1.791-4-4-4s-4 1.791-4 4 1.791 4 4 4 4-1.791 4-4zM1.13 17.05c0-2.152 1.745-3.897 3.896-3.897h3.824c2.152 0 3.896 1.745 3.896 3.896 0 2.152-1.744 3.897-3.896 3.897h-3.824c-2.151 0-3.896-1.745-3.896-3.896zM1.28 7.217c0-2.152 1.745-3.897 3.896-3.897h3.824c2.152 0 3.896 1.745 3.896 3.896 0 2.152-1.744 3.897-3.896 3.897h-3.824c-2.151 0-3.896-1.745-3.896-3.896z"/><path fill="none" d="M86-61h-172v122h172z"/></symbol><symbol id="G" viewBox="-86 -61 172 122"><path d="M12.975-22.997c-.768 0-1.535.293-2.121.879-1.172 1.171-1.172 3.071 0 4.242 1.017 1.018 1.577 2.37 1.576 3.809 0 1.438-.561 2.791-1.578 3.808-.563.563-.879 1.326-.879 2.122v27.276c-.173 1.128-1.507 7.195-10.04 7.195-8.815 0-9.228-6.943-9.247-7.734l.001-26.737c0-.796-.316-1.559-.879-2.122-1.018-1.017-1.578-2.369-1.578-3.809 0-1.438.56-2.791 1.576-3.808 1.172-1.171 1.172-3.071 0-4.242-1.171-1.172-3.071-1.172-4.242 0-2.15 2.149-3.334 5.009-3.333 8.051 0 2.598.864 5.063 2.457 7.066v25.669c.004.205.483 13.666 15.246 13.666 11.63 0 15.567-8.301 16.023-12.689l.017-.311v-26.335c1.593-2.003 2.457-4.468 2.457-7.065.001-3.042-1.183-5.901-3.334-8.052-.587-.586-1.355-.879-2.122-.879z"/><path fill-rule="evenodd" clip-rule="evenodd" d="M-.9-13.894c0-2.209-1.791-4-4-4s-4.002 1.791-4.002 4 1.793 4 4.002 4 4-1.791 4-4zM9.6-13.894c0-2.209-1.791-4-4-4s-4 1.791-4 4 1.791 4 4 4 4-1.791 4-4z"/><path fill="none" d="M86-61h-172v122h172z"/></symbol><symbol id="H" viewBox="-86 -61 172 122"><path d="M-6.179-8.061c-3.041 0-5.899 1.185-8.05 3.335-2.15 2.149-3.334 5.009-3.334 8.051.001 3.042 1.186 5.901 3.336 8.052 1.172 1.17 3.071 1.171 4.243-.001 1.171-1.172 1.171-3.071-.001-4.243-1.018-1.017-1.578-2.369-1.578-3.809 0-1.438.56-2.791 1.576-3.808 1.018-1.016 2.37-1.577 3.808-1.577h.001c1.439.001 2.791.561 3.808 1.579l.782.783c.563.563 1.325.879 2.121.88h.002c.795 0 1.558-.315 2.12-.877l.785-.784c1.019-1.019 2.371-1.58 3.81-1.58s2.791.56 3.809 1.577c1.017 1.017 1.577 2.369 1.576 3.808 0 1.438-.561 2.791-1.578 3.808-1.172 1.172-1.172 3.071-.001 4.243 1.172 1.172 3.071 1.171 4.243.001 2.15-2.15 3.336-5.01 3.336-8.051.001-3.042-1.183-5.901-3.334-8.052-2.15-2.15-5.01-3.334-8.051-3.334h-.001c-2.447 0-4.776.767-6.713 2.187-1.938-1.42-4.266-2.187-6.713-2.188h-.002z"/><path fill-rule="evenodd" clip-rule="evenodd" fill="#fff" d="M.535-1.819v6.047"/><path d="M.535-4.819c-1.657 0-3 1.343-3 3v6.047c0 1.657 1.343 3 3 3s3-1.343 3-3v-6.047c0-1.658-1.343-3-3-3z"/><path fill="none" d="M86-61h-172v122h172z"/></symbol><symbol id="I" viewBox="-86 -61 172 122"><path d="M1.541-13.599c-.982 0-1.903.481-2.464 1.289l-12.195 17.558c-.637.917-.712 2.111-.194 3.102.518.989 1.542 1.609 2.658 1.609h24.391c1.116 0 2.141-.62 2.658-1.609.518-.99.442-2.185-.194-3.102l-12.196-17.558c-.561-.807-1.482-1.289-2.464-1.289zm-6.459 17.558l6.459-9.299 6.459 9.299h-12.918z"/><path fill="none" d="M86-61h-172v122h172z"/></symbol><symbol id="J" viewBox="-86 -61 172 122"><path d="M-.516-35.526c-10.112 0-18.368 7.921-18.794 18.034l-.001.027-.009.135-.026.57c-.001.242.027.48.082.712l.205 34.357c.005 1.653 1.348 2.99 3 2.99h.006c1.66-.005 2.999-1.353 2.994-3.01l-.207-35-.009-.217-.021-.215-.019-.123v-.016c.311-6.87 5.925-12.246 12.798-12.246 6.88 0 12.496 5.384 12.798 12.263l-.038.312-.018.329.146 34.882c.004 1.654 1.346 2.993 3 2.993h.005c1.659-.004 2.999-1.35 2.995-3.007l-.146-34.29c.057-.225.087-.459.087-.7l-.022-.518-.007-.104-.01-.179c-.417-10.054-8.672-17.979-18.789-17.979z"/><path fill-rule="evenodd" clip-rule="evenodd" d="M-16.784-17.412c.028-8.721 7.104-15.781 15.83-15.781 8.726 0 15.802 7.061 15.83 15.781h-31.66z"/><path fill="none" d="M86-61h-172v122h172z"/></symbol><symbol id="K" viewBox="-86 -61 172 122"><path fill-rule="evenodd" clip-rule="evenodd" d="M8.355-7.373v4.648c0 4.956-4.019 8.973-8.972 8.973-4.955 0-8.974-4.017-8.974-8.973v-4.648h17.946z"/><path fill="none" d="M86-61h-172v122h172z"/></symbol><symbol id="L" viewBox="-86 -61 172 122"><path d="M11.668-8.343c-1.657 0-3 1.343-3 3 0 4.71-3.831 8.541-8.541 8.541s-8.541-3.831-8.541-8.541c0-1.657-1.343-3-3-3s-3 1.343-3 3c0 8.018 6.523 14.541 14.541 14.541s14.541-6.523 14.541-14.541c0-1.657-1.343-3-3-3z"/><path fill="none" d="M86-61h-172v122h172z"/></symbol><symbol id="M" viewBox="-86 -61 172 122"><path fill-rule="evenodd" clip-rule="evenodd" d="M-17.842-13.248c0-2.209 1.791-4 4-4s4 1.791 4 4-1.791 4-4 4-4-1.791-4-4zM-7.086-13.248c0-2.209 1.791-4 4-4s4 1.791 4 4-1.791 4-4 4-4-1.791-4-4z"/><path d="M13.923-26.974h-.012l-28.461.084c-7.666 0-13.902 6.236-13.902 13.902s6.236 13.904 13.902 13.904h3.769v21.734c0 1.657 1.343 3 3 3s3-1.343 3-3v-24.734c0-1.657-1.343-3-3-3h-6.769c-4.357 0-7.902-3.546-7.902-7.903s3.545-7.902 7.902-7.902h6.769l18.763-.072.044 2.245-.002 41.366c0 1.657 1.343 3 3 3s3-1.343 3-3v-41.426l-.103-5.257c-.03-1.633-1.365-2.941-2.998-2.941z"/><path fill-rule="evenodd" clip-rule="evenodd" d="M-7.59-28.834c0-3.531-2.863-6.394-6.395-6.394s-6.395 2.862-6.395 6.394l6.395 15.214s6.395-11.683 6.395-15.214z"/><path fill="none" d="M86-61h-172v122h172z"/></symbol><symbol id="N" viewBox="-86 -61 172 122"><path d="M16.481-27.718c-1.657 0-3 1.343-3 3s1.343 3 3 3c4.388 0 7.957 3.569 7.957 7.957s-3.569 7.957-7.957 7.957h-6.92c-1.657 0-3 1.343-3 3v27.148c0 1.657 1.343 3 3 3s3-1.343 3-3v-24.148h3.92c7.696 0 13.957-6.261 13.957-13.957s-6.26-13.957-13.957-13.957zM-13.735-27.718c-7.696 0-13.957 6.261-13.957 13.957s6.261 13.957 13.957 13.957h3.92v24.148c0 1.657 1.343 3 3 3s3-1.343 3-3v-27.148c0-1.657-1.343-3-3-3h-6.92c-4.388 0-7.957-3.569-7.957-7.957s3.569-7.957 7.957-7.957c1.657 0 3-1.343 3-3s-1.343-3-3-3z"/><path fill="none" d="M86-61h-172v122h172z"/></symbol><symbol id="O" viewBox="-86 -61 172 122"><path d="M13.347-8.475c-2.729 0-5.195 1.153-6.936 2.997-1.74-1.844-4.206-2.997-6.936-2.997-2.73 0-5.196 1.152-6.937 2.997-1.74-1.845-4.206-2.997-6.936-2.997-5.207 0-9.453 4.194-9.537 9.382h-5.054c-1.657 0-3 1.343-3 3s1.343 3 3 3h8.053c1.657 0 3-1.343 3-3v-2.844c0-1.951 1.587-3.538 3.538-3.538s3.538 1.587 3.538 3.538v2.844c0 1.657 1.343 3 3 3h.795c1.657 0 3-1.343 3-3v-2.844c0-1.951 1.588-3.538 3.539-3.538 1.95 0 3.537 1.587 3.537 3.538v2.844c0 1.657 1.343 3 3 3h.796c1.657 0 3-1.343 3-3v-2.844c0-1.951 1.587-3.538 3.538-3.538s3.538 1.587 3.538 3.538v2.844c0 1.657 1.343 3 3 3h8.128c1.657 0 3-1.343 3-3s-1.343-3-3-3h-5.129c-.082-5.187-4.328-9.382-9.535-9.382z"/><path fill="none" d="M86-61h-172v122h172z"/></symbol><symbol id="P" viewBox="-86 -61 172 122"><path d="M15.924-18.7c-6.104 0-11.07 4.966-11.07 11.07v10.97c0 1.657 1.343 3 3 3s3-1.343 3-3v-10.97c0-2.796 2.274-5.07 5.07-5.07s5.07 2.274 5.07 5.07v10.97c0 1.657 1.343 3 3 3s3-1.343 3-3v-10.97c0-6.104-4.966-11.07-11.07-11.07zM7.841-5.697c-1.657 0-3 1.343-3 3v10.97c0 2.796-2.274 5.07-5.07 5.07s-5.07-2.274-5.07-5.07v-10.97c0-1.657-1.343-3-3-3s-3 1.343-3 3v10.97c0 6.104 4.966 11.07 11.07 11.07s11.07-4.966 11.07-11.07v-10.97c0-1.657-1.343-3-3-3zM-16.409-18.7c-6.104 0-11.07 4.966-11.07 11.07v10.97c0 1.657 1.343 3 3 3s3-1.343 3-3v-10.97c0-2.796 2.274-5.07 5.07-5.07s5.07 2.274 5.07 5.07v10.97c0 1.657 1.343 3 3 3s3-1.343 3-3v-10.97c0-6.104-4.966-11.07-11.07-11.07z"/><path fill-rule="evenodd" clip-rule="evenodd" d="M15.271-19.432"/><path d="M-1 16.333l-8-4.666.333-11.334h15v11.667z"/><path fill="none" d="M86-61h-172v122h172z"/></symbol><symbol id="Q" viewBox="-86 -61 172 122"><path fill-rule="evenodd" clip-rule="evenodd" d="M-3.261.025c0-2.209-1.791-4-4-4s-4 1.791-4 4 1.791 4 4 4 4-1.791 4-4zM11.347.025c0-2.209-1.791-4-4-4s-4 1.791-4 4 1.791 4 4 4 4-1.791 4-4z"/><path fill="none" d="M86-61h-172v122h172z"/></symbol><symbol id="R" viewBox="-86 -61 172 122"><path fill-rule="evenodd" clip-rule="evenodd" d="M.285 15.057c-8.33 0-15.082-6.753-15.082-15.084 0-8.33 6.752-15.083 15.082-15.083s15.084 6.753 15.084 15.083c0 8.331-6.754 15.084-15.084 15.084zm-6.226-19.083c-2.209 0-4 1.791-4 4s1.791 4 4 4 4-1.791 4-4-1.791-4-4-4zm12.453 0c-2.209 0-4 1.791-4 4s1.791 4 4 4 4-1.791 4-4-1.791-4-4-4z"/><path fill="none" d="M86-61h-172v122h172z"/></symbol><symbol id="S" viewBox="-86 -61 172 122"><path d="M13.334-28.718h-23.754c-7.696 0-13.957 6.261-13.957 13.957s6.261 13.957 13.957 13.957h3.92v26.648c0 1.657 1.343 3 3 3s3-1.343 3-3v-29.648c0-1.657-1.343-3-3-3h-6.92c-4.388 0-7.957-3.569-7.957-7.957s3.569-7.957 7.957-7.957h23.754c4.388 0 7.957 3.569 7.957 7.957s-3.569 7.957-7.957 7.957h-6.92c-1.657 0-3 1.343-3 3v29.648c0 1.657 1.343 3 3 3s3-1.343 3-3v-26.648h3.92c7.696 0 13.957-6.261 13.957-13.957s-6.261-13.957-13.957-13.957zM-5.209-26.051c-1.657 0-3 1.343-3 3v8c0 1.657 1.343 3 3 3s3-1.343 3-3v-8c0-1.657-1.343-3-3-3zM8.124-26.051c-1.657 0-3 1.343-3 3v8c0 1.657 1.343 3 3 3s3-1.343 3-3v-8c0-1.657-1.343-3-3-3z"/><path fill="none" d="M86-61h-172v122h172z"/></symbol><symbol id="a" viewBox="-86 -61 172 122"><path d="M-16.114-15.1c-1.657 0-3 1.343-3 3v10.254c0 10.272 8.356 18.63 18.628 18.63 10.271 0 18.626-8.357 18.626-18.63v-9.98c0-1.657-1.343-3-3-3s-3 1.343-3 3v9.98c0 6.964-5.664 12.63-12.626 12.63-6.963 0-12.628-5.666-12.628-12.63v-10.254c0-1.657-1.343-3-3-3z"/><path fill-rule="evenodd" clip-rule="evenodd" d="M-1.735-8.1c0-2.209-1.791-4-4-4s-4 1.791-4 4 1.791 4 4 4 4-1.791 4-4zM8.564-8.1c0-2.209-1.791-4-4-4s-4 1.791-4 4 1.791 4 4 4 4-1.791 4-4z"/><path fill="none" d="M86-61h-172v122h172z"/></symbol><g><path fill="none" d="M0 0h172v122h-172z"/><path fill="none" d="M0 244h172v122h-172z"/><path fill="none" d="M0 122h172v122h-172z"/><path fill="none" d="M0 366h172v122h-172z"/><path fill="none" d="M0 854.137h172v122h-172z"/><path fill="none" d="M0 610h172v122h-172z"/><path fill="none" d="M0 1099.336h172v122h-172z"/><path fill="none" d="M0 1343.199h172v123h-172z"/><path fill="none" d="M0 1467.199h172v124h-172z"/><path fill="none" d="M0 488h172v122h-172z"/><path fill="none" d="M0 975h172v123h-172z"/><path fill="none" d="M0 732h172v122h-172z"/><path fill="none" d="M0 1220.137h172v122h-172z"/><path fill="none" d="M344 0h173v122h-173z"/><path fill="none" d="M344 244h173v122h-173z"/><path fill="none" d="M344 122h173v122h-173z"/><path fill="none" d="M344 366h173v122h-173z"/><path fill="none" d="M344 853h173v123h-173z"/><path fill="none" d="M344 610h173v122h-173z"/><path fill="none" d="M344 1099.336h173v122h-173z"/><path fill="none" d="M344 1343.199h173v123h-173z"/><path fill="none" d="M344 1467.199h173v124h-173z"/><path fill="none" d="M344 488h173v122h-173z"/><path fill="none" d="M344 976.137h173v122h-173z"/><path fill="none" d="M344 732h173v122h-173z"/><path fill="none" d="M344 1220.137h173v122h-173z"/><path fill="none" d="M517 0h173v122h-173z"/><path fill="none" d="M517 244h173v122h-173z"/><path fill="none" d="M517 122h173v122h-173z"/><path fill="none" d="M517 366h173v122h-173z"/><path fill="none" d="M517 854.137h173v122h-173z"/><path fill="none" d="M517 610h173v122h-173z"/><path fill="none" d="M517 1099.336h173v122h-173z"/><path fill="none" d="M517 1343.199h173v123h-173z"/><path fill="none" d="M517 1467.199h173v124h-173z"/><path fill="none" d="M517 488h173v122h-173z"/><path fill="none" d="M517 976.137h173v122h-173z"/><path fill="none" d="M517 732h173v122h-173z"/><path fill="none" d="M517 1220.137h173v122h-173z"/><path fill="none" d="M517 0h173v122h-173z"/><path fill="none" d="M690 0h173v122h-173z"/><path fill="none" d="M690 244h173v122h-173z"/><path fill="none" d="M690 122h173v122h-173z"/><path fill="none" d="M690 366h173v122h-173z"/><path fill="none" d="M690 854.137h173v122h-173z"/><path fill="none" d="M690 610h173v122h-173z"/><path fill="none" d="M690 1099.336h173v122h-173z"/><path fill="none" d="M690 1343.199h173v123h-173z"/><path fill="none" d="M690 1467.199h173v124h-173z"/><path fill="none" d="M690 488h173v122h-173z"/><path fill="none" d="M690 976.137h173v122h-173z"/><path fill="none" d="M690 732h173v122h-173z"/><path fill="none" d="M690 1220.137h173v122h-173z"/><path fill="none" d="M172 0h172v122h-172z"/><path fill="none" d="M172 244h172v122h-172z"/><path fill="none" d="M172 122h172v122h-172z"/><path fill="none" d="M172 366h172v122h-172z"/><path fill="none" d="M172 854.137h172v122h-172z"/><path fill="none" d="M172 610h172v122h-172z"/><path fill="none" d="M172 1099.336h172v122h-172z"/><path fill="none" d="M172 1343.199h172v123h-172z"/><path fill="none" d="M172 1467.199h172v124h-172z"/><path fill="none" d="M172 488h172v122h-172z"/><path fill="none" d="M172 976.137h172v122h-172z"/><path fill="none" d="M172 732h172v122h-172z"/><path fill="none" d="M172 1220.137h172v122h-172z"/><path fill="none" d="M344 244h173v122h-173z"/><path fill-rule="evenodd" clip-rule="evenodd" d="M611.248 442.581c-2.563 0-4.64 2.077-4.64 4.639v4.553c0 2.563 2.077 4.639 4.639 4.639s4.64-2.076 4.64-4.639v-4.553c0-2.562-2.078-4.639-4.639-4.639z"/></g><g><use xlink:href="#a" width="172" height="122" x="-86" y="-61" transform="matrix(1 0 0 -1 86 61)" overflow="visible"/><use xlink:href="#b" width="172" height="122" x="-86" y="-61" transform="matrix(1 0 0 -1 258 61)" overflow="visible"/><use xlink:href="#c" width="172" height="122" x="-86" y="-61" transform="matrix(1 0 0 -1 430 61)" overflow="visible"/><use xlink:href="#d" width="172" height="122" x="-86" y="-61" transform="matrix(1 0 0 -1 602 61)" overflow="visible"/><use xlink:href="#e" width="172" height="122" x="-86" y="-61" transform="matrix(1 0 0 -1 774 61)" overflow="visible"/><use xlink:href="#f" width="172" height="122" x="-86" y="-61" transform="matrix(1 0 0 -1 86 183)" overflow="visible"/><use xlink:href="#g" width="172" height="122" x="-86" y="-61" transform="matrix(1 0 0 -1 258 183)" overflow="visible"/><use xlink:href="#h" width="172" height="122" x="-86" y="-61" transform="matrix(1 0 0 -1 430 183)" overflow="visible"/><use xlink:href="#i" width="172" height="122" x="-86" y="-61" transform="matrix(1 0 0 -1 602 183)" overflow="visible"/><use xlink:href="#j" width="172" height="122" x="-86" y="-61" transform="matrix(1 0 0 -1 774 183)" overflow="visible"/><use xlink:href="#k" width="172" height="122" x="-86" y="-61" transform="matrix(1 0 0 -1 86 305)" overflow="visible"/><use xlink:href="#l" width="172" height="122" x="-86" y="-61" transform="matrix(1 0 0 -1 258 305)" overflow="visible"/><use xlink:href="#m" width="172" height="122" x="-86" y="-61" transform="matrix(1 0 0 -1 430 305)" overflow="visible"/><use xlink:href="#n" width="172" height="122" x="-86" y="-61" transform="matrix(1 0 0 -1 602 305)" overflow="visible"/><use xlink:href="#o" width="172" height="122" x="-86" y="-61" transform="matrix(1 0 0 -1 774 305)" overflow="visible"/><use xlink:href="#p" width="172" height="122" x="-86" y="-61" transform="matrix(1 0 0 -1 86 427)" overflow="visible"/><use xlink:href="#q" width="172" height="122" x="-86" y="-61" transform="matrix(1 0 0 -1 258 427)" overflow="visible"/><use xlink:href="#r" width="172" height="122" x="-86" y="-61" transform="matrix(1 0 0 -1 430 427)" overflow="visible"/><use xlink:href="#s" width="172" height="122" x="-86" y="-61" transform="matrix(1 0 0 -1 602 427)" overflow="visible"/><use xlink:href="#t" width="172" height="122" x="-86" y="-61" transform="matrix(1 0 0 -1 774 427)" overflow="visible"/><use xlink:href="#u" width="172" height="122" x="-86" y="-61" transform="matrix(1 0 0 -1 86 549)" overflow="visible"/><use xlink:href="#v" width="172" height="122" x="-86" y="-61" transform="matrix(1 0 0 -1 258 549)" overflow="visible"/><use xlink:href="#w" width="172" height="122" x="-86" y="-61" transform="matrix(1 0 0 -1 430 549)" overflow="visible"/><use xlink:href="#x" width="172" height="122" x="-86" y="-61" transform="matrix(1 0 0 -1 602 549)" overflow="visible"/><use xlink:href="#y" width="172" height="122" x="-86" y="-61" transform="matrix(1 0 0 -1 774 549)" overflow="visible"/><use xlink:href="#z" width="172" height="122" x="-86" y="-61" transform="matrix(1 0 0 -1 86 671)" overflow="visible"/><use xlink:href="#A" width="172" height="122" x="-86" y="-61" transform="matrix(1 0 0 -1 258 671)" overflow="visible"/><use xlink:href="#B" width="172" height="122" x="-86" y="-61" transform="matrix(1 0 0 -1 430 671)" overflow="visible"/><use xlink:href="#C" width="172" height="122" x="-86" y="-61" transform="matrix(1 0 0 -1 602 671)" overflow="visible"/><use xlink:href="#D" width="172" height="122" x="-86" y="-61" transform="matrix(1 0 0 -1 774 671)" overflow="visible"/><use xlink:href="#E" width="172" height="122" x="-86" y="-61" transform="matrix(1 0 0 -1 86 793)" overflow="visible"/><use xlink:href="#F" width="172" height="122" x="-86" y="-61" transform="matrix(1 0 0 -1 258 793)" overflow="visible"/><use xlink:href="#G" width="172" height="122" x="-86" y="-61" transform="matrix(1 0 0 -1 430 793)" overflow="visible"/><use xlink:href="#H" width="172" height="122" x="-86" y="-61" transform="matrix(1 0 0 -1 602 793)" overflow="visible"/><use xlink:href="#I" width="172" height="122" x="-86" y="-61" transform="matrix(1 0 0 -1 774 793)" overflow="visible"/><use xlink:href="#J" width="172" height="122" x="-86" y="-61" transform="matrix(1 0 0 -1 86 915)" overflow="visible"/><use xlink:href="#K" width="172" height="122" x="-86" y="-61" transform="matrix(1 0 0 -1 258 915)" overflow="visible"/><use xlink:href="#L" width="172" height="122" x="-86" y="-61" transform="matrix(1 0 0 -1 430 915)" overflow="visible"/><use xlink:href="#M" width="172" height="122" x="-86" y="-61" transform="matrix(1 0 0 -1 602 915)" overflow="visible"/><use xlink:href="#N" width="172" height="122" x="-86" y="-61" transform="matrix(1 0 0 -1 774 915)" overflow="visible"/><use xlink:href="#O" width="172" height="122" x="-86" y="-61" transform="matrix(1 0 0 -1 86 1037)" overflow="visible"/><use xlink:href="#P" width="172" height="122" x="-86" y="-61" transform="matrix(1 0 0 -1 258 1037)" overflow="visible"/><use xlink:href="#Q" width="172" height="122" x="-86" y="-61" transform="matrix(1 0 0 -1 430 1037)" overflow="visible"/><use xlink:href="#R" width="172" height="122" x="-86" y="-61" transform="matrix(1 0 0 -1 602 1037)" overflow="visible"/><use xlink:href="#S" width="172" height="122" x="-86" y="-61" transform="matrix(1 0 0 -1 774 1037)" overflow="visible"/></g></svg>